<svg width="91" height="27" viewBox="0 0 91 27" fill="none" xmlns="http://www.w3.org/2000/svg">
<path d="M13.4824 26H8.17383V5.01172H0.84375V0.634766H20.8301V5.01172H13.4824V26ZM34.6465 23.8027C32.9707 25.5371 30.6973 26.4043 27.8262 26.4043C24.9551 26.4043 22.6816 25.5312 21.0059 23.7852C19.3301 22.0391 18.4922 19.6309 18.4922 16.5605C18.4922 13.5254 19.3359 11.1348 21.0234 9.38867C22.7227 7.63086 24.9902 6.75195 27.8262 6.75195C30.6738 6.75195 32.9414 7.63086 34.6289 9.38867C36.3164 11.1348 37.1602 13.5254 37.1602 16.5605C37.1602 19.6426 36.3223 22.0566 34.6465 23.8027ZM27.8262 22.4844C29.0918 22.4844 30.0938 21.9688 30.832 20.9375C31.5703 19.9062 31.9395 18.4531 31.9395 16.5781C31.9395 14.7266 31.5703 13.2793 30.832 12.2363C30.0938 11.1934 29.0918 10.6719 27.8262 10.6719C26.5605 10.6719 25.5527 11.1934 24.8027 12.2363C24.0645 13.2793 23.6953 14.7266 23.6953 16.5781C23.6953 18.4531 24.0645 19.9062 24.8027 20.9375C25.541 21.9688 26.5488 22.4844 27.8262 22.4844ZM47.3906 0.634766H57.0762C60.8965 0.634766 63.8672 1.73047 65.9883 3.92188C68.1094 6.11328 69.1699 9.21289 69.1699 13.2207C69.1699 17.2402 68.1035 20.375 65.9707 22.625C63.8496 24.875 60.8848 26 57.0762 26H47.3906V0.634766ZM52.6992 5.01172V21.6055H56.4434C58.8223 21.6055 60.6328 20.8965 61.875 19.4785C63.1289 18.0488 63.7559 15.9688 63.7559 13.2383C63.7559 10.5898 63.123 8.55664 61.8574 7.13867C60.5918 5.7207 58.7871 5.01172 56.4434 5.01172H52.6992ZM87.627 23.8027C85.9512 25.5371 83.6777 26.4043 80.8066 26.4043C77.9355 26.4043 75.6621 25.5312 73.9863 23.7852C72.3105 22.0391 71.4727 19.6309 71.4727 16.5605C71.4727 13.5254 72.3164 11.1348 74.0039 9.38867C75.7031 7.63086 77.9707 6.75195 80.8066 6.75195C83.6543 6.75195 85.9219 7.63086 87.6094 9.38867C89.2969 11.1348 90.1406 13.5254 90.1406 16.5605C90.1406 19.6426 89.3027 22.0566 87.627 23.8027ZM80.8066 22.4844C82.0723 22.4844 83.0742 21.9688 83.8125 20.9375C84.5508 19.9062 84.9199 18.4531 84.9199 16.5781C84.9199 14.7266 84.5508 13.2793 83.8125 12.2363C83.0742 11.1934 82.0723 10.6719 80.8066 10.6719C79.541 10.6719 78.5332 11.1934 77.7832 12.2363C77.0449 13.2793 76.6758 14.7266 76.6758 16.5781C76.6758 18.4531 77.0449 19.9062 77.7832 20.9375C78.5215 21.9688 79.5293 22.4844 80.8066 22.4844Z" fill="#F4F4F4"/>
</svg>
