<?xml version="1.0" standalone="no"?>
<!DOCTYPE svg PUBLIC "-//W3C//DTD SVG 1.1//EN" "http://www.w3.org/Graphics/SVG/1.1/DTD/svg11.dtd" >
<svg xmlns="http://www.w3.org/2000/svg" xmlns:xlink="http://www.w3.org/1999/xlink" version="1.1">
<metadata>
Created by FontForge 20170731 at Fri Sep 11 16:40:59 2015
 By Aleksey,,,
Copyright (c) 1996-2015 Pushpananda Ekanayake (pushpanandae@gmail.com) Copyright (c) 2015 Sol Matas (sol@sonnenshine.com.ar) Copyright (c) 2015 Mooniak (hello@mooniak.com)
</metadata>
<defs>
<font id="AbhayaLibre-SemiBold" horiz-adv-x="636" >
  <font-face 
    font-family="Abhaya Libre SemiBold"
    font-weight="600"
    font-stretch="normal"
    units-per-em="1000"
    panose-1="2 0 5 0 0 0 0 0 0 0"
    ascent="800"
    descent="-200"
    x-height="427"
    cap-height="600"
    bbox="-599 -348 1687 855"
    underline-thickness="50"
    underline-position="-200"
    unicode-range="U+0020-F039E"
  />
<missing-glyph horiz-adv-x="372" 
 />
    <glyph glyph-name="uniFB01" unicode="fi" horiz-adv-x="589" 
d="M250 26q15 0 19.5 -5t4.5 -21h-246v26q76 0 76 52v323h-75v26h75v15q0 111 63.5 162t153.5 51t136 -29t46 -65q0 -19 -14.5 -32.5t-38 -13.5t-38.5 12t-22.5 29t-15.5 34q-18 41 -70 41t-78 -43t-26 -155v-6h297v-401h47q15 0 19.5 -5t4.5 -21h-233v26q34 0 49.5 11
t15.5 41v323h-200v-375h50z" />
    <glyph glyph-name="uniFB02" unicode="fl" horiz-adv-x="599" 
d="M578 0h-244v26q39 0 54.5 11t15.5 43v530q-47 19 -102.5 19t-78.5 -41.5t-23 -154.5v-6h106v-26h-106v-375h46q15 0 19.5 -5t4.5 -21h-242v26q76 0 76 52v323h-75v26h75v15q0 106 52 159.5t133 53.5q33 0 81 -5h131v-624h53q15 0 19.5 -5t4.5 -21z" />
    <glyph glyph-name=".notdef" horiz-adv-x="372" 
 />
    <glyph glyph-name=".null" horiz-adv-x="0" 
 />
    <glyph glyph-name="nonmarkingreturn" horiz-adv-x="333" 
 />
    <glyph glyph-name="space" unicode=" " horiz-adv-x="202" 
 />
    <glyph glyph-name="exclam" unicode="!" horiz-adv-x="261" 
d="M189 54q0 -25 -17.5 -42t-42 -17t-41.5 17t-17 42t17 42.5t41.5 17.5t42 -17.5t17.5 -42.5zM146 177h-32q0 118 -22.5 228.5t-22.5 136.5q0 68 61.5 68t61.5 -67q0 -27 -23 -138.5t-23 -227.5z" />
    <glyph glyph-name="quotedbl" unicode="&#x22;" horiz-adv-x="307" 
d="M220 657q21 0 34 -11.5t13 -29t-14.5 -75.5t-18.5 -99h-28q-4 41 -19 98t-15 75.5t13.5 30t34.5 11.5zM88 657q21 0 34 -11.5t13 -29.5t-15 -75.5t-19 -98.5h-28q-4 42 -18.5 98.5t-14.5 75t13.5 30t34.5 11.5z" />
    <glyph glyph-name="numbersign" unicode="#" horiz-adv-x="579" 
d="M351 244l16 122h-136l-16 -122h136zM60 194v50h121l16 122h-124v50h131l24 184h34l-24 -184h136l24 184h34l-24 -184h111v-50h-118l-16 -122h121v-50h-127l-27 -204h-34l27 204h-136l-27 -204h-34l27 204h-115z" />
    <glyph glyph-name="dollar" unicode="$" horiz-adv-x="549" 
d="M295 -91h-29v82q-99 0 -159.5 33.5t-60.5 84.5q0 26 16 43t45.5 17t44.5 -15.5t18.5 -37.5t8.5 -44t24 -37.5t57 -15.5h6v248q-6 3 -30.5 14t-32.5 15t-29 15t-29.5 17.5t-24.5 18.5t-22.5 22t-15.5 24q-15 23 -15 62q0 70 57.5 109.5t141.5 44.5v90h29v-89
q78 -2 135 -32t57 -78q0 -26 -13.5 -41.5t-40 -15.5t-40.5 13.5t-18.5 33.5l-9 40t-21.5 35t-49 17v-228q10 -5 40 -18.5t43 -20.5t37.5 -20.5t36 -25.5t26.5 -29q25 -29 25 -79q0 -77 -59.5 -119.5t-148.5 -49.5v-83zM399 129q0 41 -27 69.5t-77 54.5v-232q104 13 104 108z
M172 489q0 -70 94 -120v212q-45 -4 -69.5 -28.5t-24.5 -63.5z" />
    <glyph glyph-name="percent" unicode="%" horiz-adv-x="932" 
d="M684 44.5q16 -34.5 52 -34.5t52 36.5t16 117t-16 114t-52.5 33.5t-52 -34.5t-15.5 -116t16 -116zM738 332q71 0 115 -45.5t44 -124.5t-45.5 -125.5t-116 -46.5t-115 46.5t-44.5 125t45.5 124.5t116.5 46zM291 44.5q16 -34.5 52 -34.5t52 36.5t16 117t-16 114t-52.5 33.5
t-52 -34.5t-15.5 -116t16 -116zM345 332q71 0 115 -45.5t44 -124.5t-45.5 -125.5t-116 -46.5t-115 46.5t-44.5 125t45.5 124.5t116.5 46zM-117 -31l-33 21l435 641l32 -21z" />
    <glyph glyph-name="ampersand" unicode="&#x26;" horiz-adv-x="591" 
d="M270 20q68 0 123 41q-130 154 -196 281q-31 -11 -47.5 -49t-16.5 -91q0 -182 137 -182zM253.5 563q-19.5 -21 -19.5 -59.5t35 -106.5q51 16 78.5 49t27.5 65.5t-19 52.5t-51 20t-51.5 -21zM527 319q0 -123 -54 -208q40 -46 76 -85h29q14 0 19.5 -5t5.5 -21h-155
q-26 28 -38 42q-70 -52 -169 -52t-154.5 54t-55.5 128t40.5 122.5t114.5 69.5q-35 73 -35 126t40 86.5t95.5 33.5t86 -27t30.5 -70t-33 -81.5t-90 -56.5q61 -107 174 -242q45 79 45 188h-55v26h144q0 -17 -6 -22t-22 -5l-31 -1h-2z" />
    <glyph glyph-name="quotesingle" unicode="'" horiz-adv-x="180" 
d="M91 657q22 0 36 -11.5t14 -29t-16.5 -75.5t-20.5 -99h-28q-4 42 -20 99t-16 75t14.5 29.5t36.5 11.5z" />
    <glyph glyph-name="parenleft" unicode="(" horiz-adv-x="336" 
d="M151 248q0 -135 41 -237.5t127 -134.5l-10 -26q-84 23 -144 84q-115 118 -115 312q0 142 68.5 256t193.5 148l9 -26q-59 -22 -99 -82q-71 -107 -71 -294z" />
    <glyph glyph-name="parenright" unicode=")" horiz-adv-x="337" 
d="M287 246q0 -194 -115 -312q-60 -61 -144 -84l-10 26q86 32 127 134.5t41 237.5q0 187 -72 294q-39 60 -98 82l9 26q125 -34 193.5 -148t68.5 -256z" />
    <glyph glyph-name="asterisk" unicode="*" horiz-adv-x="354" 
d="M178 650q18 0 29 -9t11 -23t-13.5 -54t-17.5 -65q16 13 36.5 37.5t35.5 38.5t30 14t27.5 -15.5t12.5 -32t-14.5 -24.5t-54.5 -16.5t-63 -16.5q25 -9 64.5 -17t53 -15.5t13.5 -25.5t-11.5 -33t-26 -15t-30.5 14.5t-37 39t-36 36.5q4 -26 17.5 -64.5t13.5 -53t-11.5 -23.5
t-29.5 -9q-40 0 -40 33q0 13 13 52t17 65q-16 -13 -37 -37.5t-35.5 -38t-29.5 -13.5t-27 15.5t-12 31.5t13.5 24.5t54.5 16.5t65 17q-25 9 -65 17t-53.5 15.5t-13.5 25.5t11.5 33t25.5 15t28.5 -13t36 -37.5t38.5 -38.5q-4 26 -17 64t-13 52.5t11.5 23.5t29.5 9z" />
    <glyph glyph-name="plus" unicode="+" horiz-adv-x="460" 
d="M422 215h-167v-179h-49v179h-167v38h167v179h49v-179h167v-38z" />
    <glyph glyph-name="comma" unicode="," horiz-adv-x="191" 
d="M159 44q0 -77 -69 -149l-21 15q42 44 42 72q0 15 -21.5 19.5t-35.5 19.5t-14 38t16 40.5t43 17.5t43.5 -20.5t16.5 -52.5z" />
    <glyph glyph-name="hyphen" unicode="-" horiz-adv-x="368" 
d="M40 198v42h288v-42h-288z" />
    <glyph glyph-name="period" unicode="." horiz-adv-x="197" 
d="M158 54q0 -25 -17.5 -42t-42 -17t-41.5 17t-17 42t17 42.5t41.5 17.5t42 -17.5t17.5 -42.5z" />
    <glyph glyph-name="slash" unicode="/" horiz-adv-x="421" 
d="M70 -155h-70l341 865h70z" />
    <glyph glyph-name="zero" unicode="0" horiz-adv-x="541" 
d="M181.5 73.5q29.5 -57.5 90.5 -57.5t89.5 61t28.5 194t-28.5 190t-90 57t-90.5 -59.5t-29 -193.5t29.5 -191.5zM274 544q103 0 165 -72t62 -202.5t-64.5 -205t-167 -74.5t-165.5 74.5t-63 203t65 202.5t168 74z" />
    <glyph glyph-name="one" unicode="1" horiz-adv-x="428" 
d="M291 534v-499l94 -8q15 -2 21.5 -7.5t6.5 -19.5h-357v26l133 9v431l-151 -94l-18 28l206 134h65z" />
    <glyph glyph-name="two" unicode="2" horiz-adv-x="478" 
d="M85 82h228q33 0 48 8t25 36l17 50h20l-1 -176h-392v24q0 53 28.5 91.5t69 63t80.5 50.5t68.5 70t28.5 100.5t-24.5 87.5t-65 31t-56 -16.5t-18 -40t-3.5 -47.5q-4 -57 -57 -57q-23 0 -36 17t-13 43q0 60 55 93.5t133.5 33.5t134 -36.5t55.5 -108.5q0 -49 -33.5 -91
t-81 -71t-95.5 -54t-81.5 -50.5t-33.5 -50.5z" />
    <glyph glyph-name="three" unicode="3" horiz-adv-x="515" 
d="M287 277q86 0 133 -47t47 -120t-63.5 -131.5t-170.5 -58.5q-83 0 -138 34t-55 92q0 25 13.5 40t40.5 15t39.5 -16t14 -38.5t4.5 -45.5t19 -39t49 -16q144 0 144 157q0 63 -29 103t-81 40q-33 0 -69 -15l-24 20l178 204l-179 1q-24 -2 -37.5 -10.5t-21.5 -31.5l-18 -52
h-23l2 172h384v-23l-225 -241q32 7 66 7z" />
    <glyph glyph-name="four" unicode="4" horiz-adv-x="511" 
d="M470 -68h-298v27h110v128l-268 1l-6 30q82 67 136 137t73.5 119t33 90t28.5 61.5t46 20.5q58 0 58 -54q0 -61 -86.5 -152t-243.5 -222l229 -1v118h8q25 0 37 8.5t20 35.5l11 40h22v-203h90v-30h-90v-127h66q15 0 19.5 -5t4.5 -22z" />
    <glyph glyph-name="five" unicode="5" horiz-adv-x="495" 
d="M91 534l196 -7q57 0 78.5 9.5t29.5 37.5h25q0 -83 -28 -107.5t-131 -24.5q-55 0 -137 8v-190q61 40 144.5 40t138 -52t54.5 -135.5t-65.5 -138t-167.5 -54.5q-78 0 -128.5 36t-50.5 90q0 24 14 39.5t41.5 15.5t40 -16t14 -38.5t4 -45.5t17.5 -39t48 -16q67 0 98.5 46.5
t31.5 116.5t-32 112t-92.5 42t-109.5 -41l-33 25v287z" />
    <glyph glyph-name="six" unicode="6" horiz-adv-x="525" 
d="M186.5 300q-32.5 -41 -32.5 -122t29.5 -121.5t84.5 -40.5q113 0 113 170q0 155 -110 155q-52 0 -84.5 -41zM429 320.5q55 -51.5 55 -135.5t-60.5 -139.5t-159.5 -55.5t-157.5 79.5t-58.5 220.5t65 232.5t187 91.5q76 0 125 -30.5t49 -74.5q0 -25 -14 -41t-41 -16t-39 14
t-14 34t-5 40t-20 34t-51 14q-69 0 -98 -66.5t-35 -191.5q59 42 138 42t134 -51.5z" />
    <glyph glyph-name="seven" unicode="7" horiz-adv-x="462" 
d="M205 -62q-14 -18 -43.5 -18t-45.5 14.5t-16 39t10 52.5t40.5 77t55 84.5t86 122.5t99.5 143h-241q-34 0 -51 -8t-27 -37l-18 -52h-23l2 178h433v-24q-82 -119 -135 -227t-70 -170t-29.5 -109.5t-26.5 -65.5z" />
    <glyph glyph-name="eight" unicode="8" horiz-adv-x="541" 
d="M124 234q-33 -39 -33 -92t46.5 -88t108.5 -35t102 28t40 80q0 51 -46 89q-35 28 -73.5 48.5t-43.5 23.5q-68 -15 -101 -54zM165 495q0 -61 67 -107q27 -18 85 -50q44 22 68 57.5t24 73.5q0 55 -39 85.5t-91 30.5t-83 -23.5t-31 -66.5zM413.5 36q-66.5 -46 -157 -46
t-145.5 44t-55 113q0 51 33.5 95t102.5 65q-56 31 -87 66t-31 83q0 74 56 116t134 42t129 -38t51 -107q0 -41 -25.5 -80.5t-73.5 -65.5q64 -36 99.5 -73t35.5 -91q0 -77 -66.5 -123z" />
    <glyph glyph-name="nine" unicode="9" horiz-adv-x="527" 
d="M144 371q0 -162 108 -162q55 0 86 37.5t31 113t-29 117t-87 41.5q-109 0 -109 -147zM419 465.5q60 -78.5 60 -224t-68.5 -233.5t-188.5 -88q-72 0 -122.5 32.5t-50.5 79.5q0 24 15 39t41.5 15t39 -14.5t14.5 -35t5.5 -41t20 -35t53 -14.5t63.5 21t41 61q27 72 29 193
q-58 -43 -139.5 -43t-136 47.5t-54.5 131t58 135.5t159 52t161 -78.5z" />
    <glyph glyph-name="colon" unicode=":" horiz-adv-x="205" 
d="M160 240q0 -8 -4 -22q4 -14 4 -22q0 -25 -17 -41.5t-41 -16.5t-40.5 16.5t-16.5 41.5q0 8 4 22q-4 14 -4 22q0 24 16.5 42t40.5 18t41 -18t17 -42z" />
    <glyph glyph-name="semicolon" unicode=";" horiz-adv-x="191" 
d="M142.5 112q16.5 -20 16.5 -54t-18.5 -74.5t-50.5 -73.5l-21 16q42 44 42 72q0 14 -22 19t-35.5 19.5t-13.5 38t16 40.5t43 17t43.5 -20zM155 290q0 -24 -17 -40.5t-41 -16.5t-40.5 16.5t-16.5 40.5t16.5 41t40.5 17t41 -17t17 -41z" />
    <glyph glyph-name="less" unicode="&#x3c;" horiz-adv-x="454" 
d="M399 72l-360 148v30l362 148l14 -34l-310 -128l310 -127z" />
    <glyph glyph-name="equal" unicode="=" horiz-adv-x="460" 
d="M422 160h-383v38h383v-38zM422 270h-383v38h383v-38z" />
    <glyph glyph-name="greater" unicode="&#x3e;" horiz-adv-x="454" 
d="M55 398l360 -148v-30l-363 -148l-13 34l310 128l-310 127z" />
    <glyph glyph-name="question" unicode="?" horiz-adv-x="461" 
d="M269 54q0 -25 -17.5 -42t-42 -17t-41.5 17t-17 42t17 42.5t41.5 17.5t42 -17.5t17.5 -42.5zM224 177h-32q0 57 17 100.5t37.5 67.5t37.5 64.5t17 90.5q0 84 -78 84q-29 0 -42.5 -13.5t-16 -33t-4.5 -38.5t-13.5 -32.5t-37.5 -13.5q-53 0 -53 53q0 47 52 75.5t125 28.5
t125 -32t52 -97q0 -67 -66 -119q-27 -22 -54.5 -45t-46.5 -58.5t-19 -81.5z" />
    <glyph glyph-name="at" unicode="@" horiz-adv-x="894" 
d="M388.5 71q15.5 -20 42 -20t51 23.5t34.5 65.5v78q-72 -2 -107.5 -22t-35.5 -62.5t15.5 -62.5zM454 -171q-163 0 -280 100t-117 267t108.5 277t293.5 110q152 0 259 -88q53 -43 83.5 -113t30.5 -163t-53.5 -151t-134.5 -58q-113 0 -125 81q-15 -37 -49.5 -58.5t-82 -21.5
t-80 27t-32.5 79q0 65 59 94.5t182 31.5v58q0 94 -70 94q-27 0 -39.5 -15t-14 -33t-13.5 -33t-34.5 -15t-33.5 11.5t-11 28.5q0 33 40.5 56.5t113.5 23.5q157 0 157 -142v-184q0 -58 45 -58q39 0 68 46.5t29 126.5q0 166 -87.5 256.5t-221 90.5t-213 -94.5t-79.5 -247.5
t96.5 -250.5t236.5 -97.5q90 0 177 42l12 -25q-105 -53 -220 -53z" />
    <glyph glyph-name="A" unicode="A" horiz-adv-x="627" 
d="M370 249l-91 237l-91 -237h182zM627 0h-237v26h67l-75 194h-205l-74 -194h52q15 0 20 -5t5 -21h-180v26h63l222 574h53l232 -574h32q14 0 19.5 -5t5.5 -21z" />
    <glyph glyph-name="B" unicode="B" horiz-adv-x="600" 
d="M317 312h-98v-286h95q64 0 96.5 44t32.5 103.5t-32 99t-94 39.5zM293 574h-74v-235h76q56 0 85 33.5t29 83.5q0 118 -116 118zM522 464q0 -42 -30 -80.5t-84 -57.5q75 -11 115 -52t40 -105.5t-59 -116.5t-164 -52h-308v26h80v548h-80v26h298q94 0 143 -37.5t49 -98.5z
" />
    <glyph glyph-name="C" unicode="C" horiz-adv-x="614" 
d="M547 43q-95 -53 -194 -53t-171.5 46t-106 115.5t-33.5 149.5q0 126 81.5 217.5t226.5 91.5q112 0 193 -53q-1 31 5 39.5t25 8.5l3 -189h-28q-49 165 -189 165q-90 0 -141.5 -71t-51.5 -208q0 -283 188 -283q150 0 198 168h27v-192q-20 0 -26.5 8.5t-5.5 39.5z" />
    <glyph glyph-name="D" unicode="D" horiz-adv-x="675" 
d="M317 574h-98v-548h99q190 0 190 278q0 147 -49.5 208.5t-141.5 61.5zM32 600h285q181 0 267 -132q45 -70 45 -169q0 -140 -92 -219.5t-220 -79.5h-285v26h80v548h-80v26z" />
    <glyph glyph-name="E" unicode="E" horiz-adv-x="561" 
d="M361 574h-142v-250h201v-29h-201v-269h142q47 0 72 28.5t39 74.5l18 56h23l-4 -185h-477v26h80v548h-80v26h477l4 -185h-23l-18 56q-29 103 -111 103z" />
    <glyph glyph-name="F" unicode="F" horiz-adv-x="521" 
d="M339 0h-307v26h80v548h-80v26h477l4 -187h-23l-18 58q-29 103 -111 103h-142v-250h201v-29h-201v-269h120v-26z" />
    <glyph glyph-name="G" unicode="G" horiz-adv-x="694" 
d="M404 272h265v-26h-71v-246l-100 27q-64 -37 -148 -37q-116 0 -206 76q-44 37 -70.5 98.5t-26.5 137t26 135.5t69 97q88 76 207 76q73 0 138 -30l90 18l5 -201h-28q-25 98 -68.5 141t-125.5 43q-191 0 -191 -280t189 -280q80 0 133 53v172h-87v26z" />
    <glyph glyph-name="H" unicode="H" horiz-adv-x="725" 
d="M299 0h-267v26h80v548h-80v26h267v-26h-80v-250h286v250h-80v26h268v-26h-81v-548h54q15 0 21 -5.5t6 -20.5h-268v26h80v269h-286v-269h54q15 0 20.5 -5.5t5.5 -20.5z" />
    <glyph glyph-name="I" unicode="I" horiz-adv-x="331" 
d="M299 0h-267v26h80v548h-80v26h267v-26h-80v-548h54q15 0 20.5 -5.5t5.5 -20.5z" />
    <glyph glyph-name="J" unicode="J" horiz-adv-x="386" 
d="M359 574h-78v-391q0 -106 -52.5 -154t-119 -48t-100.5 23.5t-34 55.5q0 20 13.5 34t38 14t37.5 -16t14 -34.5t10 -34.5t29 -16q33 0 44.5 38.5t11.5 129.5v399h-90v26h276v-26z" />
    <glyph glyph-name="K" unicode="K" horiz-adv-x="642" 
d="M299 0h-267v26h80v548h-80v26h267v-26h-80v-266l291 266h-80v26h182q0 -16 -5.5 -21t-19.5 -5t-27 -6q-17 -7 -51 -38l-167 -155l254 -349h20q15 0 20.5 -5.5t5.5 -20.5h-160l-218 303l-45 -41v-236h54q15 0 20.5 -5.5t5.5 -20.5z" />
    <glyph glyph-name="L" unicode="L" horiz-adv-x="502" 
d="M32 0v26h80v548h-80v26h272v-26h-85v-548h124q48 0 71 28t36 75l22 78h24l-5 -207h-459z" />
    <glyph glyph-name="M" unicode="M" horiz-adv-x="808" 
d="M786 600v-26h-80v-548h54q15 0 20.5 -5.5t5.5 -20.5h-263v26h80v480l-224 -513h-20l-216 443v-410h53q15 0 21 -5.5t6 -20.5h-201v26h80v548h-80v26h158l223 -466l200 466h183z" />
    <glyph glyph-name="N" unicode="N" horiz-adv-x="667" 
d="M455 574v26h204v-26h-80v-569l-51 -10l-389 475v-444h58q15 0 21 -5.5t6 -20.5h-206v26h80v548h-80v26h151l369 -450v424h-83z" />
    <glyph glyph-name="O" unicode="O" horiz-adv-x="705" 
d="M355 18q179 0 179 282t-182 282t-182 -282t185 -282zM355 610q124 0 213.5 -82.5t89.5 -226t-91 -227.5t-215.5 -84t-214.5 84t-90 229q0 94 45 166t114.5 106.5t148.5 34.5z" />
    <glyph glyph-name="P" unicode="P" horiz-adv-x="562" 
d="M320 0h-288v26h80v548h-80v26h311q96 0 146.5 -44.5t50.5 -120t-59.5 -123t-175.5 -47.5h-86v-239h75q15 0 20.5 -5.5t5.5 -20.5zM308 574h-89v-280h77q127 0 127 142q0 61 -28 99.5t-87 38.5z" />
    <glyph glyph-name="Q" unicode="Q" horiz-adv-x="708" 
d="M264 41q37 -23 78.5 -23t70.5 8q-40 56 -76.5 56t-72.5 -41zM241 58q45 64 99.5 64t118.5 -71q79 64 79 253q0 278 -183.5 278t-183.5 -282q0 -177 70 -242zM566 532q43 -38 68.5 -97.5t25.5 -133.5q0 -101 -47.5 -174t-125.5 -108q25 -31 39 -46.5t37 -30.5t45 -15
q45 0 96 57l22 -13q-52 -119 -134 -119q-43 0 -74 29.5t-45 51.5q-38 59 -42 66q-37 -9 -77 -9q-124 0 -214.5 84t-90.5 227t92 226t214.5 83t210.5 -78z" />
    <glyph glyph-name="R" unicode="R" horiz-adv-x="613" 
d="M301 574h-82v-270h87q57 0 88 40.5t31 96t-31.5 94.5t-92.5 39zM299 0h-267v26h80v548h-80v26h311q93 0 146 -46t53 -105.5t-36 -103t-105 -60.5l159 -259h28q15 0 20 -5t5 -21h-161l-156 275h-77v-249h80v-26z" />
    <glyph glyph-name="S" unicode="S" horiz-adv-x="545" 
d="M499 161q0 -81 -67 -126t-166.5 -45t-175.5 51q0 -27 -5.5 -35t-26.5 -8v209h34q7 -91 50 -140t120 -49q56 0 92.5 30t36.5 77t-34 78.5t-82 52.5t-96 43.5t-82 61t-34 90.5q0 74 62 116.5t152 42.5t165 -39q0 20 6.5 27t25.5 7v-177h-34q1 74 -44 113.5t-102 39.5
t-89.5 -25.5t-32.5 -69.5t33.5 -75t82 -52t96.5 -43.5t81.5 -61.5t33.5 -93z" />
    <glyph glyph-name="T" unicode="T" horiz-adv-x="567" 
d="M431 0h-298v26h95v548h-39q-82 0 -111 -102l-22 -76h-29l4 204h504l5 -204h-29l-22 76q-29 102 -112 102h-42v-548h69q15 0 21 -5.5t6 -20.5z" />
    <glyph glyph-name="U" unicode="U" horiz-adv-x="638" 
d="M10 574v26h267v-26h-79v-344q0 -111 37.5 -161t116.5 -50q165 0 165 209v346h-80v26h196v-26h-80v-340q0 -125 -53.5 -184.5t-168.5 -59.5q-241 0 -241 233v351h-80z" />
    <glyph glyph-name="V" unicode="V" horiz-adv-x="584" 
d="M311 -5q-26 0 -37.5 13t-30.5 64l-194 502h-56v26h244v-26h-80l177 -454l161 454h-80v26h169v-26h-50l-208 -579h-15z" />
    <glyph glyph-name="W" unicode="W" horiz-adv-x="856" 
d="M598 0q-19 0 -28.5 11.5t-25.5 55.5l-108 293l-131 -363h-12q-20 0 -30.5 13t-26.5 57l-187 507h-56v26h241v-26h-81l165 -457l102 288l-72 195h196v-26h-80l158 -454l151 454h-80v26h163v-26h-50l-195 -574h-13z" />
    <glyph glyph-name="X" unicode="X" horiz-adv-x="617" 
d="M194 0h-186q0 15 5.5 20.5t20.5 5.5q42 0 62 28l168 232l-191 288h-60v26h251v-26h-73l144 -214l153 214h-80v26h175q0 -15 -5.5 -20.5t-22.5 -5.5t-28 -5.5t-24 -22.5l-151 -211l208 -309h30q15 0 21 -5.5t6 -20.5h-253v26h73l-155 234l-168 -234h80v-26z" />
    <glyph glyph-name="Y" unicode="Y" horiz-adv-x="564" 
d="M423 0h-272v26h82v219l-185 329h-52v26h248v-26h-76l154 -286l145 286h-80v26h177q0 -15 -5.5 -20.5t-20.5 -5.5q-38 0 -53 -28l-144 -292v-228h55q15 0 21 -5.5t6 -20.5z" />
    <glyph glyph-name="Z" unicode="Z" horiz-adv-x="551" 
d="M23 0v21l379 553h-196q-51 0 -81 -65l-40 -90h-24l8 181h448v-21l-369 -553h227q77 0 98 85l24 96h26l-2 -207h-498z" />
    <glyph glyph-name="bracketleft" unicode="[" horiz-adv-x="361" 
d="M339 -136h-257v781h257v-28h-159v-723l159 -2v-28z" />
    <glyph glyph-name="backslash" unicode="\" horiz-adv-x="427" 
d="M332 -155l-341 865h70l341 -865h-70z" />
    <glyph glyph-name="bracketright" unicode="]" horiz-adv-x="374" 
d="M35 -136v28l159 2v723h-159v28h257v-781h-257z" />
    <glyph glyph-name="asciicircum" unicode="^" horiz-adv-x="540" 
d="M80 333l180 291h20l180 -291l-31 -20l-159 259l-159 -259z" />
    <glyph glyph-name="underscore" unicode="_" horiz-adv-x="492" 
d="M10 -69v44h472v-44h-472z" />
    <glyph glyph-name="grave" unicode="`" horiz-adv-x="500" 
d="M251.5 530.5q-58.5 27.5 -73.5 41t-15 33t15 35t33.5 15.5t30.5 -11t47 -60.5t69 -82.5l-15 -19q-33 21 -91.5 48.5z" />
    <glyph glyph-name="a" unicode="a" horiz-adv-x="487" 
d="M147 54q18 -23 49.5 -23t60.5 26.5t40 73.5v87q-87 -1 -127.5 -22t-40.5 -70t18 -72zM390 -10q-77 0 -90 90q-16 -41 -56 -65.5t-92 -24.5t-87.5 30.5t-35.5 86.5q0 70 66 103t202 35v64q0 105 -82 105q-30 0 -45.5 -16.5t-18.5 -36.5t-15 -36.5t-34 -16.5t-34.5 12
t-12.5 31q0 37 44 62.5t125 25.5q169 0 169 -155v-210q0 -51 25 -51q32 0 38 72l26 -1q-3 -53 -23.5 -78.5t-68.5 -25.5z" />
    <glyph glyph-name="b" unicode="b" horiz-adv-x="552" 
d="M384.5 348q-26.5 48 -80 48t-86.5 -56.5t-33 -145t31 -133.5t82 -45t82 50.5t31 142t-26.5 139.5zM455.5 51.5q-61.5 -61.5 -151 -61.5t-137.5 78l-8 -68h-138v26q39 0 53.5 11t14.5 46v541h-68v26h164v-322q48 111 160 111q79 0 125.5 -61.5t46.5 -163t-61.5 -163z" />
    <glyph glyph-name="c" unicode="c" horiz-adv-x="443" 
d="M98.5 48q-62.5 58 -62.5 161.5t60 166.5t160 63q72 0 122 -32.5t50 -74.5q0 -21 -14 -34.5t-39 -12.5t-36 15t-13.5 32.5t-5.5 37t-17.5 31.5t-44.5 13q-116 0 -116 -199q0 -98 35 -147.5t88 -49.5t90.5 24t56.5 65l26 -8q-21 -52 -70 -80.5t-112 -28.5q-95 0 -157.5 58z
" />
    <glyph glyph-name="d" unicode="d" horiz-adv-x="557" 
d="M174.5 360q-32.5 -51 -32.5 -140.5t27.5 -138.5t81 -49t86 56t32.5 144t-29.5 133.5t-81 45.5t-84 -51zM214 -10q-74 0 -126 57.5t-52 157.5t56.5 167.5t141.5 67.5t133 -50v235h-94v25h190l1 -624h49q15 0 19.5 -5t4.5 -21h-158l-11 101q-44 -111 -154 -111z" />
    <glyph glyph-name="e" unicode="e" horiz-adv-x="469" 
d="M253 -10q-92 0 -154.5 58t-62.5 161t58 166.5t156 63.5q80 0 134 -39t54 -101q0 -49 -44.5 -66t-142.5 -15l-109 2q4 -202 130 -202q44 0 79.5 24.5t54.5 64.5l24 -8q-21 -53 -67.5 -81t-109.5 -28zM315 384.5q-22 29.5 -66 29.5t-74 -42t-33 -124l89 -2q59 -2 82.5 11
t23.5 55.5t-22 72z" />
    <glyph glyph-name="f" unicode="f" horiz-adv-x="321" 
d="M271 25q15 0 19.5 -4.5t4.5 -20.5h-266v25q40 0 57.5 11t17.5 46v319h-75v26h75v15q0 110 53 161.5t130 51.5q58 0 92.5 -23t34.5 -54q0 -18 -13 -30t-32.5 -12t-32 14.5t-18 32.5t-19 32.5t-32.5 14.5q-35 0 -51 -42t-16 -155v-6h114v-26h-114v-376h71z" />
    <glyph glyph-name="g" unicode="g" horiz-adv-x="491" 
d="M133 -143.5q36 -22.5 106.5 -22.5t121 20t50.5 54q0 26 -19.5 36t-63.5 10l-174 2q-20 0 -37 6q-20 -25 -20 -54t36 -51.5zM236 439q60 0 106 -26q11 37 36.5 58t54.5 21t44 -15.5t15 -32.5q0 -37 -33 -37q-12 0 -26 13.5t-28 13.5q-29 0 -42 -35q57 -44 57 -118
t-53.5 -121.5t-133.5 -47.5h-3l-93 1q-21 0 -31.5 -9t-10.5 -22q0 -33 41 -35l192 -4q65 -1 98 -29.5t33 -80t-55.5 -88.5t-152.5 -37t-142.5 29t-45.5 67t30 70q-40 28 -40 79q0 35 21.5 60.5t62.5 25.5q-40 23 -65 59.5t-25 78.5q0 72 54 117t135 45zM165 379.5
q-19 -34.5 -19 -103t18.5 -103.5t68.5 -35t69 35.5t19 104t-18.5 102.5t-68.5 34t-69 -34.5z" />
    <glyph glyph-name="h" unicode="h" horiz-adv-x="567" 
d="M232 25q14 0 19 -4.5t5 -20.5h-229v25q38 0 53.5 11t15.5 46v543h-69v25h165v-310q18 46 60.5 72.5t96 26.5t91.5 -41t38 -121v-252h43q15 0 20 -4.5t5 -20.5h-222v25q36 0 46.5 10.5t10.5 46.5v202q0 51 -23 79t-62 28t-71.5 -36.5t-32.5 -103.5v-226h40z" />
    <glyph glyph-name="i" unicode="i" horiz-adv-x="290" 
d="M206 567q0 -26 -18.5 -44t-44.5 -18t-44 18t-18 44t18 44.5t44 18.5t44.5 -18.5t18.5 -44.5zM240 25q15 0 20 -4.5t5 -20.5h-237v25q39 0 55 11t16 46v320h-71v25h167v-402h45z" />
    <glyph glyph-name="j" unicode="j" horiz-adv-x="275" 
d="M110 -89l-2 119v372h-73v25h169v-420q0 -104 -42 -151.5t-103 -47.5q-44 0 -71.5 20.5t-27.5 43.5t11.5 34t31 11t30 -13t11.5 -28q5 -42 31 -42q35 0 35 77zM212 567q0 -26 -18 -44t-44 -18t-44.5 18t-18.5 44t18.5 44.5t44 18.5t44 -18.5t18.5 -44.5z" />
    <glyph glyph-name="k" unicode="k" horiz-adv-x="511" 
d="M244 25q15 0 20 -4.5t5 -20.5h-245v25q41 0 58.5 11t17.5 46v543h-76v25h172v-434l198 186h-74v25h170q0 -15 -5.5 -20t-23 -5t-29.5 -7.5t-38 -31.5l-86 -81l161 -257h27q15 0 20 -4.5t5 -20.5h-146l-133 219l-46 -43v-151h48z" />
    <glyph glyph-name="l" unicode="l" horiz-adv-x="298" 
d="M251 25q15 0 19.5 -4.5t4.5 -20.5h-249v25q44 0 60 11t16 47v542h-76v25h172v-625h53z" />
    <glyph glyph-name="m" unicode="m" horiz-adv-x="813" 
d="M224 25q15 0 20 -5t5 -20h-223v25q38 0 53 11t15 46v320h-68v25h158l5 -89q22 50 60 75.5t80.5 25.5t74.5 -27t45 -75q22 50 60 76t88 26t88 -42.5t38 -117.5v-254h44q15 0 20 -4.5t5 -20.5h-224v25q36 0 47.5 10.5t11.5 46.5v208q0 50 -21.5 77t-53 27t-59.5 -29.5
t-37 -80.5v-259h34q15 0 20 -4.5t5 -20.5h-214v25q36 0 48 10.5t12 46.5v208q0 50 -20.5 76.5t-52.5 26.5t-62 -34.5t-35 -92.5l-1 -241h34z" />
    <glyph glyph-name="n" unicode="n" horiz-adv-x="566" 
d="M227 25q15 0 20 -4.5t5 -20.5h-226v25q38 0 53 11t15 46v320h-68v25h158l5 -90q20 48 61.5 75t94 27t92.5 -42t40 -120v-252h43q15 0 20 -4.5t5 -20.5h-228v25q37 0 50 11t13 46v208q0 50 -23 76t-60 26t-69 -34t-37 -92l-1 -241h37z" />
    <glyph glyph-name="o" unicode="o" horiz-adv-x="516" 
d="M261 439q94 0 156.5 -60.5t62.5 -161.5t-65.5 -164t-158 -63t-156.5 63t-64 164.5t65.5 161.5t159.5 60zM142 215q0 -98 27 -149t90 -51q115 0 115 204q0 96 -26.5 145.5t-89.5 49.5q-116 0 -116 -199z" />
    <glyph glyph-name="p" unicode="p" horiz-adv-x="554" 
d="M413 213q0 183 -106 183q-53 0 -87 -55.5t-34 -145.5t32 -134.5t83 -44.5t81.5 51t30.5 146zM187 -165h63q15 0 20 -4.5t5 -20.5h-251v25q38 0 52.5 11t14.5 46v510h-67v25h157l5 -104q19 57 64 86.5t99 29.5q80 0 125 -61t45 -162t-62 -163.5t-144 -62.5t-126 50v-205z
" />
    <glyph glyph-name="q" unicode="q" horiz-adv-x="557" 
d="M336 85.5q32 53.5 32 144.5t-28 136t-82.5 45t-85.5 -53t-31 -142t28 -136.5t81.5 -47.5t85.5 53.5zM86.5 45.5q-51.5 55.5 -51.5 162.5t60.5 169t142.5 62t135 -50l4 38h157v-25h-71v-567h47q14 0 19 -4.5t5 -20.5h-246v25q45 0 62 11t17 46l1 201q-22 -50 -64.5 -76.5
t-91.5 -26.5q-74 0 -125.5 55.5z" />
    <glyph glyph-name="r" unicode="r" horiz-adv-x="405" 
d="M264 25q15 0 20 -4.5t5 -20.5h-262v25q39 0 53.5 10.5t14.5 46.5v320h-68v25h157l5 -97q19 49 60 76.5t76.5 27.5t55 -16t19.5 -41t-14 -40t-35.5 -15t-34 15.5t-21.5 31t-22.5 15.5t-31 -15.5t-34 -56t-16.5 -94.5v-193h73z" />
    <glyph glyph-name="s" unicode="s" horiz-adv-x="408" 
d="M192 17q42 0 67.5 19t25.5 50t-24.5 53t-59.5 36.5t-70.5 30.5t-60 45.5t-24.5 70.5q0 56 47 86.5t117.5 30.5t116.5 -28q0 20 5 27t21 7v-125h-28q-2 93 -101 93q-40 0 -65.5 -17t-25.5 -47.5t24.5 -51.5t59.5 -35t70.5 -30.5t60 -46t24.5 -72.5q0 -60 -46 -91.5
t-121.5 -31.5t-131.5 34q0 -19 -5 -25t-22 -6v152h31q0 -128 115 -128z" />
    <glyph glyph-name="t" unicode="t" horiz-adv-x="340" 
d="M18 400v25h70v95l96 21v-116h145v-25h-145v-304q0 -77 51.5 -77t72.5 90l27 -5q-12 -62 -42 -88.5t-81.5 -26.5t-87.5 32t-36 110v269h-70z" />
    <glyph glyph-name="u" unicode="u" horiz-adv-x="565" 
d="M516 25q15 0 20 -4.5t5 -20.5h-156l-7 94q-20 -49 -60 -76.5t-88 -27.5q-143 0 -143 168v244h-69v25h165v-285q0 -54 23.5 -79.5t63 -25.5t72 36t34.5 98v231h-68v25h165v-402h43z" />
    <glyph glyph-name="v" unicode="v" horiz-adv-x="469" 
d="M212 402h-69l120 -324l124 324h-78v25h157q0 -17 -4 -21t-19 -4t-22.5 -7t-15.5 -25l-143 -375h-22q-28 0 -41 13t-30 58l-124 336h-42v25h209v-25z" />
    <glyph glyph-name="w" unicode="w" horiz-adv-x="695" 
d="M217 402h-69l115 -325l76 234l-40 116h169v-25h-66l110 -324l104 324h-67v25h146q0 -15 -5.5 -20t-19.5 -5t-21 -6.5t-14 -26.5l-123 -374h-23q-26 0 -37 12t-28 59l-70 202l-89 -273h-26q-26 0 -39 13t-29 58l-122 336h-43v25h211v-25z" />
    <glyph glyph-name="x" unicode="x" horiz-adv-x="454" 
d="M3 0q0 27 18 25q8 -1 22.5 6t27.5 24l115 148l-135 199h-47v25h213v-25h-62l97 -144l106 144h-68v25h149q0 -26 -20 -24q-9 1 -23 -6.5t-27 -24.5l-101 -138l141 -209h20q15 0 20 -5t5 -20h-205v25h59l-105 155l-120 -155h73v-25h-153z" />
    <glyph glyph-name="y" unicode="y" horiz-adv-x="486" 
d="M114 -159q34 0 62.5 34.5t62.5 115.5l-186 410h-46v26h211v-26h-65l131 -302l120 302h-74v26h154q0 -16 -5.5 -21t-20 -5t-21.5 -6t-14 -25l-149 -375q-41 -104 -84.5 -145.5t-90.5 -41.5t-73.5 19.5t-26.5 41t11.5 33t30.5 11.5t29.5 -11.5t13.5 -24.5q8 -36 30 -36z
" />
    <glyph glyph-name="z" unicode="z" horiz-adv-x="421" 
d="M285 26q58 0 74 68l16 65h19l-3 -159h-373v22l275 382h-144q-42 0 -64 -49l-29 -63h-19l9 138h347v-21l-265 -383h157z" />
    <glyph glyph-name="braceleft" unicode="{" horiz-adv-x="400" 
d="M247 148v-151q0 -69 22 -87t111 -18v-28q-104 0 -143 8.5t-53 23.5q-32 36 -32 108v149q0 44 -15 62.5t-61 28.5v21q46 10 61 28.5t15 62.5v149q0 72 32 107q24 27 108 32q30 1 88 1v-28q-89 0 -111 -18t-22 -87v-151q0 -32 -12.5 -54t-25.5 -30.5t-38 -19.5v-5
q25 -11 38 -19.5t25.5 -30.5t12.5 -54z" />
    <glyph glyph-name="bar" unicode="|" horiz-adv-x="270" 
d="M102 -136v786h66v-786h-66z" />
    <glyph glyph-name="braceright" unicode="}" horiz-adv-x="394" 
d="M153 359v151q0 69 -22 87t-111 18v28q104 0 143 -8.5t53 -24.5q32 -35 32 -107v-149q0 -44 15 -62.5t61 -28.5v-21q-46 -10 -61 -28.5t-15 -62.5v-149q0 -72 -32 -108q-24 -26 -108 -30q-30 -2 -88 -2v28q89 0 111 18t22 87v151q0 32 12.5 54t25.5 30.5t38 19.5v5
q-25 11 -38 19.5t-25.5 30.5t-12.5 54z" />
    <glyph glyph-name="asciitilde" unicode="~" horiz-adv-x="490" 
d="M81.5 281q33.5 34 76 34t105 -34.5t88.5 -34.5q53 0 78 70l25 -7q-10 -60 -43 -94.5t-74 -34.5t-106 34.5t-93 34.5q-53 0 -77 -69l-25 7q12 60 45.5 94z" />
    <glyph glyph-name="uni00A0" unicode="&#xa0;" horiz-adv-x="202" 
 />
    <glyph glyph-name="exclamdown" unicode="&#xa1;" horiz-adv-x="268" 
d="M53 380q0 25 17.5 42t42 17t41.5 -17t17 -42t-17 -42.5t-41.5 -17.5t-42 17.5t-17.5 42.5zM96 257h32q0 -118 22.5 -228.5t22.5 -136.5q0 -68 -61.5 -68t-61.5 67q0 27 23 138.5t23 227.5z" />
    <glyph glyph-name="cent" unicode="&#xa2;" horiz-adv-x="463" 
d="M139 275q0 -83 25.5 -131.5t70.5 -60.5v390q-96 -18 -96 -198zM91.5 115.5q-56.5 57.5 -56.5 155t54.5 159.5t145.5 69v71h29v-70q69 -2 116 -34.5t47 -72.5q0 -21 -14 -34.5t-41 -12.5t-38 21.5t-10 44.5t-12.5 43.5t-47.5 19.5v-397h5q48 0 86 24.5t57 65.5l26 -7
q-20 -52 -66.5 -80t-107.5 -30v-71h-29v72q-87 6 -143.5 63.5z" />
    <glyph glyph-name="sterling" unicode="&#xa3;" horiz-adv-x="572" 
d="M87.5 37.5q9.5 -9.5 28.5 -9.5t37.5 16t23.5 44q-28 14 -51.5 14t-35.5 -11.5t-12 -27.5t9.5 -25.5zM178 123q-2 47 -48 175h-75v29h65q-16 59 -16 99q0 83 59.5 133.5t148.5 50.5t145 -31.5t56 -84.5q0 -24 -15.5 -40t-42.5 -16t-40.5 15t-17 36t-7.5 42.5t-21 36.5
t-50 15q-95 0 -95 -149q0 -42 7 -107h157v-29h-155q5 -52 5 -98t-11 -88q102 -23 166 -23q111 0 135 73h21q0 -91 -40.5 -134.5t-106.5 -43.5q-27 0 -56.5 10t-44.5 18t-90 58q-37 -70 -97 -70q-31 0 -49.5 18.5t-18.5 45.5t20.5 46.5t57.5 19.5q17 0 54 -7z" />
    <glyph glyph-name="currency" unicode="&#xa4;" horiz-adv-x="604" 
d="M428 124q-56 -48 -132 -48t-128 45l-85 -85l-25 25l85 84q-45 53 -45 132t43 134l-85 85l24 24l85 -84q56 47 134 47t133 -49l84 85l24 -25l-85 -86q39 -52 39 -128.5t-43 -130.5l87 -87l-24 -24zM297 110q64 0 110 44.5t46 125t-47 125.5t-110.5 45t-110 -45t-46.5 -125
t47 -125t111 -45z" />
    <glyph glyph-name="yen" unicode="&#xa5;" horiz-adv-x="570" 
d="M422 0h-262v26h77l1 194h-132v29h133v50h-133v29h115l-156 246h-49v26h236v-26h-66l142 -235l136 235h-81v26h179q0 -15 -4.5 -20.5t-24.5 -5.5t-30.5 -5.5t-20.5 -22.5l-125 -218h121v-29h-132v-50h132v-29h-133l-1 -194h53q15 0 20 -5t5 -21z" />
    <glyph glyph-name="brokenbar" unicode="&#xa6;" horiz-adv-x="270" 
d="M168 -136h-66v335h66v-335zM168 315h-66v335h66v-335z" />
    <glyph glyph-name="section" unicode="&#xa7;" horiz-adv-x="468" 
d="M424 288q0 -80 -99 -105q70 -44 70 -102.5t-50.5 -89.5t-116 -31t-111.5 24.5t-46 66.5q0 19 11.5 30.5t32 11.5t30.5 -11t13.5 -26.5t7.5 -31.5q11 -38 63 -38q34 0 54 18t20 45t-26.5 48.5t-64 38.5t-75 36.5t-64 50.5t-26.5 71q0 78 95 103q-69 42 -69 102t49 90
t114 30t110.5 -24t45.5 -64t-38 -40t-45 36q-3 15 -7 31q-11 36 -65 36q-33 0 -54 -18t-21 -46t27 -50t65.5 -38t77 -34.5t65.5 -48.5t27 -71zM244 224q37 -17 51 -24q40 21 40 61q0 32 -37 56q-29 19 -69.5 36.5t-55.5 25.5q-37 -21 -37 -57t35.5 -58.5t72.5 -39.5z" />
    <glyph glyph-name="dieresis" unicode="&#xa8;" horiz-adv-x="500" 
d="M400 570q0 -24 -17 -40t-41 -16t-40.5 16t-16.5 40t17 41t40.5 17t40.5 -17t17 -41zM215 570q0 -24 -16.5 -40t-40.5 -16t-40.5 16t-16.5 40t16.5 41t40.5 17t40.5 -17t16.5 -41z" />
    <glyph glyph-name="copyright" unicode="&#xa9;" horiz-adv-x="649" 
d="M330 455q56 0 97.5 -26t41.5 -67q0 -17 -11.5 -27.5t-36 -10.5t-36.5 17t-11.5 36.5t-9 36t-35.5 16.5q-36 0 -56 -42t-20 -107t23.5 -110t69.5 -45q71 0 102 64l22 -9q-19 -40 -56.5 -61.5t-84.5 -21.5q-78 0 -126.5 49.5t-48.5 127.5t49.5 129t126.5 51zM140 458.5
q-70 -73.5 -70 -183t71 -184t183 -74.5t183.5 74.5t71.5 183.5t-71 183t-184.5 74t-183.5 -73.5zM610 275q0 -120 -80.5 -202.5t-204.5 -82.5t-205 82.5t-81 202.5t80.5 202t205 82t205 -82t80.5 -202z" />
    <glyph glyph-name="ordfeminine" unicode="&#xaa;" horiz-adv-x="309" 
d="M116 361q18 0 33 16t23 42v43q-48 -1 -67.5 -14.5t-19.5 -40.5q0 -46 31 -46zM236 328q-52 0 -63 52q-23 -52 -83 -52q-34 0 -56 18.5t-22 57.5q0 79 160 79v31q0 66 -42 66q-17 0 -24.5 -10.5t-8 -23t-9.5 -23t-29 -10.5q-33 0 -33 30q0 26 28.5 41.5t75.5 15.5
q110 0 110 -96v-121q0 -28 14 -28q16 0 20 38h19q-1 -32 -16.5 -48.5t-40.5 -16.5zM282 243h-260v36h260v-36z" />
    <glyph glyph-name="guillemotleft" unicode="&#xab;" horiz-adv-x="417" 
d="M286.5 101.5q-61.5 56.5 -74.5 71.5t-13 31.5t13 31t74.5 71.5t90.5 88l19 -17q-21 -32 -60 -102t-39 -71q9 -15 44.5 -79t54.5 -94l-19 -17q-29 30 -90.5 86.5zM108.5 101.5q-61.5 56.5 -74.5 70.5t-13 31.5t13 32t74.5 71.5t90.5 88l19 -17q-21 -32 -60 -102t-39 -71
q9 -16 44 -79.5t54 -93.5l-18 -17q-29 30 -90.5 86.5z" />
    <glyph glyph-name="logicalnot" unicode="&#xac;" horiz-adv-x="487" 
d="M399 114v183h-360v38h409v-221h-49z" />
    <glyph glyph-name="uni00AD" unicode="&#xad;" horiz-adv-x="368" 
d="M40 198v42h288v-42h-288z" />
    <glyph glyph-name="registered" unicode="&#xae;" horiz-adv-x="395" 
d="M173 559v-79h22q15 0 23.5 11.5t8.5 28t-9 28t-24 11.5h-21zM173 463v-73h24v-15h-96v15h21v169h-21v15h107q37 0 56.5 -15.5t19.5 -37.5q0 -41 -48 -54l49 -77h7q13 0 13 -14l-65 -2l-49 89h-18zM89.5 579.5q-42.5 -42.5 -42.5 -107t42.5 -106.5t106.5 -42t106 42.5
t42 106.5t-42.5 106.5t-106 42.5t-106 -42.5zM320 594.5q50 -49.5 50 -122t-49.5 -121.5t-124.5 -49t-125 49t-50 122t50 122t124.5 49t124.5 -49.5z" />
    <glyph glyph-name="macron" unicode="&#xaf;" horiz-adv-x="500" 
d="M96 540v52h308v-52h-308z" />
    <glyph glyph-name="degree" unicode="&#xb0;" horiz-adv-x="290" 
d="M214.5 613q29.5 -30 29.5 -70.5t-29 -68.5t-70 -28t-70 28t-29 68.5t29 70.5t69.5 30t70 -30zM96.5 593.5q-20.5 -21.5 -20.5 -51t20 -49.5t49 -20t49 20.5t20 49.5t-20.5 50.5t-48.5 21.5t-48.5 -21.5z" />
    <glyph glyph-name="plusminus" unicode="&#xb1;" horiz-adv-x="460" 
d="M422 33h-383v38h383v-38zM422 255h-167v-139h-49v139h-167v38h167v139h49v-139h167v-38z" />
    <glyph glyph-name="uni00B2" unicode="&#xb2;" horiz-adv-x="305" 
d="M219 389q26 0 36.5 4t16.5 18l11 27h14l-1 -113h-265v10q0 61 60 99l50 32t42.5 41.5t17.5 60.5t-10 51.5t-35.5 16.5t-33 -16t-5 -34.5t-7.5 -34.5t-38 -16q-41 0 -41 39t39 61t91 22t90.5 -23t38.5 -64.5t-30.5 -70t-67.5 -43.5q-104 -39 -112 -67h139z" />
    <glyph glyph-name="uni00B3" unicode="&#xb3;" horiz-adv-x="326" 
d="M204 495q53 0 85 -26t32 -66q0 -55 -49.5 -87t-106 -32t-91 20t-34.5 57q0 16 10.5 27t33 11t32.5 -15t9 -33.5t7 -33.5t30 -15q71 0 71 98q0 75 -56 75q-18 0 -39 -9l-15 12l104 107h-101q-27 0 -35.5 -6t-13.5 -17l-11 -28h-15l1 115h258v-15l-147 -143q28 4 41 4z" />
    <glyph glyph-name="acute" unicode="&#xb4;" horiz-adv-x="500" 
d="M258.5 583.5q35.5 49.5 47.5 60.5t30 11t33.5 -15.5t15.5 -35t-15.5 -33t-73.5 -41t-91 -48.5l-16 19q34 33 69.5 82.5z" />
    <glyph glyph-name="mu" unicode="&#xb5;" horiz-adv-x="565" 
d="M181 -107q0 -66 -55 -66q-53 0 -53 64q0 13 7 111.5t7 154.5v244h-69v26h165v-285q0 -54 23.5 -79.5t63.5 -25.5t72.5 38t33.5 104v222h-68v26h165v-401h45q15 0 19.5 -4.5t4.5 -21.5h-157l-7 95q-24 -50 -61 -77.5t-76 -27.5q-56 0 -89 52q29 -136 29 -149z" />
    <glyph glyph-name="paragraph" unicode="&#xb6;" horiz-adv-x="531" 
d="M352 68v506h-51v-515q0 -120 -21 -145q42 7 57 42t15 112zM304 -103.5q-37 -11.5 -88 -11.5t-96 25t-45 65q0 24 15.5 39.5t43.5 15.5t42.5 -18.5t16.5 -40.5q5 -59 41 -59q23 0 30.5 27t7.5 114v152h-20q-99 0 -155 54.5t-56 140t63.5 143t183.5 57.5h230v-26h-75
l1 -488q0 -52 -19 -92t-51.5 -63t-69.5 -34.5z" />
    <glyph glyph-name="periodcentered" unicode="&#xb7;" horiz-adv-x="284" 
d="M204 230q0 -26 -18 -44t-44 -18t-44 18t-18 44t18 44.5t43.5 18.5t44 -18.5t18.5 -44.5z" />
    <glyph glyph-name="cedilla" unicode="&#xb8;" horiz-adv-x="500" 
d="M202 -61q23 10 62 10t69.5 -23.5t30.5 -62t-34.5 -64.5t-86.5 -26q-72 0 -107 53l16 12q30 -39 68 -39q23 0 38.5 17.5t15.5 48t-13.5 44.5t-37 14t-48.5 -17l-14 9l45 90h25z" />
    <glyph glyph-name="uni00B9" unicode="&#xb9;" horiz-adv-x="293" 
d="M214 649v-296q61 -8 65 -10q10 -4 10 -18h-244v21l83 7v241l-93 -64l-15 23l139 96h55z" />
    <glyph glyph-name="ordmasculine" unicode="&#xba;" horiz-adv-x="305" 
d="M21 243v36h260v-36h-260zM52.5 563.5q40.5 36.5 99.5 36.5t98 -37t39 -98t-40.5 -99t-98.5 -38t-98 38t-40 99.5t40.5 98zM106.5 548q-12.5 -28 -12.5 -84.5t12 -84.5t44.5 -28t44.5 29t12 85.5t-12 83.5t-44 27t-44.5 -28z" />
    <glyph glyph-name="guillemotright" unicode="&#xbb;" horiz-adv-x="417" 
d="M130.5 307q61.5 -57 74.5 -71.5t13 -31t-13 -31.5t-74.5 -71.5t-90.5 -86.5l-19 17q19 30 54.5 94t44.5 79q0 1 -39 71t-60 102l19 17q29 -31 90.5 -88zM308.5 307q61.5 -57 74.5 -71.5t13 -32t-13 -31.5t-74.5 -70.5t-90.5 -86.5l-18 17q19 30 54 93.5t44 79.5
q0 1 -39 71t-60 102l19 17q29 -31 90.5 -88z" />
    <glyph glyph-name="onequarter" unicode="&#xbc;" horiz-adv-x="821" 
d="M755 -59h-229v22h76v72l-174 1l-5 23q54 42 91 86t51.5 75t25.5 56.5t23 38.5t32 13q43 0 43 -39q0 -29 -22.5 -55t-37 -40.5t-40.5 -35.5t-42 -33t-46.5 -34.5t-42.5 -31.5l144 -1v72h8q22 0 33.5 7t18.5 28l8 21h17v-128h68v-24h-68v-71h48q12 0 16 -4.5t4 -17.5z
M198 -50l-33 21l435 641l32 -21zM249 659v-296l52 -6q13 -2 18 -6t5 -16h-244v21l84 7v241l-93 -63l-15 22l138 96h55z" />
    <glyph glyph-name="onehalf" unicode="&#xbd;" horiz-adv-x="741" 
d="M439 0v10q0 61 60 99q25 16 50.5 32t43 41.5t17.5 60.5t-10 51.5t-36 16.5t-33.5 -16t-5 -34.5t-7.5 -34.5t-38 -16q-41 0 -41 39t39 61t91.5 22t91 -23t38.5 -64.5t-30.5 -70t-68.5 -42.5q-103 -40 -111 -68h139q26 0 36.5 4t16.5 18l11 27h13l-1 -113h-265zM234 613
v-296q61 -8 65 -10q10 -4 10 -18h-244v21l83 7v241l-93 -64l-15 23l139 96h55zM582 631l32 -21l-434 -641l-33 21z" />
    <glyph glyph-name="threequarters" unicode="&#xbe;" horiz-adv-x="788" 
d="M706 48h-68v-71h48q12 0 16 -4.5t4 -17.5h-229v22h76v72l-174 1l-5 24q54 42 90.5 86t51.5 74.5t26 56t22.5 38.5t32.5 13q43 0 43 -39q0 -30 -23 -56t-36.5 -39.5t-41 -35.5t-41.5 -32q-64 -48 -89 -66l144 -1v71h8q21 1 32.5 8t19.5 27l8 21h17v-128h68v-24zM204 459
q53 0 85 -26t32 -66q0 -55 -49.5 -87t-106 -32t-91 20t-34.5 57q0 16 10.5 27t33 11t32.5 -15t9 -33.5t7 -33.5t30 -15q71 0 71 98q0 75 -56 75q-18 0 -39 -9l-15 12l104 107h-101q-27 0 -35.5 -6t-13.5 -17l-11 -28h-15l1 115h258v-15l-147 -143q28 4 41 4zM594 631l33 -21
l-434 -641l-33 21z" />
    <glyph glyph-name="questiondown" unicode="&#xbf;" horiz-adv-x="488" 
d="M181 380q0 25 17.5 42t42 17t41.5 -17t17 -42t-17 -42.5t-41.5 -17.5t-42 17.5t-17.5 42.5zM226 257h32q0 -57 -17 -100.5t-37.5 -67.5t-37.5 -64.5t-17 -90.5q0 -84 78 -84q29 0 42.5 13.5t16 32.5t4.5 38q5 47 51 47q53 0 53 -53q0 -47 -52 -75.5t-125 -28.5t-125 32
t-52 97q0 67 66 119q27 22 54.5 45t46.5 58.5t19 81.5z" />
    <glyph glyph-name="Agrave" unicode="&#xc0;" horiz-adv-x="627" 
d="M370 249l-91 237l-91 -237h182zM299.5 660.5q-58.5 27.5 -73.5 41t-15 33t15 35t33.5 15.5t30.5 -11t47 -60.5t69 -82.5l-15 -19q-33 21 -91.5 48.5zM627 0h-237v26h67l-75 194h-205l-74 -194h52q15 0 20 -5t5 -21h-180v26h63l222 574h53l232 -574h32q14 0 19.5 -5
t5.5 -21z" />
    <glyph glyph-name="Aacute" unicode="&#xc1;" horiz-adv-x="627" 
d="M370 249l-91 237l-91 -237h182zM295.5 713.5q35.5 49.5 47.5 60.5t30 11t33.5 -15.5t15.5 -35t-15.5 -33t-73.5 -41t-91 -48.5l-16 19q34 33 69.5 82.5zM627 0h-237v26h67l-75 194h-205l-74 -194h52q15 0 20 -5t5 -21h-180v26h63l222 574h53l232 -574h32q14 0 19.5 -5
t5.5 -21z" />
    <glyph glyph-name="Acircumflex" unicode="&#xc2;" horiz-adv-x="627" 
d="M370 249l-91 237l-91 -237h182zM311 776q15 0 29 -9.5t25 -22.5q53 -65 82 -97l-12 -18q-69 42 -122 66q-67 -30 -124 -65l-12 16q30 33 81 98q25 32 53 32zM627 0h-237v26h67l-75 194h-205l-74 -194h52q15 0 20 -5t5 -21h-180v26h63l222 574h53l232 -574h32
q14 0 19.5 -5t5.5 -21z" />
    <glyph glyph-name="Atilde" unicode="&#xc3;" horiz-adv-x="627" 
d="M370 249l-91 237l-91 -237h182zM258 771q30 0 72 -30t63 -30q39 0 54 56l21 -4q-9 -58 -33 -87.5t-56.5 -29.5t-74 30t-63 30t-34 -13.5t-20.5 -42.5l-20 4q18 117 91 117zM627 0h-237v26h67l-75 194h-205l-74 -194h52q15 0 20 -5t5 -21h-180v26h63l222 574h53l232 -574
h32q14 0 19.5 -5t5.5 -21z" />
    <glyph glyph-name="Adieresis" unicode="&#xc4;" horiz-adv-x="627" 
d="M370 249l-91 237l-91 -237h182zM461 699q0 -24 -17 -40t-41 -16t-40.5 16t-16.5 40t17 41t40.5 17t40.5 -17t17 -41zM276 699q0 -24 -16.5 -40t-40.5 -16t-40.5 16t-16.5 40t16.5 41t40.5 17t40.5 -17t16.5 -41zM627 0h-237v26h67l-75 194h-205l-74 -194h52q15 0 20 -5
t5 -21h-180v26h63l222 574h53l232 -574h32q14 0 19.5 -5t5.5 -21z" />
    <glyph glyph-name="Aring" unicode="&#xc5;" horiz-adv-x="627" 
d="M370 249l-91 237l-91 -237h182zM229 771.5q30 25.5 82 25.5t80 -25.5t28 -65.5t-30 -67t-81.5 -27t-80 26.5t-28.5 67t30 66zM263 704q0 -69 46 -69q24 0 35 21t11 50q0 67 -46 67t-46 -69zM627 0h-237v26h67l-75 194h-205l-74 -194h52q15 0 20 -5t5 -21h-180v26h63
l222 574h53l232 -574h32q14 0 19.5 -5t5.5 -21z" />
    <glyph glyph-name="AE" unicode="&#xc6;" horiz-adv-x="884" 
d="M186 0h-186v26h60l352 574h419l5 -187h-24l-17 58q-14 46 -39 74.5t-73 28.5h-139v-250h198v-29h-198v-269h139q48 0 72.5 28.5t38.5 74.5l18 58h24l-5 -187h-476v26h82v211h-204l-128 -211h57q15 0 19.5 -5t4.5 -21zM437 267v305l-186 -305h186z" />
    <glyph glyph-name="Ccedilla" unicode="&#xc7;" horiz-adv-x="614" 
d="M352 -10q-18 0 -27 1l-23 -52q23 10 62 10t69.5 -23.5t30.5 -62t-34.5 -64.5t-86.5 -26q-72 0 -107 53l16 12q30 -39 68 -39q23 0 38.5 17.5t15.5 48t-13.5 44.5t-37 14t-48.5 -17l-14 9l39 78q-122 17 -190 106t-68 208.5t81.5 211t226.5 91.5q112 0 193 -53
q-1 31 5 39.5t25 8.5l3 -189h-28q-49 165 -189 165q-90 0 -141.5 -71t-51.5 -208q0 -283 188 -283q150 0 198 168h27v-192q-20 0 -26.5 8.5t-5.5 39.5q-95 -53 -195 -53z" />
    <glyph glyph-name="Egrave" unicode="&#xc8;" horiz-adv-x="561" 
d="M282.5 660.5q-58.5 27.5 -73.5 41t-15 33t15 35t33.5 15.5t30.5 -11t47 -60.5t69 -82.5l-15 -19q-33 21 -91.5 48.5zM361 574h-142v-250h201v-29h-201v-269h142q47 0 72 28.5t39 74.5l18 56h23l-4 -185h-477v26h80v548h-80v26h477l4 -185h-23l-18 56q-29 103 -111 103z
" />
    <glyph glyph-name="Eacute" unicode="&#xc9;" horiz-adv-x="561" 
d="M278.5 713.5q35.5 49.5 47.5 60.5t30 11t33.5 -15.5t15.5 -35t-15.5 -33t-73.5 -41t-91 -48.5l-16 19q34 33 69.5 82.5zM361 574h-142v-250h201v-29h-201v-269h142q47 0 72 28.5t39 74.5l18 56h23l-4 -185h-477v26h80v548h-80v26h477l4 -185h-23l-18 56q-29 103 -111 103
z" />
    <glyph glyph-name="Ecircumflex" unicode="&#xca;" horiz-adv-x="561" 
d="M293 776q15 0 29 -9.5t25 -22.5q53 -65 82 -97l-12 -18q-69 42 -122 66q-67 -30 -124 -65l-12 16q30 33 81 98q25 32 53 32zM361 574h-142v-250h201v-29h-201v-269h142q47 0 72 28.5t39 74.5l18 56h23l-4 -185h-477v26h80v548h-80v26h477l4 -185h-23l-18 56
q-29 103 -111 103z" />
    <glyph glyph-name="Edieresis" unicode="&#xcb;" horiz-adv-x="561" 
d="M444 699q0 -24 -17 -40t-41 -16t-40.5 16t-16.5 40t17 41t40.5 17t40.5 -17t17 -41zM259 699q0 -24 -16.5 -40t-40.5 -16t-40.5 16t-16.5 40t16.5 41t40.5 17t40.5 -17t16.5 -41zM361 574h-142v-250h201v-29h-201v-269h142q47 0 72 28.5t39 74.5l18 56h23l-4 -185h-477
v26h80v548h-80v26h477l4 -185h-23l-18 56q-29 103 -111 103z" />
    <glyph glyph-name="Igrave" unicode="&#xcc;" horiz-adv-x="331" 
d="M153.5 660.5q-58.5 27.5 -73.5 41t-15 33t15 35t33.5 15.5t30.5 -11t47 -60.5t69 -82.5l-15 -19q-33 21 -91.5 48.5zM299 0h-267v26h80v548h-80v26h267v-26h-80v-548h54q15 0 20.5 -5.5t5.5 -20.5z" />
    <glyph glyph-name="Iacute" unicode="&#xcd;" horiz-adv-x="331" 
d="M149.5 713.5q35.5 49.5 47.5 60.5t30 11t33.5 -15.5t15.5 -35t-15.5 -33t-73.5 -41t-91 -48.5l-16 19q34 33 69.5 82.5zM299 0h-267v26h80v548h-80v26h267v-26h-80v-548h54q15 0 20.5 -5.5t5.5 -20.5z" />
    <glyph glyph-name="Icircumflex" unicode="&#xce;" horiz-adv-x="331" 
d="M164 776q15 0 29 -9.5t25 -22.5q53 -65 82 -97l-12 -18q-69 42 -122 66q-67 -30 -124 -65l-12 16q30 33 80 98q26 32 54 32zM299 0h-267v26h80v548h-80v26h267v-26h-80v-548h54q15 0 20.5 -5.5t5.5 -20.5z" />
    <glyph glyph-name="Idieresis" unicode="&#xcf;" horiz-adv-x="331" 
d="M315 699q0 -24 -17 -40t-41 -16t-40.5 16t-16.5 40t17 41t40.5 17t40.5 -17t17 -41zM130 699q0 -24 -16.5 -40t-40.5 -16t-40.5 16t-16.5 40t16.5 41t40.5 17t40.5 -17t16.5 -41zM299 0h-267v26h80v548h-80v26h267v-26h-80v-548h54q15 0 20.5 -5.5t5.5 -20.5z" />
    <glyph glyph-name="Eth" unicode="&#xd0;" horiz-adv-x="675" 
d="M328 289h-109v-263h99q190 0 190 278q0 147 -49.5 208.5t-141.5 61.5h-98v-243h109v-42zM32 600h285q181 0 267 -132q45 -70 45 -169q0 -140 -92 -219.5t-220 -79.5h-285v26h80v263h-72v42h72v243h-80v26z" />
    <glyph glyph-name="Ntilde" unicode="&#xd1;" horiz-adv-x="667" 
d="M282 771q30 0 72 -30t63 -30q39 0 54 56l21 -4q-9 -58 -33 -87.5t-56.5 -29.5t-74 30t-63 30t-34 -13.5t-20.5 -42.5l-20 4q18 117 91 117zM455 574v26h204v-26h-80v-569l-51 -10l-389 475v-444h58q15 0 21 -5.5t6 -20.5h-206v26h80v548h-80v26h151l369 -450v424h-83z
" />
    <glyph glyph-name="Ograve" unicode="&#xd2;" horiz-adv-x="705" 
d="M342.5 660.5q-58.5 27.5 -73.5 41t-15 33t15 35t33.5 15.5t30.5 -11t47 -60.5t69 -82.5l-15 -19q-33 21 -91.5 48.5zM355 18q179 0 179 282t-182 282t-182 -282t185 -282zM355 610q124 0 213.5 -82.5t89.5 -226t-91 -227.5t-215.5 -84t-214.5 84t-90 229q0 94 45 166
t114.5 106.5t148.5 34.5z" />
    <glyph glyph-name="Oacute" unicode="&#xd3;" horiz-adv-x="705" 
d="M339.5 713.5q35.5 49.5 47.5 60.5t30 11t33.5 -15.5t15.5 -35t-15.5 -33t-73.5 -41t-91 -48.5l-16 19q34 33 69.5 82.5zM355 18q179 0 179 282t-182 282t-182 -282t185 -282zM355 610q124 0 213.5 -82.5t89.5 -226t-91 -227.5t-215.5 -84t-214.5 84t-90 229q0 94 45 166
t114.5 106.5t148.5 34.5z" />
    <glyph glyph-name="Ocircumflex" unicode="&#xd4;" horiz-adv-x="705" 
d="M354 776q15 0 29 -9.5t25 -22.5q53 -65 82 -97l-12 -18q-69 42 -122 66q-67 -30 -124 -65l-12 16q30 33 80 98q26 32 54 32zM355 18q179 0 179 282t-182 282t-182 -282t185 -282zM355 610q124 0 213.5 -82.5t89.5 -226t-91 -227.5t-215.5 -84t-214.5 84t-90 229
q0 94 45 166t114.5 106.5t148.5 34.5z" />
    <glyph glyph-name="Otilde" unicode="&#xd5;" horiz-adv-x="705" 
d="M301 771q30 0 72 -30t63 -30q39 0 54 56l21 -4q-9 -58 -33 -87.5t-56.5 -29.5t-74 30t-63 30t-34 -13.5t-20.5 -42.5l-20 4q18 117 91 117zM355 18q179 0 179 282t-182 282t-182 -282t185 -282zM355 610q124 0 213.5 -82.5t89.5 -226t-91 -227.5t-215.5 -84t-214.5 84
t-90 229q0 94 45 166t114.5 106.5t148.5 34.5z" />
    <glyph glyph-name="Odieresis" unicode="&#xd6;" horiz-adv-x="705" 
d="M505 699q0 -24 -17 -40t-41 -16t-40.5 16t-16.5 40t17 41t40.5 17t40.5 -17t17 -41zM320 699q0 -24 -16.5 -40t-40.5 -16t-40.5 16t-16.5 40t16.5 41t40.5 17t40.5 -17t16.5 -41zM355 18q179 0 179 282t-182 282t-182 -282t185 -282zM355 610q124 0 213.5 -82.5
t89.5 -226t-91 -227.5t-215.5 -84t-214.5 84t-90 229q0 94 45 166t114.5 106.5t148.5 34.5z" />
    <glyph glyph-name="multiply" unicode="&#xd7;" horiz-adv-x="402" 
d="M327 77l-128 128l-127 -127l-28 28l127 127l-128 129l29 29l129 -128l128 128l28 -28l-128 -128l128 -129z" />
    <glyph glyph-name="Oslash" unicode="&#xd8;" horiz-adv-x="705" 
d="M355 18q179 0 179 286q0 159 -58 226l-196 -498q31 -14 75 -14zM170 299q0 -156 56 -225l196 496q-31 12 -70 12q-182 0 -182 -283zM355 610q40 0 79 -9l43 109h70l-52 -131q74 -37 118.5 -108t44.5 -172q0 -141 -91 -225t-215 -84q-42 0 -84 11l-62 -156h-70l71 179
q-73 38 -116.5 109.5t-43.5 167.5t45 168t114.5 106.5t148.5 34.5z" />
    <glyph glyph-name="Ugrave" unicode="&#xd9;" horiz-adv-x="638" 
d="M329.5 660.5q-58.5 27.5 -73.5 41t-15 33t15 35t33.5 15.5t30.5 -11t47 -60.5t69 -82.5l-15 -19q-33 21 -91.5 48.5zM10 574v26h267v-26h-79v-344q0 -111 37.5 -161t116.5 -50q165 0 165 209v346h-80v26h196v-26h-80v-340q0 -125 -53.5 -184.5t-168.5 -59.5
q-241 0 -241 233v351h-80z" />
    <glyph glyph-name="Uacute" unicode="&#xda;" horiz-adv-x="638" 
d="M325.5 713.5q35.5 49.5 47.5 60.5t30 11t33.5 -15.5t15.5 -35t-15.5 -33t-73.5 -41t-91 -48.5l-16 19q34 33 69.5 82.5zM10 574v26h267v-26h-79v-344q0 -111 37.5 -161t116.5 -50q165 0 165 209v346h-80v26h196v-26h-80v-340q0 -125 -53.5 -184.5t-168.5 -59.5
q-241 0 -241 233v351h-80z" />
    <glyph glyph-name="Ucircumflex" unicode="&#xdb;" horiz-adv-x="638" 
d="M341 776q15 0 29 -9.5t25 -22.5q53 -65 82 -97l-12 -18q-69 42 -122 66q-67 -30 -124 -65l-12 16q30 33 81 98q25 32 53 32zM10 574v26h267v-26h-79v-344q0 -111 37.5 -161t116.5 -50q165 0 165 209v346h-80v26h196v-26h-80v-340q0 -125 -53.5 -184.5t-168.5 -59.5
q-241 0 -241 233v351h-80z" />
    <glyph glyph-name="Udieresis" unicode="&#xdc;" horiz-adv-x="638" 
d="M491 699q0 -24 -17 -40t-41 -16t-40.5 16t-16.5 40t17 41t40.5 17t40.5 -17t17 -41zM306 699q0 -24 -16.5 -40t-40.5 -16t-40.5 16t-16.5 40t16.5 41t40.5 17t40.5 -17t16.5 -41zM10 574v26h267v-26h-79v-344q0 -111 37.5 -161t116.5 -50q165 0 165 209v346h-80v26h196
v-26h-80v-340q0 -125 -53.5 -184.5t-168.5 -59.5q-241 0 -241 233v351h-80z" />
    <glyph glyph-name="Yacute" unicode="&#xdd;" horiz-adv-x="564" 
d="M286.5 713.5q35.5 49.5 47.5 60.5t30 11t33.5 -15.5t15.5 -35t-15.5 -33t-73.5 -41t-91 -48.5l-16 19q34 33 69.5 82.5zM423 0h-272v26h82v219l-185 329h-52v26h248v-26h-76l154 -286l145 286h-80v26h177q0 -15 -5.5 -20.5t-20.5 -5.5q-38 0 -53 -28l-144 -292v-228h55
q15 0 21 -5.5t6 -20.5z" />
    <glyph glyph-name="Thorn" unicode="&#xde;" horiz-adv-x="581" 
d="M294 0h-265v26h77v548h-77v26h265v-26h-81v-94h125q96 0 146.5 -44.5t50.5 -120t-60 -123t-175 -47.5h-87v-119h56q15 0 20 -5t5 -21zM302 454h-89v-280h77q128 0 128 142q0 61 -28.5 99.5t-87.5 38.5z" />
    <glyph glyph-name="germandbls" unicode="&#xdf;" horiz-adv-x="570" 
d="M552 119q0 -59 -46 -93.5t-108 -34.5t-105.5 23t-43.5 61q0 18 12.5 30t33 12t31.5 -16t14.5 -35t17 -35t41.5 -16t46.5 20t18.5 56t-29.5 67t-65 51t-65 53.5t-29.5 67.5t12.5 53t30 30t34.5 23q43 27 43 79t-24 82t-71.5 30t-73 -43.5t-25.5 -150.5v-433h-172v26
q76 0 76 52v323h-76v26h76v15q0 106 57.5 156.5t141.5 50.5t137 -34.5t53 -90.5q0 -34 -20.5 -57t-44.5 -33t-44.5 -28t-20.5 -42.5t19.5 -44.5t47 -37.5t55 -37.5t47 -52t19.5 -73z" />
    <glyph glyph-name="agrave" unicode="&#xe0;" horiz-adv-x="487" 
d="M231.5 530.5q-58.5 27.5 -73.5 41t-15 33t15 35t33.5 15.5t30.5 -11t47 -60.5t69 -82.5l-15 -19q-33 21 -91.5 48.5zM147 54q18 -23 49.5 -23t60.5 26.5t40 73.5v87q-87 -1 -127.5 -22t-40.5 -70t18 -72zM390 -10q-77 0 -90 90q-16 -41 -56 -65.5t-92 -24.5t-87.5 30.5
t-35.5 86.5q0 70 66 103t202 35v64q0 105 -82 105q-30 0 -45.5 -16.5t-18.5 -36.5t-15 -36.5t-34 -16.5t-34.5 12t-12.5 31q0 37 44 62.5t125 25.5q169 0 169 -155v-210q0 -51 25 -51q32 0 38 72l26 -1q-3 -53 -23.5 -78.5t-68.5 -25.5z" />
    <glyph glyph-name="aacute" unicode="&#xe1;" horiz-adv-x="487" 
d="M227.5 583.5q35.5 49.5 47.5 60.5t30 11t33.5 -15.5t15.5 -35t-15.5 -33t-73.5 -41t-91 -48.5l-16 19q34 33 69.5 82.5zM147 54q18 -23 49.5 -23t60.5 26.5t40 73.5v87q-87 -1 -127.5 -22t-40.5 -70t18 -72zM390 -10q-77 0 -90 90q-16 -41 -56 -65.5t-92 -24.5
t-87.5 30.5t-35.5 86.5q0 70 66 103t202 35v64q0 105 -82 105q-30 0 -45.5 -16.5t-18.5 -36.5t-15 -36.5t-34 -16.5t-34.5 12t-12.5 31q0 37 44 62.5t125 25.5q169 0 169 -155v-210q0 -51 25 -51q32 0 38 72l26 -1q-3 -53 -23.5 -78.5t-68.5 -25.5z" />
    <glyph glyph-name="acircumflex" unicode="&#xe2;" horiz-adv-x="487" 
d="M242 646q15 0 29 -9.5t25 -22.5q53 -65 82 -97l-12 -18q-69 42 -122 66q-67 -30 -124 -65l-12 16q30 33 80 98q26 32 54 32zM147 54q18 -23 49.5 -23t60.5 26.5t40 73.5v87q-87 -1 -127.5 -22t-40.5 -70t18 -72zM390 -10q-77 0 -90 90q-16 -41 -56 -65.5t-92 -24.5
t-87.5 30.5t-35.5 86.5q0 70 66 103t202 35v64q0 105 -82 105q-30 0 -45.5 -16.5t-18.5 -36.5t-15 -36.5t-34 -16.5t-34.5 12t-12.5 31q0 37 44 62.5t125 25.5q169 0 169 -155v-210q0 -51 25 -51q32 0 38 72l26 -1q-3 -53 -23.5 -78.5t-68.5 -25.5z" />
    <glyph glyph-name="atilde" unicode="&#xe3;" horiz-adv-x="487" 
d="M190 641q30 0 72 -30t63 -30q39 0 54 56l21 -4q-9 -58 -33 -87.5t-56.5 -29.5t-74 30t-63 30t-34 -13.5t-20.5 -42.5l-20 4q18 117 91 117zM147 54q18 -23 49.5 -23t60.5 26.5t40 73.5v87q-87 -1 -127.5 -22t-40.5 -70t18 -72zM390 -10q-77 0 -90 90q-16 -41 -56 -65.5
t-92 -24.5t-87.5 30.5t-35.5 86.5q0 70 66 103t202 35v64q0 105 -82 105q-30 0 -45.5 -16.5t-18.5 -36.5t-15 -36.5t-34 -16.5t-34.5 12t-12.5 31q0 37 44 62.5t125 25.5q169 0 169 -155v-210q0 -51 25 -51q32 0 38 72l26 -1q-3 -53 -23.5 -78.5t-68.5 -25.5z" />
    <glyph glyph-name="adieresis" unicode="&#xe4;" horiz-adv-x="487" 
d="M393 569q0 -24 -17 -40t-41 -16t-40.5 16t-16.5 40t17 41t40.5 17t40.5 -17t17 -41zM208 569q0 -24 -16.5 -40t-40.5 -16t-40.5 16t-16.5 40t16.5 41t40.5 17t40.5 -17t16.5 -41zM147 54q18 -23 49.5 -23t60.5 26.5t40 73.5v87q-87 -1 -127.5 -22t-40.5 -70t18 -72z
M390 -10q-77 0 -90 90q-16 -41 -56 -65.5t-92 -24.5t-87.5 30.5t-35.5 86.5q0 70 66 103t202 35v64q0 105 -82 105q-30 0 -45.5 -16.5t-18.5 -36.5t-15 -36.5t-34 -16.5t-34.5 12t-12.5 31q0 37 44 62.5t125 25.5q169 0 169 -155v-210q0 -51 25 -51q32 0 38 72l26 -1
q-3 -53 -23.5 -78.5t-68.5 -25.5z" />
    <glyph glyph-name="aring" unicode="&#xe5;" horiz-adv-x="487" 
d="M161 641.5q30 25.5 82 25.5t80 -25.5t28 -65.5t-30 -67t-81.5 -27t-80 26.5t-28.5 67t30 66zM195 574q0 -69 46 -69q24 0 35 21t11 50q0 67 -46 67t-46 -69zM147 54q18 -23 49.5 -23t60.5 26.5t40 73.5v87q-87 -1 -127.5 -22t-40.5 -70t18 -72zM390 -10q-77 0 -90 90
q-16 -41 -56 -65.5t-92 -24.5t-87.5 30.5t-35.5 86.5q0 70 66 103t202 35v64q0 105 -82 105q-30 0 -45.5 -16.5t-18.5 -36.5t-15 -36.5t-34 -16.5t-34.5 12t-12.5 31q0 37 44 62.5t125 25.5q169 0 169 -155v-210q0 -51 25 -51q32 0 38 72l26 -1q-3 -53 -23.5 -78.5
t-68.5 -25.5z" />
    <glyph glyph-name="ae" unicode="&#xe6;" horiz-adv-x="722" 
d="M144.5 54q18.5 -23 51 -23t63 27t41.5 73v87q-90 -1 -132 -22t-42 -70t18.5 -72zM506 -10q-144 0 -188 116q-16 -51 -61.5 -83.5t-102 -32.5t-92.5 30.5t-36 86.5q0 70 67.5 103t206.5 35v64q0 105 -85 105q-31 0 -47 -16.5t-19.5 -36.5t-15.5 -36.5t-34 -16.5t-34.5 12
t-12.5 31q0 37 44.5 62.5t134.5 25.5t133 -56q54 56 136.5 56t136.5 -39t54 -101q0 -49 -44.5 -65.5t-142.5 -14.5l-108 2q4 -203 129 -203q44 0 79 24.5t54 64.5l26 -5q-20 -55 -66.5 -83.5t-111.5 -28.5zM569 385.5q-21 28.5 -67.5 28.5t-75 -41t-30.5 -125l88 -2
q59 -2 82.5 11t23.5 56.5t-21 72z" />
    <glyph glyph-name="ccedilla" unicode="&#xe7;" horiz-adv-x="443" 
d="M82.5 65.5q-46.5 55.5 -46.5 151.5t60 159t160 63q72 0 122 -32.5t50 -74.5q0 -21 -14 -34.5t-39 -12.5t-36 15t-13.5 32.5t-5.5 37t-17.5 31.5t-44.5 13q-116 0 -116 -199q0 -98 35 -147.5t88 -49.5t90.5 24t56.5 65l26 -8q-21 -52 -70 -80.5t-112 -28.5q-19 0 -28 1
l-23 -52q23 10 62 10t69.5 -23.5t30.5 -62t-34.5 -64.5t-86.5 -26q-72 0 -107 53l16 12q30 -39 68 -39q23 0 38.5 17.5t15.5 48t-13.5 44.5t-37 14t-48.5 -17l-14 9l40 80q-75 15 -121.5 70.5z" />
    <glyph glyph-name="egrave" unicode="&#xe8;" horiz-adv-x="469" 
d="M223.5 530.5q-58.5 27.5 -73.5 41t-15 33t15 35t33.5 15.5t30.5 -11t47 -60.5t69 -82.5l-15 -19q-33 21 -91.5 48.5zM253 -10q-92 0 -154.5 58t-62.5 161t58 166.5t156 63.5q80 0 134 -39t54 -101q0 -49 -44.5 -66t-142.5 -15l-109 2q4 -202 130 -202q44 0 79.5 24.5
t54.5 64.5l24 -8q-21 -53 -67.5 -81t-109.5 -28zM315 384.5q-22 29.5 -66 29.5t-74 -42t-33 -124l89 -2q59 -2 82.5 11t23.5 55.5t-22 72z" />
    <glyph glyph-name="eacute" unicode="&#xe9;" horiz-adv-x="469" 
d="M220.5 583.5q35.5 49.5 47.5 60.5t30 11t33.5 -15.5t15.5 -35t-15.5 -33t-73.5 -41t-91 -48.5l-16 19q34 33 69.5 82.5zM253 -10q-92 0 -154.5 58t-62.5 161t58 166.5t156 63.5q80 0 134 -39t54 -101q0 -49 -44.5 -66t-142.5 -15l-109 2q4 -202 130 -202q44 0 79.5 24.5
t54.5 64.5l24 -8q-21 -53 -67.5 -81t-109.5 -28zM315 384.5q-22 29.5 -66 29.5t-74 -42t-33 -124l89 -2q59 -2 82.5 11t23.5 55.5t-22 72z" />
    <glyph glyph-name="ecircumflex" unicode="&#xea;" horiz-adv-x="469" 
d="M235 646q15 0 29 -9.5t25 -22.5q53 -65 82 -97l-12 -18q-69 42 -122 66q-67 -30 -124 -65l-12 16q30 33 81 98q25 32 53 32zM253 -10q-92 0 -154.5 58t-62.5 161t58 166.5t156 63.5q80 0 134 -39t54 -101q0 -49 -44.5 -66t-142.5 -15l-109 2q4 -202 130 -202
q44 0 79.5 24.5t54.5 64.5l24 -8q-21 -53 -67.5 -81t-109.5 -28zM315 384.5q-22 29.5 -66 29.5t-74 -42t-33 -124l89 -2q59 -2 82.5 11t23.5 55.5t-22 72z" />
    <glyph glyph-name="edieresis" unicode="&#xeb;" horiz-adv-x="469" 
d="M386 569q0 -24 -17 -40t-41 -16t-40.5 16t-16.5 40t17 41t40.5 17t40.5 -17t17 -41zM201 569q0 -24 -16.5 -40t-40.5 -16t-40.5 16t-16.5 40t16.5 41t40.5 17t40.5 -17t16.5 -41zM253 -10q-92 0 -154.5 58t-62.5 161t58 166.5t156 63.5q80 0 134 -39t54 -101
q0 -49 -44.5 -66t-142.5 -15l-109 2q4 -202 130 -202q44 0 79.5 24.5t54.5 64.5l24 -8q-21 -53 -67.5 -81t-109.5 -28zM315 384.5q-22 29.5 -66 29.5t-74 -42t-33 -124l89 -2q59 -2 82.5 11t23.5 55.5t-22 72z" />
    <glyph glyph-name="igrave" unicode="&#xec;" horiz-adv-x="285" 
d="M131.5 530.5q-58.5 27.5 -73.5 41t-15 33t15 35t33.5 15.5t30.5 -11t47 -60.5t69 -82.5l-15 -19q-33 21 -91.5 48.5zM240 26q15 0 19.5 -5t4.5 -21h-238v26q69 0 69 52v323h-69v26h170v-401h44z" />
    <glyph glyph-name="iacute" unicode="&#xed;" horiz-adv-x="285" 
d="M127.5 583.5q35.5 49.5 47.5 60.5t30 11t33.5 -15.5t15.5 -35t-15.5 -33t-73.5 -41t-91 -48.5l-16 19q34 33 69.5 82.5zM240 26q15 0 19.5 -5t4.5 -21h-238v26q69 0 69 52v323h-69v26h170v-401h44z" />
    <glyph glyph-name="icircumflex" unicode="&#xee;" horiz-adv-x="285" 
d="M142 646q15 0 29 -9.5t25 -22.5q53 -65 82 -97l-12 -18q-69 42 -122 66q-67 -30 -124 -65l-12 16q30 33 80 98q26 32 54 32zM240 26q15 0 19.5 -5t4.5 -21h-238v26q69 0 69 52v323h-69v26h170v-401h44z" />
    <glyph glyph-name="idieresis" unicode="&#xef;" horiz-adv-x="285" 
d="M240 26q15 0 19.5 -5t4.5 -21h-238v26q69 0 69 52v323h-69v26h170v-401h44zM265 609.5q17 -16.5 17 -40t-17 -39.5t-40 -16t-39 16t-16 39.5t16 40t39 16.5t40 -16.5zM100 609.5q16 -16.5 16 -40t-16 -39.5t-39.5 -16t-40 16t-16.5 39.5t16.5 40t40 16.5t39.5 -16.5z" />
    <glyph glyph-name="eth" unicode="&#xf0;" horiz-adv-x="552" 
d="M142 196q0 -88 27 -134.5t89 -46.5t90 51.5t28 134.5q0 178 -117 178t-117 -183zM440 429.5q41 -90.5 41 -192.5t-58 -174.5t-167 -72.5q-92 0 -156 58t-64 151t66 149t155 56q54 0 99 -24q-24 113 -79 171l-131 -75l-16 28l123 69q-56 43 -140 50l3 27q99 -4 179 -54
l101 57l15 -26l-88 -50q76 -57 117 -147.5z" />
    <glyph glyph-name="ntilde" unicode="&#xf1;" horiz-adv-x="566" 
d="M229 641q30 0 72 -30t63 -30q39 0 54 56l21 -4q-9 -58 -33 -87.5t-56.5 -29.5t-74 30t-63 30t-34 -13.5t-20.5 -42.5l-20 4q18 117 91 117zM227 25q15 0 20 -4.5t5 -20.5h-226v25q38 0 53 11t15 46v320h-68v25h158l5 -90q20 48 61.5 75t94 27t92.5 -42t40 -120v-252h43
q15 0 20 -4.5t5 -20.5h-228v25q37 0 50 11t13 46v208q0 50 -23 76t-60 26t-69 -34t-37 -92l-1 -241h37z" />
    <glyph glyph-name="ograve" unicode="&#xf2;" horiz-adv-x="516" 
d="M253.5 530.5q-58.5 27.5 -73.5 41t-15 33t15 35t33.5 15.5t30.5 -11t47 -60.5t69 -82.5l-15 -19q-33 21 -91.5 48.5zM261 439q94 0 156.5 -60.5t62.5 -161.5t-65.5 -164t-158 -63t-156.5 63t-64 164.5t65.5 161.5t159.5 60zM142 215q0 -98 27 -149t90 -51q115 0 115 204
q0 96 -26.5 145.5t-89.5 49.5q-116 0 -116 -199z" />
    <glyph glyph-name="oacute" unicode="&#xf3;" horiz-adv-x="516" 
d="M249.5 583.5q35.5 49.5 47.5 60.5t30 11t33.5 -15.5t15.5 -35t-15.5 -33t-73.5 -41t-91 -48.5l-16 19q34 33 69.5 82.5zM261 439q94 0 156.5 -60.5t62.5 -161.5t-65.5 -164t-158 -63t-156.5 63t-64 164.5t65.5 161.5t159.5 60zM142 215q0 -98 27 -149t90 -51
q115 0 115 204q0 96 -26.5 145.5t-89.5 49.5q-116 0 -116 -199z" />
    <glyph glyph-name="ocircumflex" unicode="&#xf4;" horiz-adv-x="516" 
d="M265 646q15 0 29 -9.5t25 -22.5q53 -65 82 -97l-12 -18q-69 42 -122 66q-67 -30 -124 -65l-12 16q30 33 81 98q25 32 53 32zM261 439q94 0 156.5 -60.5t62.5 -161.5t-65.5 -164t-158 -63t-156.5 63t-64 164.5t65.5 161.5t159.5 60zM142 215q0 -98 27 -149t90 -51
q115 0 115 204q0 96 -26.5 145.5t-89.5 49.5q-116 0 -116 -199z" />
    <glyph glyph-name="otilde" unicode="&#xf5;" horiz-adv-x="516" 
d="M212 641q30 0 72 -30t63 -30q39 0 54 56l21 -4q-9 -58 -33 -87.5t-56.5 -29.5t-74 30t-63 30t-34 -13.5t-20.5 -42.5l-20 4q18 117 91 117zM261 439q94 0 156.5 -60.5t62.5 -161.5t-65.5 -164t-158 -63t-156.5 63t-64 164.5t65.5 161.5t159.5 60zM142 215q0 -98 27 -149
t90 -51q115 0 115 204q0 96 -26.5 145.5t-89.5 49.5q-116 0 -116 -199z" />
    <glyph glyph-name="odieresis" unicode="&#xf6;" horiz-adv-x="516" 
d="M415 569q0 -24 -17 -40t-41 -16t-40.5 16t-16.5 40t17 41t40.5 17t40.5 -17t17 -41zM230 569q0 -24 -16.5 -40t-40.5 -16t-40.5 16t-16.5 40t16.5 41t40.5 17t40.5 -17t16.5 -41zM261 439q94 0 156.5 -60.5t62.5 -161.5t-65.5 -164t-158 -63t-156.5 63t-64 164.5
t65.5 161.5t159.5 60zM142 215q0 -98 27 -149t90 -51q115 0 115 204q0 96 -26.5 145.5t-89.5 49.5q-116 0 -116 -199z" />
    <glyph glyph-name="divide" unicode="&#xf7;" horiz-adv-x="460" 
d="M199 405q9 13 26.5 16.5t30.5 -8.5q14 -8 17.5 -25t-9.5 -30q-9 -14 -26 -17.5t-31 8.5q-14 9 -19 24q-3 18 11 32zM199 104q9 13 26.5 16.5t30.5 -8.5q14 -8 17.5 -25t-9.5 -30q-9 -14 -26 -17.5t-31 8.5q-14 9 -19 24q-3 18 11 32zM422 215h-383v38h383v-38z" />
    <glyph glyph-name="oslash" unicode="&#xf8;" horiz-adv-x="516" 
d="M259 15q115 0 115 204q0 57 -9 99l-212 -209q23 -94 106 -94zM142 215q0 -41 4 -69l208 205q-27 63 -96 63q-116 0 -116 -199zM36 219q0 100 65.5 160t152.5 60t145 -44l68 67l23 -21l-68 -67q58 -61 58 -159.5t-65.5 -161.5t-160 -63t-156.5 65l-67 -66l-23 22l70 68
q-42 60 -42 140z" />
    <glyph glyph-name="ugrave" unicode="&#xf9;" horiz-adv-x="565" 
d="M271.5 530.5q-58.5 27.5 -73.5 41t-15 33t15 35t33.5 15.5t30.5 -11t47 -60.5t69 -82.5l-15 -19q-33 21 -91.5 48.5zM516 25q15 0 20 -4.5t5 -20.5h-156l-7 94q-20 -49 -60 -76.5t-88 -27.5q-143 0 -143 168v244h-69v25h165v-285q0 -54 23.5 -79.5t63 -25.5t72 36
t34.5 98v231h-68v25h165v-402h43z" />
    <glyph glyph-name="uacute" unicode="&#xfa;" horiz-adv-x="565" 
d="M268.5 583.5q35.5 49.5 47.5 60.5t30 11t33.5 -15.5t15.5 -35t-15.5 -33t-73.5 -41t-91 -48.5l-16 19q34 33 69.5 82.5zM516 25q15 0 20 -4.5t5 -20.5h-156l-7 94q-20 -49 -60 -76.5t-88 -27.5q-143 0 -143 168v244h-69v25h165v-285q0 -54 23.5 -79.5t63 -25.5t72 36
t34.5 98v231h-68v25h165v-402h43z" />
    <glyph glyph-name="ucircumflex" unicode="&#xfb;" horiz-adv-x="565" 
d="M283 646q15 0 29 -9.5t25 -22.5q53 -65 82 -97l-12 -18q-69 42 -122 66q-67 -30 -124 -65l-12 16q30 33 81 98q25 32 53 32zM516 25q15 0 20 -4.5t5 -20.5h-156l-7 94q-20 -49 -60 -76.5t-88 -27.5q-143 0 -143 168v244h-69v25h165v-285q0 -54 23.5 -79.5t63 -25.5t72 36
t34.5 98v231h-68v25h165v-402h43z" />
    <glyph glyph-name="udieresis" unicode="&#xfc;" horiz-adv-x="565" 
d="M434 569q0 -24 -17 -40t-41 -16t-40.5 16t-16.5 40t17 41t40.5 17t40.5 -17t17 -41zM249 569q0 -24 -16.5 -40t-40.5 -16t-40.5 16t-16.5 40t16.5 41t40.5 17t40.5 -17t16.5 -41zM516 25q15 0 20 -4.5t5 -20.5h-156l-7 94q-20 -49 -60 -76.5t-88 -27.5q-143 0 -143 168
v244h-69v25h165v-285q0 -54 23.5 -79.5t63 -25.5t72 36t34.5 98v231h-68v25h165v-402h43z" />
    <glyph glyph-name="yacute" unicode="&#xfd;" horiz-adv-x="486" 
d="M258.5 583.5q35.5 49.5 47.5 60.5t30 11t33.5 -15.5t15.5 -35t-15.5 -33t-73.5 -41t-91 -48.5l-16 19q34 33 69.5 82.5zM114 -159q34 0 62.5 34.5t62.5 115.5l-186 410h-46v26h211v-26h-65l131 -302l120 302h-74v26h154q0 -16 -5.5 -21t-20 -5t-21.5 -6t-14 -25
l-149 -375q-41 -104 -84.5 -145.5t-90.5 -41.5t-73.5 19.5t-26.5 41t11.5 33t30.5 11.5t29.5 -11.5t13.5 -24.5q8 -36 30 -36z" />
    <glyph glyph-name="thorn" unicode="&#xfe;" horiz-adv-x="558" 
d="M313 396q-54 0 -88 -55t-34 -146t32 -135t83 -44t81 51t30 146q0 183 -104 183zM192 -164h63q15 0 19.5 -5t4.5 -21h-252v26q37 0 52.5 10.5t15.5 41.5v736h-69v26h164v-327q19 57 64 86.5t99 29.5q80 0 125 -61t45 -162t-62 -163.5t-144.5 -62.5t-124.5 50v-204z" />
    <glyph glyph-name="ydieresis" unicode="&#xff;" horiz-adv-x="486" 
d="M400 570q0 -24 -17 -40t-41 -16t-40.5 16t-16.5 40t17 41t40.5 17t40.5 -17t17 -41zM215 570q0 -24 -16.5 -40t-40.5 -16t-40.5 16t-16.5 40t16.5 41t40.5 17t40.5 -17t16.5 -41zM114 -159q34 0 62.5 34.5t62.5 115.5l-186 410h-46v26h211v-26h-65l131 -302l120 302h-74
v26h154q0 -16 -5.5 -21t-20 -5t-21.5 -6t-14 -25l-149 -375q-41 -104 -84.5 -145.5t-90.5 -41.5t-73.5 19.5t-26.5 41t11.5 33t30.5 11.5t29.5 -11.5t13.5 -24.5q8 -36 30 -36z" />
    <glyph glyph-name="Amacron" unicode="&#x100;" horiz-adv-x="627" 
d="M370 249l-91 237l-91 -237h182zM160 670v52h308v-52h-308zM627 0h-237v26h67l-75 194h-205l-74 -194h52q15 0 20 -5t5 -21h-180v26h63l222 574h53l232 -574h32q14 0 19.5 -5t5.5 -21z" />
    <glyph glyph-name="amacron" unicode="&#x101;" horiz-adv-x="487" 
d="M91 540v52h308v-52h-308zM147 54q18 -23 49.5 -23t60.5 26.5t40 73.5v87q-87 -1 -127.5 -22t-40.5 -70t18 -72zM390 -10q-77 0 -90 90q-16 -41 -56 -65.5t-92 -24.5t-87.5 30.5t-35.5 86.5q0 70 66 103t202 35v64q0 105 -82 105q-30 0 -45.5 -16.5t-18.5 -36.5t-15 -36.5
t-34 -16.5t-34.5 12t-12.5 31q0 37 44 62.5t125 25.5q169 0 169 -155v-210q0 -51 25 -51q32 0 38 72l26 -1q-3 -53 -23.5 -78.5t-68.5 -25.5z" />
    <glyph glyph-name="Abreve" unicode="&#x102;" horiz-adv-x="627" 
d="M370 249l-91 237l-91 -237h182zM206 770q12 -61 105 -61t105 61h21q0 -57 -30 -95t-94.5 -38t-95.5 38.5t-31 94.5h20zM627 0h-237v26h67l-75 194h-205l-74 -194h52q15 0 20 -5t5 -21h-180v26h63l222 574h53l232 -574h32q14 0 19.5 -5t5.5 -21z" />
    <glyph glyph-name="abreve" unicode="&#x103;" horiz-adv-x="487" 
d="M137 640q12 -61 105 -61t105 61h21q0 -57 -30 -95t-94.5 -38t-95.5 38.5t-31 94.5h20zM147 54q18 -23 49.5 -23t60.5 26.5t40 73.5v87q-87 -1 -127.5 -22t-40.5 -70t18 -72zM390 -10q-77 0 -90 90q-16 -41 -56 -65.5t-92 -24.5t-87.5 30.5t-35.5 86.5q0 70 66 103t202 35
v64q0 105 -82 105q-30 0 -45.5 -16.5t-18.5 -36.5t-15 -36.5t-34 -16.5t-34.5 12t-12.5 31q0 37 44 62.5t125 25.5q169 0 169 -155v-210q0 -51 25 -51q32 0 38 72l26 -1q-3 -53 -23.5 -78.5t-68.5 -25.5z" />
    <glyph glyph-name="Aogonek" unicode="&#x104;" horiz-adv-x="627" 
d="M370 249l-91 237l-91 -237h182zM627 0h-15q-45 -18 -70 -50t-25 -62q0 -50 39 -50q27 0 54 23l12 -16q-35 -36 -86 -36t-79.5 20.5t-28.5 55.5t35 66.5t103 48.5h-176v26h67l-75 194h-205l-74 -194h52q15 0 20 -5t5 -21h-180v26h63l222 574h53l232 -574h32q14 0 19.5 -5
t5.5 -21z" />
    <glyph glyph-name="aogonek" unicode="&#x105;" horiz-adv-x="487" 
d="M399 -162q27 0 54 23l12 -16q-35 -36 -86 -36t-79.5 20.5t-28.5 53t27 61t80 47.5q-67 7 -78 89q-16 -41 -56 -65.5t-92 -24.5t-87.5 30.5t-35.5 86.5q0 70 66 103t202 35v64q0 105 -82 105q-30 0 -45.5 -16.5t-18.5 -36.5t-15 -36.5t-34 -16.5t-34.5 12t-12.5 31
q0 37 44 62.5t125 25.5q169 0 169 -155v-210q0 -51 25 -51q32 0 38 72l26 -1q-3 -61 -31 -85h3l1 -9q-45 -18 -70 -50t-25 -62q0 -50 39 -50zM147 54q18 -23 49.5 -23t60.5 26.5t40 73.5v87q-87 -1 -127.5 -22t-40.5 -70t18 -72z" />
    <glyph glyph-name="Cacute" unicode="&#x106;" horiz-adv-x="614" 
d="M301.5 783.5q35.5 49.5 47.5 60.5t30 11t33.5 -15.5t15.5 -35t-15.5 -33t-73.5 -41t-91 -48.5l-16 19q34 33 69.5 82.5zM547 43q-95 -53 -194 -53t-171.5 46t-106 115.5t-33.5 149.5q0 126 81.5 217.5t226.5 91.5q112 0 193 -53q-1 31 5 39.5t25 8.5l3 -189h-28
q-49 165 -189 165q-90 0 -141.5 -71t-51.5 -208q0 -283 188 -283q150 0 198 168h27v-192q-20 0 -26.5 8.5t-5.5 39.5z" />
    <glyph glyph-name="cacute" unicode="&#x107;" horiz-adv-x="443" 
d="M231.5 583.5q35.5 49.5 47.5 60.5t30 11t33.5 -15.5t15.5 -35t-15.5 -33t-73.5 -41t-91 -48.5l-16 19q34 33 69.5 82.5zM98.5 48q-62.5 58 -62.5 161.5t60 166.5t160 63q72 0 122 -32.5t50 -74.5q0 -21 -14 -34.5t-39 -12.5t-36 15t-13.5 32.5t-5.5 37t-17.5 31.5
t-44.5 13q-116 0 -116 -199q0 -98 35 -147.5t88 -49.5t90.5 24t56.5 65l26 -8q-21 -52 -70 -80.5t-112 -28.5q-95 0 -157.5 58z" />
    <glyph glyph-name="Ccaron" unicode="&#x10c;" horiz-adv-x="614" 
d="M318 701q-16 0 -31 10t-27 24t-38 45t-51 57l14 18q61 -37 132 -70q88 43 132 70l14 -17q-24 -26 -49.5 -57.5t-37.5 -45.5t-27 -24t-31 -10zM547 43q-95 -53 -194 -53t-171.5 46t-106 115.5t-33.5 149.5q0 126 81.5 217.5t226.5 91.5q112 0 193 -53q-1 31 5 39.5t25 8.5
l3 -189h-28q-49 165 -189 165q-90 0 -141.5 -71t-51.5 -208q0 -283 188 -283q150 0 198 168h27v-192q-20 0 -26.5 8.5t-5.5 39.5z" />
    <glyph glyph-name="ccaron" unicode="&#x10d;" horiz-adv-x="443" 
d="M248 501q-16 0 -31 10t-27 24t-38 45t-51 57l14 18q61 -37 132 -70q88 43 132 70l14 -17q-24 -26 -49.5 -57.5t-37.5 -45.5t-27 -24t-31 -10zM98.5 48q-62.5 58 -62.5 161.5t60 166.5t160 63q72 0 122 -32.5t50 -74.5q0 -21 -14 -34.5t-39 -12.5t-36 15t-13.5 32.5
t-5.5 37t-17.5 31.5t-44.5 13q-116 0 -116 -199q0 -98 35 -147.5t88 -49.5t90.5 24t56.5 65l26 -8q-21 -52 -70 -80.5t-112 -28.5q-95 0 -157.5 58z" />
    <glyph glyph-name="Dcaron" unicode="&#x10e;" horiz-adv-x="675" 
d="M331 631q-16 0 -31 10t-27 24t-38 45t-51 57l14 18q61 -37 132 -70q88 43 132 70l14 -17q-24 -26 -49.5 -57.5t-37.5 -45.5t-27 -24t-31 -10zM317 574h-98v-548h99q190 0 190 278q0 147 -49.5 208.5t-141.5 61.5zM32 600h285q181 0 267 -132q45 -70 45 -169
q0 -140 -92 -219.5t-220 -79.5h-285v26h80v548h-80v26z" />
    <glyph glyph-name="dcaron" unicode="&#x10f;" horiz-adv-x="557" 
d="M616 584q0 -81 -73 -157l-22 16q45 49 45 77q0 15 -23 20t-38 20.5t-15 39.5t17.5 42.5t45.5 18.5t45.5 -21.5t17.5 -55.5zM174.5 360q-32.5 -51 -32.5 -140.5t27.5 -138.5t81 -49t86 56t32.5 144t-29.5 133.5t-81 45.5t-84 -51zM214 -10q-74 0 -126 57.5t-52 157.5
t56.5 167.5t141.5 67.5t133 -50v235h-94v25h190l1 -624h49q15 0 19.5 -5t4.5 -21h-158l-11 101q-44 -111 -154 -111z" />
    <glyph glyph-name="Dcroat" unicode="&#x110;" horiz-adv-x="675" 
d="M328 289h-109v-263h99q190 0 190 278q0 147 -49.5 208.5t-141.5 61.5h-98v-243h109v-42zM32 600h285q181 0 267 -132q45 -70 45 -169q0 -140 -92 -219.5t-220 -79.5h-285v26h80v263h-72v42h72v243h-80v26z" />
    <glyph glyph-name="dcroat" unicode="&#x111;" horiz-adv-x="557" 
d="M174.5 360q-32.5 -51 -32.5 -140.5t27.5 -138.5t81 -49t86 56t32.5 144t-29.5 133.5t-81 45.5t-84 -51zM184 509v33h183v83h-94v25h190v-108h74v-33h-74l1 -483h49q15 0 19.5 -5t4.5 -21h-158l-11 101q-44 -111 -154 -111q-74 0 -126 57.5t-52 157.5t56.5 167.5
t141.5 67.5t133 -50v119h-183z" />
    <glyph glyph-name="Emacron" unicode="&#x112;" horiz-adv-x="561" 
d="M142 670v52h308v-52h-308zM361 574h-142v-250h201v-29h-201v-269h142q47 0 72 28.5t39 74.5l18 56h23l-4 -185h-477v26h80v548h-80v26h477l4 -185h-23l-18 56q-29 103 -111 103z" />
    <glyph glyph-name="emacron" unicode="&#x113;" horiz-adv-x="469" 
d="M84 540v52h308v-52h-308zM253 -10q-92 0 -154.5 58t-62.5 161t58 166.5t156 63.5q80 0 134 -39t54 -101q0 -49 -44.5 -66t-142.5 -15l-109 2q4 -202 130 -202q44 0 79.5 24.5t54.5 64.5l24 -8q-21 -53 -67.5 -81t-109.5 -28zM315 384.5q-22 29.5 -66 29.5t-74 -42
t-33 -124l89 -2q59 -2 82.5 11t23.5 55.5t-22 72z" />
    <glyph glyph-name="Edotaccent" unicode="&#x116;" horiz-adv-x="561" 
d="M356 697q0 -26 -18 -44t-44.5 -18t-44.5 18t-18 44t18 44.5t44 18.5t44.5 -18.5t18.5 -44.5zM361 574h-142v-250h201v-29h-201v-269h142q47 0 72 28.5t39 74.5l18 56h23l-4 -185h-477v26h80v548h-80v26h477l4 -185h-23l-18 56q-29 103 -111 103z" />
    <glyph glyph-name="edotaccent" unicode="&#x117;" horiz-adv-x="469" 
d="M298 567q0 -26 -18 -44t-44.5 -18t-44.5 18t-18 44t18 44.5t44 18.5t44.5 -18.5t18.5 -44.5zM253 -10q-92 0 -154.5 58t-62.5 161t58 166.5t156 63.5q80 0 134 -39t54 -101q0 -49 -44.5 -66t-142.5 -15l-109 2q4 -202 130 -202q44 0 79.5 24.5t54.5 64.5l24 -8
q-21 -53 -67.5 -81t-109.5 -28zM315 384.5q-22 29.5 -66 29.5t-74 -42t-33 -124l89 -2q59 -2 82.5 11t23.5 55.5t-22 72z" />
    <glyph glyph-name="Eogonek" unicode="&#x118;" horiz-adv-x="561" 
d="M361 574h-142v-250h201v-29h-201v-269h142q47 0 72 28.5t39 74.5l18 56h23l-4 -185h-10q-45 -18 -70 -50t-25 -62q0 -50 39 -50q27 0 54 23l12 -16q-35 -36 -86 -36t-79.5 20.5t-28.5 55.5t35 66.5t103 48.5h-421v26h80v548h-80v26h477l4 -185h-23l-18 56
q-29 103 -111 103z" />
    <glyph glyph-name="eogonek" unicode="&#x119;" horiz-adv-x="469" 
d="M325 -162q27 0 54 23l12 -16q-35 -36 -86 -36t-79.5 20.5t-28.5 58.5t46.5 72.5t136.5 48.5l1 -9q-45 -18 -70 -50t-25 -62q0 -50 39 -50zM253 -10q-92 0 -154.5 58t-62.5 161t58 166.5t156 63.5q80 0 134 -39t54 -101q0 -49 -44.5 -66t-142.5 -15l-109 2
q4 -202 130 -202q44 0 79.5 24.5t54.5 64.5l24 -8q-21 -53 -67.5 -81t-109.5 -28zM315 384.5q-22 29.5 -66 29.5t-74 -42t-33 -124l89 -2q59 -2 82.5 11t23.5 55.5t-22 72z" />
    <glyph glyph-name="Ecaron" unicode="&#x11a;" horiz-adv-x="561" 
d="M295 631q-16 0 -31 10t-27 24t-38 45t-51 57l14 18q61 -37 132 -70q88 43 132 70l14 -17q-24 -26 -49.5 -57.5t-37.5 -45.5t-27 -24t-31 -10zM361 574h-142v-250h201v-29h-201v-269h142q47 0 72 28.5t39 74.5l18 56h23l-4 -185h-477v26h80v548h-80v26h477l4 -185h-23
l-18 56q-29 103 -111 103z" />
    <glyph glyph-name="ecaron" unicode="&#x11b;" horiz-adv-x="469" 
d="M237 501q-16 0 -31 10t-27 24t-38 45t-51 57l14 18q61 -37 132 -70q88 43 132 70l14 -17q-24 -26 -49.5 -57.5t-37.5 -45.5t-27 -24t-31 -10zM253 -10q-92 0 -154.5 58t-62.5 161t58 166.5t156 63.5q80 0 134 -39t54 -101q0 -49 -44.5 -66t-142.5 -15l-109 2
q4 -202 130 -202q44 0 79.5 24.5t54.5 64.5l24 -8q-21 -53 -67.5 -81t-109.5 -28zM315 384.5q-22 29.5 -66 29.5t-74 -42t-33 -124l89 -2q59 -2 82.5 11t23.5 55.5t-22 72z" />
    <glyph glyph-name="Gbreve" unicode="&#x11e;" horiz-adv-x="694" 
d="M247 770q12 -61 105 -61t105 61h21q0 -57 -30 -95t-94.5 -38t-95.5 38.5t-31 94.5h20zM404 272h265v-26h-71v-246l-100 27q-64 -37 -148 -37q-116 0 -206 76q-44 37 -70.5 98.5t-26.5 137t26 135.5t69 97q88 76 207 76q73 0 138 -30l90 18l5 -201h-28q-25 98 -68.5 141
t-125.5 43q-191 0 -191 -280t189 -280q80 0 133 53v172h-87v26z" />
    <glyph glyph-name="gbreve" unicode="&#x11f;" horiz-adv-x="491" 
d="M140 640q12 -61 105 -61t105 61h21q0 -57 -30 -95t-94.5 -38t-95.5 38.5t-31 94.5h20zM133 -143.5q36 -22.5 106.5 -22.5t121 20t50.5 54q0 26 -19.5 36t-63.5 10l-174 2q-20 0 -37 6q-20 -25 -20 -54t36 -51.5zM236 439q60 0 106 -26q11 37 36.5 58t54.5 21t44 -15.5
t15 -32.5q0 -37 -33 -37q-12 0 -26 13.5t-28 13.5q-29 0 -42 -35q57 -44 57 -118t-53.5 -121.5t-133.5 -47.5h-3l-93 1q-21 0 -31.5 -9t-10.5 -22q0 -33 41 -35l192 -4q65 -1 98 -29.5t33 -80t-55.5 -88.5t-152.5 -37t-142.5 29t-45.5 67t30 70q-40 28 -40 79
q0 35 21.5 60.5t62.5 25.5q-40 23 -65 59.5t-25 78.5q0 72 54 117t135 45zM165 379.5q-19 -34.5 -19 -103t18.5 -103.5t68.5 -35t69 35.5t19 104t-18.5 102.5t-68.5 34t-69 -34.5z" />
    <glyph glyph-name="uni0122" unicode="&#x122;" horiz-adv-x="694" 
d="M413 -113q0 -81 -73 -157l-22 16q45 49 45 77q0 16 -23 20.5t-38 20t-15 40t17.5 42.5t45.5 18t45.5 -21.5t17.5 -55.5zM404 272h265v-26h-71v-246l-100 27q-64 -37 -148 -37q-116 0 -206 76q-44 37 -70.5 98.5t-26.5 137t26 135.5t69 97q88 76 207 76q73 0 138 -30
l90 18l5 -201h-28q-25 98 -68.5 141t-125.5 43q-191 0 -191 -280t189 -280q80 0 133 53v172h-87v26z" />
    <glyph glyph-name="uni0123" unicode="&#x123;" horiz-adv-x="491" 
d="M183 613q0 81 73 157l22 -16q-45 -49 -45 -77q0 -16 23 -20.5t38 -20t15 -40t-17.5 -42.5t-45.5 -18t-45.5 21.5t-17.5 55.5zM133 -143.5q36 -22.5 106.5 -22.5t121 20t50.5 54q0 26 -19.5 36t-63.5 10l-174 2q-20 0 -37 6q-20 -25 -20 -54t36 -51.5zM236 439
q60 0 106 -26q11 37 36.5 58t54.5 21t44 -15.5t15 -32.5q0 -37 -33 -37q-12 0 -26 13.5t-28 13.5q-29 0 -42 -35q57 -44 57 -118t-53.5 -121.5t-133.5 -47.5h-3l-93 1q-21 0 -31.5 -9t-10.5 -22q0 -33 41 -35l192 -4q65 -1 98 -29.5t33 -80t-55.5 -88.5t-152.5 -37
t-142.5 29t-45.5 67t30 70q-40 28 -40 79q0 35 21.5 60.5t62.5 25.5q-40 23 -65 59.5t-25 78.5q0 72 54 117t135 45zM165 379.5q-19 -34.5 -19 -103t18.5 -103.5t68.5 -35t69 35.5t19 104t-18.5 102.5t-68.5 34t-69 -34.5z" />
    <glyph glyph-name="Imacron" unicode="&#x12a;" horiz-adv-x="331" 
d="M13 670v52h308v-52h-308zM299 0h-267v26h80v548h-80v26h267v-26h-80v-548h54q15 0 20.5 -5.5t5.5 -20.5z" />
    <glyph glyph-name="imacron" unicode="&#x12b;" horiz-adv-x="285" 
d="M240 26q15 0 19.5 -5t4.5 -21h-238v26q69 0 69 52v323h-69v26h170v-401h44zM21 540v52h248v-52h-248z" />
    <glyph glyph-name="Iogonek" unicode="&#x12e;" horiz-adv-x="331" 
d="M299 574h-80v-548h54q15 0 20.5 -5.5t5.5 -20.5h-8q-45 -18 -70 -50t-25 -62q0 -50 39 -50q27 0 54 23l12 -16q-35 -36 -86 -36t-79.5 20.5t-28.5 55.5t35 66.5t103 48.5h-213v26h80v548h-80v26h267v-26z" />
    <glyph glyph-name="iogonek" unicode="&#x12f;" horiz-adv-x="285" 
d="M205 567q0 -26 -18 -44t-44.5 -18t-44.5 18t-18 44t18 44.5t44 18.5t44.5 -18.5t18.5 -44.5zM240 26q15 0 19.5 -5t4.5 -21q-45 -18 -70 -50t-25 -62q0 -50 39 -50q27 0 54 23l12 -16q-35 -36 -86 -36t-79.5 20.5t-28.5 55.5t35 66.5t103 48.5h-192v26q69 0 69 52v323
h-69v26h170v-401h44z" />
    <glyph glyph-name="Idotaccent" unicode="&#x130;" horiz-adv-x="331" 
d="M227 697q0 -26 -18 -44t-44.5 -18t-44.5 18t-18 44t18 44.5t44 18.5t44.5 -18.5t18.5 -44.5zM299 0h-267v26h80v548h-80v26h267v-26h-80v-548h54q15 0 20.5 -5.5t5.5 -20.5z" />
    <glyph glyph-name="dotlessi" unicode="&#x131;" horiz-adv-x="285" 
d="M240 26q15 0 19.5 -5t4.5 -21h-238v26q69 0 69 52v323h-69v26h170v-401h44z" />
    <glyph glyph-name="uni0136" unicode="&#x136;" horiz-adv-x="643" 
d="M299 0h-267v26h80v548h-80v26h267v-26h-80v-266l291 266h-80v26h182q0 -16 -5.5 -21t-19.5 -5t-27 -6q-17 -7 -51 -38l-167 -155l254 -349h20q15 0 20.5 -5.5t5.5 -20.5h-160l-218 303l-45 -41v-236h54q15 0 20.5 -5.5t5.5 -20.5zM419 -113q0 -81 -73 -157l-22 16
q45 49 45 77q0 16 -23 20.5t-38 20t-15 40t17.5 42.5t45.5 18t45.5 -21.5t17.5 -55.5z" />
    <glyph glyph-name="uni0137" unicode="&#x137;" horiz-adv-x="511" 
d="M352 -113q0 -81 -73 -157l-22 16q45 49 45 77q0 16 -23 20.5t-38 20t-15 40t17.5 42.5t45.5 18t45.5 -21.5t17.5 -55.5zM244 25q15 0 20 -4.5t5 -20.5h-245v25q41 0 58.5 11t17.5 46v543h-76v25h172v-434l198 186h-74v25h170q0 -15 -5.5 -20t-23 -5t-29.5 -7.5t-38 -31.5
l-86 -81l161 -257h27q15 0 20 -4.5t5 -20.5h-146l-133 219l-46 -43v-151h48z" />
    <glyph glyph-name="Lacute" unicode="&#x139;" horiz-adv-x="502" 
d="M233.5 713.5q35.5 49.5 47.5 60.5t30 11t33.5 -15.5t15.5 -35t-15.5 -33t-73.5 -41t-91 -48.5l-16 19q34 33 69.5 82.5zM32 0v26h80v548h-80v26h272v-26h-85v-548h124q48 0 71 28t36 75l22 78h24l-5 -207h-459z" />
    <glyph glyph-name="lacute" unicode="&#x13a;" horiz-adv-x="300" 
d="M251 25q15 0 19.5 -4.5t4.5 -20.5h-249v25q44 0 60 11t16 47v542h-76v25h172v-625h53zM226 735q-16 -10 -78.5 -26t-98.5 -30l-13 21q40 26 83.5 68t57.5 50.5t32 5.5t30.5 -21t9 -38t-22.5 -30z" />
    <glyph glyph-name="uni013B" unicode="&#x13b;" horiz-adv-x="502" 
d="M318 -113q0 -81 -73 -157l-22 16q45 49 45 77q0 16 -23 20.5t-38 20t-15 40t17.5 42.5t45.5 18t45.5 -21.5t17.5 -55.5zM32 0v26h80v548h-80v26h272v-26h-85v-548h124q48 0 71 28t36 75l22 78h24l-5 -207h-459z" />
    <glyph glyph-name="uni013C" unicode="&#x13c;" horiz-adv-x="298" 
d="M210 -113q0 -81 -73 -157l-22 16q45 49 45 77q0 16 -23 20.5t-38 20t-15 40t17.5 42.5t45.5 18t45.5 -21.5t17.5 -55.5zM251 25q15 0 19.5 -4.5t4.5 -20.5h-249v25q44 0 60 11t16 47v542h-76v25h172v-625h53z" />
    <glyph glyph-name="Lcaron" unicode="&#x13d;" horiz-adv-x="502" 
d="M250 631q-16 0 -31 10t-27 24t-38 45t-51 57l14 18q61 -37 132 -70q88 43 132 70l14 -17q-24 -26 -49.5 -57.5t-37.5 -45.5t-27 -24t-31 -10zM32 0v26h80v548h-80v26h272v-26h-85v-548h124q48 0 71 28t36 75l22 78h24l-5 -207h-459z" />
    <glyph glyph-name="lcaron" unicode="&#x13e;" horiz-adv-x="298" 
d="M356 584q0 -81 -73 -157l-22 16q45 49 45 77q0 15 -23 20t-38 20.5t-15 39.5t17.5 42.5t45.5 18.5t45.5 -21.5t17.5 -55.5zM251 25q15 0 19.5 -4.5t4.5 -20.5h-249v25q44 0 60 11t16 47v542h-76v25h172v-625h53z" />
    <glyph glyph-name="Lslash" unicode="&#x141;" horiz-adv-x="506" 
d="M112 574h-80v26h272v-26h-85v-276l184 103l16 -28l-200 -112v-235h124q48 0 71 28t36 75l22 78h24l-5 -207h-459v26h80v175l-86 -48l-16 28l102 57v336z" />
    <glyph glyph-name="lslash" unicode="&#x142;" horiz-adv-x="300" 
d="M102 625h-76v25h172v-281l97 54l16 -27l-113 -64v-307h53q15 0 19.5 -4.5t4.5 -20.5h-249v25q44 0 60 11t16 47v195l-89 -50l-16 29l105 58v310z" />
    <glyph glyph-name="Nacute" unicode="&#x143;" horiz-adv-x="667" 
d="M320.5 713.5q35.5 49.5 47.5 60.5t30 11t33.5 -15.5t15.5 -35t-15.5 -33t-73.5 -41t-91 -48.5l-16 19q34 33 69.5 82.5zM455 574v26h204v-26h-80v-569l-51 -10l-389 475v-444h58q15 0 21 -5.5t6 -20.5h-206v26h80v548h-80v26h151l369 -450v424h-83z" />
    <glyph glyph-name="nacute" unicode="&#x144;" horiz-adv-x="566" 
d="M266.5 583.5q35.5 49.5 47.5 60.5t30 11t33.5 -15.5t15.5 -35t-15.5 -33t-73.5 -41t-91 -48.5l-16 19q34 33 69.5 82.5zM227 25q15 0 20 -4.5t5 -20.5h-226v25q38 0 53 11t15 46v320h-68v25h158l5 -90q20 48 61.5 75t94 27t92.5 -42t40 -120v-252h43q15 0 20 -4.5
t5 -20.5h-228v25q37 0 50 11t13 46v208q0 50 -23 76t-60 26t-69 -34t-37 -92l-1 -241h37z" />
    <glyph glyph-name="uni0145" unicode="&#x145;" horiz-adv-x="667" 
d="M398 -113q0 -81 -73 -157l-22 16q45 49 45 77q0 16 -23 20.5t-38 20t-15 40t17.5 42.5t45.5 18t45.5 -21.5t17.5 -55.5zM455 574v26h204v-26h-80v-569l-51 -10l-389 475v-444h58q15 0 21 -5.5t6 -20.5h-206v26h80v548h-80v26h151l369 -450v424h-83z" />
    <glyph glyph-name="uni0146" unicode="&#x146;" horiz-adv-x="566" 
d="M346 -113q0 -81 -73 -157l-22 16q45 49 45 77q0 16 -23 20.5t-38 20t-15 40t17.5 42.5t45.5 18t45.5 -21.5t17.5 -55.5zM227 25q15 0 20 -4.5t5 -20.5h-226v25q38 0 53 11t15 46v320h-68v25h158l5 -90q20 48 61.5 75t94 27t92.5 -42t40 -120v-252h43q15 0 20 -4.5
t5 -20.5h-228v25q37 0 50 11t13 46v208q0 50 -23 76t-60 26t-69 -34t-37 -92l-1 -241h37z" />
    <glyph glyph-name="Ncaron" unicode="&#x147;" horiz-adv-x="667" 
d="M337 631q-16 0 -31 10t-27 24t-38 45t-51 57l14 18q61 -37 132 -70q88 43 132 70l14 -17q-24 -26 -49.5 -57.5t-37.5 -45.5t-27 -24t-31 -10zM455 574v26h204v-26h-80v-569l-51 -10l-389 475v-444h58q15 0 21 -5.5t6 -20.5h-206v26h80v548h-80v26h151l369 -450v424h-83z
" />
    <glyph glyph-name="ncaron" unicode="&#x148;" horiz-adv-x="566" 
d="M284 501q-16 0 -31 10t-27 24t-38 45t-51 57l14 18q61 -37 132 -70q88 43 132 70l14 -17q-24 -26 -49.5 -57.5t-37.5 -45.5t-27 -24t-31 -10zM227 25q15 0 20 -4.5t5 -20.5h-226v25q38 0 53 11t15 46v320h-68v25h158l5 -90q20 48 61.5 75t94 27t92.5 -42t40 -120v-252h43
q15 0 20 -4.5t5 -20.5h-228v25q37 0 50 11t13 46v208q0 50 -23 76t-60 26t-69 -34t-37 -92l-1 -241h37z" />
    <glyph glyph-name="Omacron" unicode="&#x14c;" horiz-adv-x="705" 
d="M203 670v52h308v-52h-308zM355 18q179 0 179 282t-182 282t-182 -282t185 -282zM355 610q124 0 213.5 -82.5t89.5 -226t-91 -227.5t-215.5 -84t-214.5 84t-90 229q0 94 45 166t114.5 106.5t148.5 34.5z" />
    <glyph glyph-name="omacron" unicode="&#x14d;" horiz-adv-x="516" 
d="M114 540v52h308v-52h-308zM261 439q94 0 156.5 -60.5t62.5 -161.5t-65.5 -164t-158 -63t-156.5 63t-64 164.5t65.5 161.5t159.5 60zM142 215q0 -98 27 -149t90 -51q115 0 115 204q0 96 -26.5 145.5t-89.5 49.5q-116 0 -116 -199z" />
    <glyph glyph-name="Ohungarumlaut" unicode="&#x150;" horiz-adv-x="705" 
d="M567 757q12 -17 9 -36.5t-19.5 -29t-77 -27t-95.5 -32.5l-12 21q37 26 78.5 67.5t55 50.5t31.5 6t30 -20zM385 787q15 -15 15.5 -35.5t-14 -32t-70.5 -40t-87 -49.5l-15 18q32 33 64.5 82t45.5 60t29.5 11.5t31.5 -14.5zM355 18q179 0 179 282t-182 282t-182 -282
t185 -282zM355 610q124 0 213.5 -82.5t89.5 -226t-91 -227.5t-215.5 -84t-214.5 84t-90 229q0 94 45 166t114.5 106.5t148.5 34.5z" />
    <glyph glyph-name="ohungarumlaut" unicode="&#x151;" horiz-adv-x="516" 
d="M478 627q12 -17 9 -36.5t-19.5 -29t-77 -27t-95.5 -32.5l-12 21q37 26 78.5 67.5t55 50.5t31.5 6t30 -20zM297 590q-13 -12 -69.5 -40.5t-87.5 -49.5l-15 18q32 33 64.5 82t45.5 60t29.5 11.5t31.5 -14.5t15.5 -35.5t-14.5 -31.5zM261 439q94 0 156.5 -60.5t62.5 -161.5
t-65.5 -164t-158 -63t-156.5 63t-64 164.5t65.5 161.5t159.5 60zM142 215q0 -98 27 -149t90 -51q115 0 115 204q0 96 -26.5 145.5t-89.5 49.5q-116 0 -116 -199z" />
    <glyph glyph-name="OE" unicode="&#x152;" horiz-adv-x="909" 
d="M358 605l140 -5h359l4 -187h-23l-20 58q-32 103 -119 103h-131v-250h200v-29h-200v-269h131q86 0 120 103l19 58h23l-4 -187h-363l-136 -5q-130 0 -220.5 81.5t-90.5 224t92 223.5t219 81zM365 22q53 0 96 16v524q-44 16 -94 16q-107 0 -152 -72t-45 -206.5t45 -206
t150 -71.5z" />
    <glyph glyph-name="oe" unicode="&#x153;" horiz-adv-x="802" 
d="M101.5 379q65.5 60 165.5 60t157 -79q53 79 159 79q80 0 134 -39t54 -101q0 -49 -44.5 -65.5t-143.5 -14.5l-108 2q4 -203 129 -203q44 0 80 24.5t55 64.5l25 -5q-20 -55 -66.5 -83.5t-111.5 -28.5q-109 0 -165 83q-60 -83 -158.5 -83t-162.5 63t-64 164.5t65.5 161.5z
M142 215q0 -98 27 -149t90 -51q115 0 115 204q0 96 -26.5 145.5t-89.5 49.5q-116 0 -116 -199zM648 385q-22 29 -68 29t-74.5 -41t-30.5 -125l89 -2q59 -2 82.5 11t23.5 56t-22 72z" />
    <glyph glyph-name="Racute" unicode="&#x154;" horiz-adv-x="613" 
d="M288.5 713.5q35.5 49.5 47.5 60.5t30 11t33.5 -15.5t15.5 -35t-15.5 -33t-73.5 -41t-91 -48.5l-16 19q34 33 69.5 82.5zM301 574h-82v-270h87q57 0 88 40.5t31 96t-31.5 94.5t-92.5 39zM299 0h-267v26h80v548h-80v26h311q93 0 146 -46t53 -105.5t-36 -103t-105 -60.5
l159 -259h28q15 0 20 -5t5 -21h-161l-156 275h-77v-249h80v-26z" />
    <glyph glyph-name="racute" unicode="&#x155;" horiz-adv-x="405" 
d="M183.5 583.5q35.5 49.5 47.5 60.5t30 11t33.5 -15.5t15.5 -35t-15.5 -33t-73.5 -41t-91 -48.5l-16 19q34 33 69.5 82.5zM264 25q15 0 20 -4.5t5 -20.5h-262v25q39 0 53.5 10.5t14.5 46.5v320h-68v25h157l5 -97q19 49 60 76.5t76.5 27.5t55 -16t19.5 -41t-14 -40
t-35.5 -15t-34 15.5t-21.5 31t-22.5 15.5t-31 -15.5t-34 -56t-16.5 -94.5v-193h73z" />
    <glyph glyph-name="uni0156" unicode="&#x156;" horiz-adv-x="613" 
d="M390 -113q0 -81 -73 -157l-22 16q45 49 45 77q0 16 -23 20.5t-38 20t-15 40t17.5 42.5t45.5 18t45.5 -21.5t17.5 -55.5zM301 574h-82v-270h87q57 0 88 40.5t31 96t-31.5 94.5t-92.5 39zM299 0h-267v26h80v548h-80v26h311q93 0 146 -46t53 -105.5t-36 -103t-105 -60.5
l159 -259h28q15 0 20 -5t5 -21h-161l-156 275h-77v-249h80v-26z" />
    <glyph glyph-name="uni0157" unicode="&#x157;" horiz-adv-x="405" 
d="M208 -113q0 -81 -73 -157l-22 16q45 49 45 77q0 16 -23 20.5t-38 20t-15 40t17.5 42.5t45.5 18t45.5 -21.5t17.5 -55.5zM264 25q15 0 20 -4.5t5 -20.5h-262v25q39 0 53.5 10.5t14.5 46.5v320h-68v25h157l5 -97q19 49 60 76.5t76.5 27.5t55 -16t19.5 -41t-14 -40
t-35.5 -15t-34 15.5t-21.5 31t-22.5 15.5t-31 -15.5t-34 -56t-16.5 -94.5v-193h73z" />
    <glyph glyph-name="Rcaron" unicode="&#x158;" horiz-adv-x="613" 
d="M306 631q-16 0 -31 10t-27 24t-38 45t-51 57l14 18q61 -37 132 -70q88 43 132 70l14 -17q-24 -26 -49.5 -57.5t-37.5 -45.5t-27 -24t-31 -10zM301 574h-82v-270h87q57 0 88 40.5t31 96t-31.5 94.5t-92.5 39zM299 0h-267v26h80v548h-80v26h311q93 0 146 -46t53 -105.5
t-36 -103t-105 -60.5l159 -259h28q15 0 20 -5t5 -21h-161l-156 275h-77v-249h80v-26z" />
    <glyph glyph-name="rcaron" unicode="&#x159;" horiz-adv-x="405" 
d="M200 501q-16 0 -31 10t-27 24t-38 45t-51 57l14 18q61 -37 132 -70q88 43 132 70l14 -17q-24 -26 -49.5 -57.5t-37.5 -45.5t-27 -24t-31 -10zM264 25q15 0 20 -4.5t5 -20.5h-262v25q39 0 53.5 10.5t14.5 46.5v320h-68v25h157l5 -97q19 49 60 76.5t76.5 27.5t55 -16
t19.5 -41t-14 -40t-35.5 -15t-34 15.5t-21.5 31t-22.5 15.5t-31 -15.5t-34 -56t-16.5 -94.5v-193h73z" />
    <glyph glyph-name="Sacute" unicode="&#x15a;" horiz-adv-x="545" 
d="M276.5 713.5q35.5 49.5 47.5 60.5t30 11t33.5 -15.5t15.5 -35t-15.5 -33t-73.5 -41t-91 -48.5l-16 19q34 33 69.5 82.5zM499 161q0 -81 -67 -126t-166.5 -45t-175.5 51q0 -27 -5.5 -35t-26.5 -8v209h34q7 -91 50 -140t120 -49q56 0 92.5 30t36.5 77t-34 78.5t-82 52.5
t-96 43.5t-82 61t-34 90.5q0 74 62 116.5t152 42.5t165 -39q0 20 6.5 27t25.5 7v-177h-34q1 74 -44 113.5t-102 39.5t-89.5 -25.5t-32.5 -69.5t33.5 -75t82 -52t96.5 -43.5t81.5 -61.5t33.5 -93z" />
    <glyph glyph-name="sacute" unicode="&#x15b;" horiz-adv-x="408" 
d="M188.5 583.5q35.5 49.5 47.5 60.5t30 11t33.5 -15.5t15.5 -35t-15.5 -33t-73.5 -41t-91 -48.5l-16 19q34 33 69.5 82.5zM192 17q42 0 67.5 19t25.5 50t-24.5 53t-59.5 36.5t-70.5 30.5t-60 45.5t-24.5 70.5q0 56 47 86.5t117.5 30.5t116.5 -28q0 20 5 27t21 7v-125h-28
q-2 93 -101 93q-40 0 -65.5 -17t-25.5 -47.5t24.5 -51.5t59.5 -35t70.5 -30.5t60 -46t24.5 -72.5q0 -60 -46 -91.5t-121.5 -31.5t-131.5 34q0 -19 -5 -25t-22 -6v152h31q0 -128 115 -128z" />
    <glyph glyph-name="Scedilla" unicode="&#x15e;" horiz-adv-x="545" 
d="M499 161q0 -81 -67 -126t-163 -45h-1l-22 -51q23 10 62 10t69.5 -23.5t30.5 -62t-34.5 -64.5t-86.5 -26q-72 0 -107 53l16 12q30 -39 68 -39q23 0 38.5 17.5t15.5 48t-13.5 44.5t-37 14t-48.5 -17l-14 9l38 76q-88 6 -153 50q0 -27 -5.5 -35t-26.5 -8v209h34
q7 -91 50 -140t120 -49q56 0 92.5 30t36.5 77t-34 78.5t-82 52.5t-96 43.5t-82 61t-34 90.5q0 74 62 116.5t152 42.5t165 -39q0 20 6.5 27t25.5 7v-177h-34q1 74 -44 113.5t-102 39.5t-89.5 -25.5t-32.5 -69.5t33.5 -75t82 -52t96.5 -43.5t81.5 -61.5t33.5 -93z" />
    <glyph glyph-name="scedilla" unicode="&#x15f;" horiz-adv-x="408" 
d="M192 17q42 0 67.5 19t25.5 50t-24.5 53t-59.5 36.5t-70.5 30.5t-60 45.5t-24.5 70.5q0 56 47 86.5t117.5 30.5t116.5 -28q0 20 5 27t21 7v-125h-28q-2 93 -101 93q-40 0 -65.5 -17t-25.5 -47.5t24.5 -51.5t59.5 -35t70.5 -30.5t60 -46t24.5 -72.5q0 -60 -46 -91.5
t-118 -31.5h-13l6 15h-25l-6 -13q8 -2 25 -2l-23 -51q23 10 62 10t69.5 -23.5t30.5 -62t-34.5 -64.5t-86.5 -26q-72 0 -107 53l16 12q30 -39 68 -39q23 0 38.5 17.5t15.5 48t-13.5 44.5t-37 14t-48.5 -17l-14 9l39 77q-57 8 -97 32q0 -19 -5 -25t-22 -6v152h31
q0 -128 115 -128z" />
    <glyph glyph-name="Scaron" unicode="&#x160;" horiz-adv-x="545" 
d="M294 631q-16 0 -31 10t-27 24t-38 45t-51 57l14 18q61 -37 132 -70q88 43 132 70l14 -17q-24 -26 -49.5 -57.5t-37.5 -45.5t-27 -24t-31 -10zM499 161q0 -81 -67 -126t-166.5 -45t-175.5 51q0 -27 -5.5 -35t-26.5 -8v209h34q7 -91 50 -140t120 -49q56 0 92.5 30t36.5 77
t-34 78.5t-82 52.5t-96 43.5t-82 61t-34 90.5q0 74 62 116.5t152 42.5t165 -39q0 20 6.5 27t25.5 7v-177h-34q1 74 -44 113.5t-102 39.5t-89.5 -25.5t-32.5 -69.5t33.5 -75t82 -52t96.5 -43.5t81.5 -61.5t33.5 -93z" />
    <glyph glyph-name="scaron" unicode="&#x161;" horiz-adv-x="408" 
d="M205 501q-16 0 -31 10t-27 24t-38 45t-51 57l14 18q61 -37 132 -70q88 43 132 70l14 -17q-24 -26 -49.5 -57.5t-37.5 -45.5t-27 -24t-31 -10zM192 17q42 0 67.5 19t25.5 50t-24.5 53t-59.5 36.5t-70.5 30.5t-60 45.5t-24.5 70.5q0 56 47 86.5t117.5 30.5t116.5 -28
q0 20 5 27t21 7v-125h-28q-2 93 -101 93q-40 0 -65.5 -17t-25.5 -47.5t24.5 -51.5t59.5 -35t70.5 -30.5t60 -46t24.5 -72.5q0 -60 -46 -91.5t-121.5 -31.5t-131.5 34q0 -19 -5 -25t-22 -6v152h31q0 -128 115 -128z" />
    <glyph glyph-name="uni0162" unicode="&#x162;" horiz-adv-x="575" 
d="M133 0v26h95v548h-39q-82 0 -111 -102l-22 -76h-29l4 204h504l5 -204h-29l-22 76q-29 102 -112 102h-42v-548h69q15 0 21 -5.5t6 -20.5h-151l-27 -61q23 10 62 10t69.5 -23.5t30.5 -62t-34.5 -64.5t-86.5 -26q-72 0 -107 53l16 12q30 -39 68 -39q23 0 38.5 17.5t15.5 48
t-13.5 44.5t-37 14t-48.5 -17l-14 9l43 85h-122z" />
    <glyph glyph-name="uni0163" unicode="&#x163;" horiz-adv-x="340" 
d="M18 400v25h70v95l96 21v-116h145v-25h-145v-304q0 -77 51.5 -77t72.5 90l27 -5q-12 -62 -42 -88.5t-79 -26.5q-17 0 -35 3l-23 -53q23 10 62 10t69.5 -23.5t30.5 -62t-34.5 -64.5t-86.5 -26q-72 0 -107 53l16 12q30 -39 68 -39q23 0 38.5 17.5t15.5 48t-13.5 44.5t-37 14
t-48.5 -17l-14 9l42 84q-69 28 -69 132v269h-70z" />
    <glyph glyph-name="Tcaron" unicode="&#x164;" horiz-adv-x="567" 
d="M284 631q-16 0 -31 10t-27 24t-38 45t-51 57l14 18q61 -37 132 -70q88 43 132 70l14 -17q-24 -26 -49.5 -57.5t-37.5 -45.5t-27 -24t-31 -10zM431 0h-298v26h95v548h-39q-82 0 -111 -102l-22 -76h-29l4 204h504l5 -204h-29l-22 76q-29 102 -112 102h-42v-548h69
q15 0 21 -5.5t6 -20.5z" />
    <glyph glyph-name="tcaron" unicode="&#x165;" horiz-adv-x="340" 
d="M338 601q0 -81 -73 -157l-22 16q45 49 45 77q0 15 -23 20t-38 20.5t-15 39.5t17.5 42.5t45.5 18.5t45.5 -21.5t17.5 -55.5zM18 400v25h70v95l96 21v-116h145v-25h-145v-304q0 -77 51.5 -77t72.5 90l27 -5q-12 -62 -42 -88.5t-81.5 -26.5t-87.5 32t-36 110v269h-70z" />
    <glyph glyph-name="Umacron" unicode="&#x16a;" horiz-adv-x="638" 
d="M190 670v52h308v-52h-308zM10 574v26h267v-26h-79v-344q0 -111 37.5 -161t116.5 -50q165 0 165 209v346h-80v26h196v-26h-80v-340q0 -125 -53.5 -184.5t-168.5 -59.5q-241 0 -241 233v351h-80z" />
    <glyph glyph-name="umacron" unicode="&#x16b;" horiz-adv-x="565" 
d="M132 540v52h308v-52h-308zM516 25q15 0 20 -4.5t5 -20.5h-156l-7 94q-20 -49 -60 -76.5t-88 -27.5q-143 0 -143 168v244h-69v25h165v-285q0 -54 23.5 -79.5t63 -25.5t72 36t34.5 98v231h-68v25h165v-402h43z" />
    <glyph glyph-name="Uring" unicode="&#x16e;" horiz-adv-x="638" 
d="M259 771.5q30 25.5 82 25.5t80 -25.5t28 -65.5t-30 -67t-81.5 -27t-80 26.5t-28.5 67t30 66zM293 704q0 -69 46 -69q24 0 35 21t11 50q0 67 -46 67t-46 -69zM10 574v26h267v-26h-79v-344q0 -111 37.5 -161t116.5 -50q165 0 165 209v346h-80v26h196v-26h-80v-340
q0 -125 -53.5 -184.5t-168.5 -59.5q-241 0 -241 233v351h-80z" />
    <glyph glyph-name="uring" unicode="&#x16f;" horiz-adv-x="565" 
d="M202 641.5q30 25.5 82 25.5t80 -25.5t28 -65.5t-30 -67t-81.5 -27t-80 26.5t-28.5 67t30 66zM236 574q0 -69 46 -69q24 0 35 21t11 50q0 67 -46 67t-46 -69zM516 25q15 0 20 -4.5t5 -20.5h-156l-7 94q-20 -49 -60 -76.5t-88 -27.5q-143 0 -143 168v244h-69v25h165v-285
q0 -54 23.5 -79.5t63 -25.5t72 36t34.5 98v231h-68v25h165v-402h43z" />
    <glyph glyph-name="Uhungarumlaut" unicode="&#x170;" horiz-adv-x="638" 
d="M554 757q12 -17 9 -36.5t-19.5 -29t-77 -27t-95.5 -32.5l-12 21q37 26 78.5 67.5t55 50.5t31.5 6t30 -20zM373 720q-13 -12 -70 -40.5t-87 -49.5l-15 18q32 33 64.5 82t45.5 60t29.5 11.5t31.5 -14.5t15.5 -35.5t-14.5 -31.5zM10 574v26h267v-26h-79v-344
q0 -111 37.5 -161t116.5 -50q165 0 165 209v346h-80v26h196v-26h-80v-340q0 -125 -53.5 -184.5t-168.5 -59.5q-241 0 -241 233v351h-80z" />
    <glyph glyph-name="uhungarumlaut" unicode="&#x171;" horiz-adv-x="565" 
d="M496 627q12 -17 9 -36.5t-19.5 -29t-77 -27t-95.5 -32.5l-12 21q37 26 78.5 67.5t55 50.5t31.5 6t30 -20zM315 590q-13 -12 -69.5 -40.5t-87.5 -49.5l-15 18q32 33 64.5 82t45.5 60t29.5 11.5t31.5 -14.5t15.5 -35.5t-14.5 -31.5zM516 25q15 0 20 -4.5t5 -20.5h-156
l-7 94q-20 -49 -60 -76.5t-88 -27.5q-143 0 -143 168v244h-69v25h165v-285q0 -54 23.5 -79.5t63 -25.5t72 36t34.5 98v231h-68v25h165v-402h43z" />
    <glyph glyph-name="Uogonek" unicode="&#x172;" horiz-adv-x="638" 
d="M411 -162q27 0 54 23l12 -16q-35 -36 -86 -36t-79.5 20.5t-28.5 58.5t46.5 72.5t136.5 48.5l1 -9q-45 -18 -70 -50t-25 -62q0 -50 39 -50zM10 574v26h267v-26h-79v-344q0 -111 37.5 -161t116.5 -50q165 0 165 209v346h-80v26h196v-26h-80v-340q0 -125 -53.5 -184.5
t-168.5 -59.5q-241 0 -241 233v351h-80z" />
    <glyph glyph-name="uogonek" unicode="&#x173;" horiz-adv-x="565" 
d="M516 25q15 0 20 -4.5t5 -20.5q-45 -18 -70 -50t-25 -62q0 -50 39 -50q27 0 54 23l12 -16q-35 -36 -86 -36t-79.5 20.5t-28.5 55.5t35 66.5t103 48.5h-110l-7 94q-20 -49 -60 -76.5t-88 -27.5q-143 0 -143 168v244h-69v25h165v-285q0 -54 23.5 -79.5t63 -25.5t72 36
t34.5 98v231h-68v25h165v-402h43z" />
    <glyph glyph-name="Ydieresis" unicode="&#x178;" horiz-adv-x="564" 
d="M452 699q0 -24 -17 -40t-41 -16t-40.5 16t-16.5 40t17 41t40.5 17t40.5 -17t17 -41zM267 699q0 -24 -16.5 -40t-40.5 -16t-40.5 16t-16.5 40t16.5 41t40.5 17t40.5 -17t16.5 -41zM423 0h-272v26h82v219l-185 329h-52v26h248v-26h-76l154 -286l145 286h-80v26h177
q0 -15 -5.5 -20.5t-20.5 -5.5q-38 0 -53 -28l-144 -292v-228h55q15 0 21 -5.5t6 -20.5z" />
    <glyph glyph-name="Zacute" unicode="&#x179;" horiz-adv-x="551" 
d="M287.5 713.5q35.5 49.5 47.5 60.5t30 11t33.5 -15.5t15.5 -35t-15.5 -33t-73.5 -41t-91 -48.5l-16 19q34 33 69.5 82.5zM23 0v21l379 553h-196q-51 0 -81 -65l-40 -90h-24l8 181h448v-21l-369 -553h227q77 0 98 85l24 96h26l-2 -207h-498z" />
    <glyph glyph-name="zacute" unicode="&#x17a;" horiz-adv-x="421" 
d="M194.5 583.5q35.5 49.5 47.5 60.5t30 11t33.5 -15.5t15.5 -35t-15.5 -33t-73.5 -41t-91 -48.5l-16 19q34 33 69.5 82.5zM285 26q58 0 74 68l16 65h19l-3 -159h-373v22l275 382h-144q-42 0 -64 -49l-29 -63h-19l9 138h347v-21l-265 -383h157z" />
    <glyph glyph-name="Zdotaccent" unicode="&#x17b;" horiz-adv-x="551" 
d="M365 697q0 -26 -18 -44t-44.5 -18t-44.5 18t-18 44t18 44.5t44 18.5t44.5 -18.5t18.5 -44.5zM23 0v21l379 553h-196q-51 0 -81 -65l-40 -90h-24l8 181h448v-21l-369 -553h227q77 0 98 85l24 96h26l-2 -207h-498z" />
    <glyph glyph-name="zdotaccent" unicode="&#x17c;" horiz-adv-x="421" 
d="M273 567q0 -26 -18 -44t-44.5 -18t-44.5 18t-18 44t18 44.5t44 18.5t44.5 -18.5t18.5 -44.5zM285 26q58 0 74 68l16 65h19l-3 -159h-373v22l275 382h-144q-42 0 -64 -49l-29 -63h-19l9 138h347v-21l-265 -383h157z" />
    <glyph glyph-name="Zcaron" unicode="&#x17d;" horiz-adv-x="551" 
d="M304 631q-16 0 -31 10t-27 24t-38 45t-51 57l14 18q61 -37 132 -70q88 43 132 70l14 -17q-24 -26 -49.5 -57.5t-37.5 -45.5t-27 -24t-31 -10zM23 0v21l379 553h-196q-51 0 -81 -65l-40 -90h-24l8 181h448v-21l-369 -553h227q77 0 98 85l24 96h26l-2 -207h-498z" />
    <glyph glyph-name="zcaron" unicode="&#x17e;" horiz-adv-x="421" 
d="M212 501q-16 0 -31 10t-27 24t-38 45t-51 57l14 18q61 -37 132 -70q88 43 132 70l14 -17q-24 -26 -49.5 -57.5t-37.5 -45.5t-27 -24t-31 -10zM285 26q58 0 74 68l16 65h19l-3 -159h-373v22l275 382h-144q-42 0 -64 -49l-29 -63h-19l9 138h347v-21l-265 -383h157z" />
    <glyph glyph-name="florin" unicode="&#x192;" horiz-adv-x="477" 
d="M273 313q-2 -10 -2 -32q-11 -244 -61.5 -360t-151.5 -116q-50 0 -81 26t-31 54.5t13.5 43t39 14.5t36 -18t9 -39t5 -39t24.5 -18t30 12t20 38t13.5 52.5t9.5 71.5t6 77t5 88q6 106 10 145h-99v26h102q20 146 69.5 208.5t130.5 62.5q52 0 82 -26t30 -54q0 -56 -50 -56
q-25 0 -36 17t-11.5 38t-9.5 38t-30 17q-38 0 -51.5 -57t-19.5 -188h123v-26h-124z" />
    <glyph glyph-name="uni0218" unicode="&#x218;" horiz-adv-x="545" 
d="M342 -113q0 -81 -73 -157l-22 16q45 49 45 77q0 16 -23 20.5t-38 20t-15 40t17.5 42.5t45.5 18t45.5 -21.5t17.5 -55.5zM499 161q0 -81 -67 -126t-166.5 -45t-175.5 51q0 -27 -5.5 -35t-26.5 -8v209h34q7 -91 50 -140t120 -49q56 0 92.5 30t36.5 77t-34 78.5t-82 52.5
t-96 43.5t-82 61t-34 90.5q0 74 62 116.5t152 42.5t165 -39q0 20 6.5 27t25.5 7v-177h-34q1 74 -44 113.5t-102 39.5t-89.5 -25.5t-32.5 -69.5t33.5 -75t82 -52t96.5 -43.5t81.5 -61.5t33.5 -93z" />
    <glyph glyph-name="uni0219" unicode="&#x219;" horiz-adv-x="408" 
d="M267 -113q0 -81 -73 -157l-22 16q45 49 45 77q0 16 -23 20.5t-38 20t-15 40t17.5 42.5t45.5 18t45.5 -21.5t17.5 -55.5zM192 17q42 0 67.5 19t25.5 50t-24.5 53t-59.5 36.5t-70.5 30.5t-60 45.5t-24.5 70.5q0 56 47 86.5t117.5 30.5t116.5 -28q0 20 5 27t21 7v-125h-28
q-2 93 -101 93q-40 0 -65.5 -17t-25.5 -47.5t24.5 -51.5t59.5 -35t70.5 -30.5t60 -46t24.5 -72.5q0 -60 -46 -91.5t-121.5 -31.5t-131.5 34q0 -19 -5 -25t-22 -6v152h31q0 -128 115 -128z" />
    <glyph glyph-name="uni021A" unicode="&#x21a;" horiz-adv-x="567" 
d="M343 -113q0 -81 -73 -157l-22 16q45 49 45 77q0 16 -23 20.5t-38 20t-15 40t17.5 42.5t45.5 18t45.5 -21.5t17.5 -55.5zM431 0h-298v26h95v548h-39q-82 0 -111 -102l-22 -76h-29l4 204h504l5 -204h-29l-22 76q-29 102 -112 102h-42v-548h69q15 0 21 -5.5t6 -20.5z" />
    <glyph glyph-name="uni021B" unicode="&#x21b;" horiz-adv-x="340" 
d="M251 -113q0 -81 -73 -157l-22 16q45 49 45 77q0 16 -23 20.5t-38 20t-15 40t17.5 42.5t45.5 18t45.5 -21.5t17.5 -55.5zM18 400v25h70v95l96 21v-116h145v-25h-145v-304q0 -77 51.5 -77t72.5 90l27 -5q-12 -62 -42 -88.5t-81.5 -26.5t-87.5 32t-36 110v269h-70z" />
    <glyph glyph-name="circumflex" unicode="&#x2c6;" horiz-adv-x="500" 
d="M249 646q15 0 29 -9.5t25 -22.5q53 -65 82 -97l-12 -18q-69 42 -122 66q-67 -30 -124 -65l-12 16q30 33 81 98q25 32 53 32z" />
    <glyph glyph-name="caron" unicode="&#x2c7;" horiz-adv-x="500" 
d="M251 501q-16 0 -31 10t-27 24t-38 45t-51 57l14 18q61 -37 132 -70q88 43 132 70l14 -17q-24 -26 -49.5 -57.5t-37.5 -45.5t-27 -24t-31 -10z" />
    <glyph glyph-name="uni02C9" unicode="&#x2c9;" horiz-adv-x="500" 
d="M96 540v52h308v-52h-308z" />
    <glyph glyph-name="breve" unicode="&#x2d8;" horiz-adv-x="500" 
d="M145 640q12 -61 105 -61t105 61h21q0 -57 -30 -95t-94.5 -38t-95.5 38.5t-31 94.5h20z" />
    <glyph glyph-name="dotaccent" unicode="&#x2d9;" horiz-adv-x="285" 
d="M204 567q0 -26 -18 -44t-44.5 -18t-44.5 18t-18 44t18 44.5t44 18.5t44.5 -18.5t18.5 -44.5z" />
    <glyph glyph-name="ring" unicode="&#x2da;" horiz-adv-x="500" 
d="M166 641.5q30 25.5 82 25.5t80 -25.5t28 -65.5t-30 -67t-81.5 -27t-80 26.5t-28.5 67t30 66zM200 574q0 -69 46 -69q24 0 35 21t11 50q0 67 -46 67t-46 -69z" />
    <glyph glyph-name="ogonek" unicode="&#x2db;" horiz-adv-x="500" 
d="M260 -162q27 0 54 23l12 -16q-35 -36 -86 -36t-79.5 20.5t-28.5 58.5t46.5 72.5t136.5 48.5l1 -9q-45 -18 -70 -50t-25 -62q0 -50 39 -50z" />
    <glyph glyph-name="tilde" unicode="&#x2dc;" horiz-adv-x="500" 
d="M199 641q30 0 72 -30t63 -30q39 0 54 56l21 -4q-9 -58 -33 -87.5t-56.5 -29.5t-74 30t-63 30t-34 -13.5t-20.5 -42.5l-20 4q18 117 91 117z" />
    <glyph glyph-name="hungarumlaut" unicode="&#x2dd;" horiz-adv-x="559" 
d="M504 627q12 -17 9 -36.5t-19.5 -29t-77 -27t-95.5 -32.5l-12 21q37 26 78.5 67.5t55 50.5t31.5 6t30 -20zM323 590q-13 -12 -70 -40.5t-87 -49.5l-15 18q32 33 64.5 82t45.5 60t29.5 11.5t31.5 -14.5t15.5 -35.5t-14.5 -31.5z" />
    <glyph glyph-name="pi" unicode="&#x3c0;" horiz-adv-x="574" 
d="M465 -10q-105 0 -105 146v265h-170v-375h46q15 0 19.5 -5t4.5 -21h-237v26q35 0 52.5 11t17.5 41v323h-70v26h514v-26h-81v-319q0 -65 29 -65q16 0 30 17t19 48l24 -6q-7 -42 -32 -64t-61 -22z" />
    <glyph glyph-name="uni0D82" unicode="&#xd82;" horiz-adv-x="364" 
d="M29 165q0 58 42.5 99.5t101.5 41.5t101.5 -41.5t42.5 -99.5t-42.5 -99.5t-101.5 -41.5t-101.5 41.5t-42.5 99.5zM102.5 250q-29.5 -28 -29.5 -67.5t29.5 -67.5t70.5 -28t70.5 28t29.5 67.5t-29.5 67.5t-70.5 28t-70.5 -28z" />
    <glyph glyph-name="uni0D83" unicode="&#xd83;" horiz-adv-x="248" 
d="M31 312q0 34 24.5 59t59.5 25t59.5 -25t24.5 -59t-24.5 -59t-59.5 -25t-59.5 25t-24.5 59zM61 313q0 -23 15.5 -38.5t38.5 -15.5t38.5 15.5t15.5 38.5t-15.5 38.5t-38.5 15.5t-38.5 -15.5t-15.5 -38.5zM31 110q0 34 24.5 59t59.5 25t59.5 -25t24.5 -59t-24.5 -59
t-59.5 -25t-59.5 25t-24.5 59zM61 111q0 -23 15.5 -38.5t38.5 -15.5t38.5 15.5t15.5 38.5t-15.5 38.5t-38.5 15.5t-38.5 -15.5t-15.5 -38.5z" />
    <glyph glyph-name="uni0D85" unicode="&#xd85;" horiz-adv-x="573" 
d="M358 -215v215q-32 -4 -76 -4q-120 0 -184.5 44.5t-64.5 115.5t44.5 112t124.5 41h112q-1 33 -20.5 57.5t-51.5 24.5q-16 0 -27 -5.5t-14.5 -11t-8.5 -16.5q-14 -28 -45 -28q-17 0 -29 11t-12 28q0 30 30 47t75 17q64 0 99.5 -37.5t35.5 -105.5v-4h-71q-41 0 -69.5 -13.5
t-40.5 -34.5q-22 -38 -22 -74q0 -61 42.5 -98.5t127.5 -37.5q17 0 45 2v283q0 57 25 85.5t56 36.5l24 -11q-2 -1 -5.5 -2.5t-8 -4.5t-4.5 -14t13 -23t28 -22.5t28 -31t13 -52.5t-28.5 -53.5t-69.5 -21.5q-18 0 -41 5v-171q84 11 135 51v-33q-48 -33 -135 -47v-219h-30z
M388 233q10 -3 26.5 -3t30.5 16t14 46t-24 64q-15 22 -15 40v2q-32 -29 -32 -85v-80z" />
    <glyph glyph-name="uni0D86" unicode="&#xd86;" horiz-adv-x="855" 
d="M358 -215v215q-32 -4 -76 -4q-120 0 -184.5 44.5t-64.5 115.5t44.5 112t124.5 41h112q-1 33 -20.5 57.5t-51.5 24.5q-16 0 -27 -5.5t-14.5 -11t-8.5 -16.5q-14 -28 -45 -28q-17 0 -29 11t-12 28q0 30 30 47t75 17q64 0 99.5 -37.5t35.5 -105.5v-4h-71q-41 0 -69.5 -13.5
t-40.5 -34.5q-22 -38 -22 -74q0 -61 42.5 -98.5t127.5 -37.5q17 0 45 2v283q0 57 25 85.5t56 36.5l24 -11q-2 -1 -5.5 -2.5t-8 -4.5t-4.5 -14t13 -23t28 -22.5t28 -31t13 -52.5t-28.5 -53.5t-69.5 -21.5q-18 0 -41 5v-171q84 11 135 51v-33q-48 -33 -135 -47v-219h-30z
M388 233q10 -3 26.5 -3t30.5 16t14 46t-24 64q-15 22 -15 40v2q-32 -29 -32 -85v-80zM551 110q0 15 1 22h27q-1 -5 -1 -15q0 -34 15 -51.5t40 -17.5q70 2 70 154.5t-70 152.5q-22 0 -38.5 -18.5t-16.5 -51.5q0 -10 1 -15h-27q-1 7 -1 22q0 50 32.5 80.5t78.5 30.5
q67 0 102 -52.5t35 -149.5t-35 -149.5t-102 -52.5q-51 0 -81 30t-30 81z" />
    <glyph glyph-name="uni0D87" unicode="&#xd87;" horiz-adv-x="878" 
d="M547 312v27h246q-1 -3 -3 -17q-83 -125 -83 -256q0 -64 27 -104q39 -58 112 -49l4 -19q-36 -41 -100.5 -41t-100 45.5t-35.5 117.5q0 144 140 296h-207zM358 -215v215q-32 -4 -76 -4q-120 0 -184.5 44.5t-64.5 115.5t44.5 112t124.5 41h112q-1 33 -20.5 57.5t-51.5 24.5
q-16 0 -27 -5.5t-14.5 -11t-8.5 -16.5q-14 -28 -45 -28q-17 0 -29 11t-12 28q0 30 30 47t75 17q64 0 99.5 -37.5t35.5 -105.5v-4h-71q-41 0 -69.5 -13.5t-40.5 -34.5q-22 -38 -22 -74q0 -61 42.5 -98.5t127.5 -37.5q17 0 45 2v283q0 57 25 85.5t56 36.5l24 -11
q-2 -1 -5.5 -2.5t-8 -4.5t-4.5 -14t13 -23t28 -22.5t28 -31t13 -52.5t-28.5 -53.5t-69.5 -21.5q-18 0 -41 5v-171q84 11 135 51v-33q-48 -33 -135 -47v-219h-30zM388 233q10 -3 26.5 -3t30.5 16t14 46t-24 64q-15 22 -15 40v2q-32 -29 -32 -85v-80z" />
    <glyph glyph-name="uni0D88" unicode="&#xd88;" horiz-adv-x="880" 
d="M358 -215v215q-32 -4 -76 -4q-120 0 -184.5 44.5t-64.5 115.5t44.5 112t124.5 41h112q-1 33 -20.5 57.5t-51.5 24.5q-16 0 -27 -5.5t-14.5 -11t-8.5 -16.5q-14 -28 -45 -28q-17 0 -29 11t-12 28q0 30 30 47t75 17q64 0 99.5 -37.5t35.5 -105.5v-4h-71q-41 0 -69.5 -13.5
t-40.5 -34.5q-22 -38 -22 -74q0 -61 42.5 -98.5t127.5 -37.5q17 0 45 2v283q0 57 25 85.5t56 36.5l24 -11q-2 -1 -5.5 -2.5t-8 -4.5t-4.5 -14t13 -23t28 -22.5t28 -31t13 -52.5t-28.5 -53.5t-69.5 -21.5q-18 0 -41 5v-171q84 11 135 51v-33q-48 -33 -135 -47v-219h-30z
M388 233q10 -3 26.5 -3t30.5 16t14 46t-24 64q-15 22 -15 40v2q-32 -29 -32 -85v-80zM545 314v25h245v-22l-127 -94h150v-22q-101 -75 -101 -179q0 -59 36 -92.5t99 -33.5v-25q-41 -19 -86 -19q-68 0 -106 36.5t-38 97.5q0 112 156 212h-160v21l130 95h-198z" />
    <glyph glyph-name="uni0D89" unicode="&#xd89;" horiz-adv-x="593" 
d="M252 214.5q-15 -14.5 -15 -35t15 -35t36 -14.5t36 15t15 35.5t-15 34.5t-36 14t-36 -14.5zM273 14l50 -2q74 0 121.5 45t47.5 118t-58 120.5t-146.5 47.5t-144.5 -38t-56 -107q0 -47 39.5 -81.5t109 -34.5t94.5 34q-18 -14 -47 -14t-52.5 22.5t-23.5 55t22.5 55.5
t60.5 23t62.5 -25t24.5 -65q0 -57 -43 -85.5t-119.5 -28.5t-129 45t-52.5 122q0 98 72 154.5t184.5 56.5t183.5 -60.5t71 -173.5q0 -78 -46 -135t-114 -69q55 -10 55 -69q0 -42 -42.5 -63.5t-97 -21.5t-90.5 20t-36 64q0 18 10 28t23 10t22 -7.5t9 -19.5l-4 -29
q0 -42 67 -42q31 0 50.5 13.5t19.5 42t-27 47t-76 18.5q-8 0 -18 -1v29q12 1 24 1z" />
    <glyph glyph-name="uni0D8A" unicode="&#xd8a;" horiz-adv-x="528" 
d="M131 364.5q-60 -48.5 -60 -115t43 -108t122 -41.5t131.5 46.5t52.5 117.5t-44 110t-114.5 39t-130.5 -48.5zM93 60q-62 60 -62 144.5t37 133.5t102.5 84t128.5 95q14 15 33 44.5t34.5 46.5t33.5 17q31 0 31 -25q0 -28 -62.5 -79.5t-121.5 -84.5q5 1 15 1q103 0 168 -71
q52 -58 52 -146.5t-66.5 -154t-163.5 -65.5t-159 60zM118 538q0 27 19 46t46 19t45.5 -19t18.5 -46t-18.5 -46t-45.5 -19t-46 19t-19 46zM145 538q0 -16 11 -27t27 -11t27 11t11 27t-11 27t-27 11t-27 -11t-11 -27zM383 468q0 27 19 46t46 19t45.5 -19t18.5 -46t-18.5 -46
t-45.5 -19t-46 19t-19 46zM410 468q0 -16 11 -27t27 -11t27 11t11 27t-11 27t-27 11t-27 -11t-11 -27z" />
    <glyph glyph-name="uni0D8B" unicode="&#xd8b;" horiz-adv-x="651" 
d="M32 99q0 85 63.5 141t168.5 56h242q-2 37 -30.5 64t-65.5 27t-57 -33q-19 -28 -41.5 -28t-33.5 11.5t-11 27.5q0 33 30 50t79 17q71 0 117 -43t46 -113v-6h-218q-90 0 -135 -42t-45 -115q0 -102 64.5 -165.5t152.5 -63.5t151.5 53.5t63.5 131.5h30q0 -99 -80 -164.5
t-197 -65.5t-205.5 72t-88.5 188z" />
    <glyph glyph-name="uni0D8C" unicode="&#xd8c;" horiz-adv-x="991" 
d="M32 99q0 85 63.5 141t168.5 56h242q-2 37 -30.5 64t-65.5 27t-57 -33q-19 -28 -41.5 -28t-33.5 11.5t-11 27.5q0 33 30 50t79 17q71 0 117 -43t46 -113v-6h-218q-90 0 -135 -42t-45 -115q0 -102 64.5 -165.5t152.5 -63.5t151.5 53.5t63.5 131.5h30q0 -99 -80 -164.5
t-197 -65.5t-205.5 72t-88.5 188zM609.5 243.5q-26.5 31.5 -26.5 87t37 97.5h35q-42 -34 -42 -106q0 -35 17.5 -58t43 -23t38 13.5t12.5 37t-20 45.5q-1 5 -1 12q0 38 25 60.5t71 22.5q75 0 109.5 -63.5t34.5 -154.5t-38 -153.5t-115 -62.5q-55 0 -84 34.5t-29 87.5
q0 20 4 37h26q-3 -17 -3 -32q0 -39 18.5 -61.5t52.5 -22.5q69 0 69 197q0 162 -66 162q-47 0 -47 -49v-7q37 -20 37 -56t-24.5 -56t-66 -20t-68 31.5z" />
    <glyph glyph-name="uni0D8D" unicode="&#xd8d;" horiz-adv-x="894" 
d="M766 115l1 70v9q-34 0 -60 -9q-60 -18 -60 -78q0 -30 17.5 -54t44.5 -24t53 13q6 0 9 -1q-5 12 -5 74zM617 249q0 63 28.5 103.5t87 40.5t88.5 -53.5t30 -136.5q0 -33 -8.5 -101t-8.5 -80.5t1 -18.5h-49q-5 14 -15 14q-3 0 -23 -9t-39 -9q-42 0 -67 33t-25 74
q0 72 66 100q36 15 84 15q0 130 -57 130q-33 0 -50.5 -28.5t-17.5 -76.5v-4h-25v7zM363 310q22 6 66 6t75 -10q14 15 14 38t-19.5 34.5t-48.5 11.5q-79 0 -87 -80zM73 45.5q-42 46.5 -42 113.5t47.5 112t128.5 45q34 0 55 -6v3q0 32 -20.5 56t-46.5 24q-43 0 -55 -39
q-12 -32 -41 -32q-15 0 -26 9.5t-11 27.5q0 33 31 53t74 20q63 0 94.5 -38.5t31.5 -97.5v-15q-52 9 -95 9t-80 -25t-37 -69t32 -70.5t80 -26.5t78 19.5t30 52.5v24h27v-24q0 -36 31 -54t82.5 -18t84.5 26t33 69.5t-33.5 69.5t-88.5 26t-104 -9v10q0 63 33.5 102t83.5 39
t79.5 -20.5t29.5 -61.5q0 -15 -9 -30.5t-20 -22.5q35 -16 56.5 -52.5t21.5 -78.5q0 -79 -46 -122.5t-122 -43.5q-96 0 -127 82q-34 -83 -130 -83q-68 0 -110 46.5z" />
    <glyph glyph-name="uni0D8E" unicode="&#xd8e;" horiz-adv-x="1140" 
d="M766 115l1 70v9q-34 0 -60 -9q-60 -18 -60 -78q0 -30 17.5 -54t44.5 -24t53 13q6 0 9 -1q-5 12 -5 74zM617 249q0 63 28.5 103.5t87 40.5t88.5 -53.5t30 -136.5q0 -33 -8.5 -101t-8.5 -80.5t1 -18.5h-49q-5 14 -15 14q-3 0 -23 -9t-39 -9q-42 0 -67 33t-25 74
q0 72 66 100q36 15 84 15q0 130 -57 130q-33 0 -50.5 -28.5t-17.5 -76.5v-4h-25v7zM1014 115l1 70v9q-34 0 -60 -9q-60 -18 -60 -78q0 -30 17.5 -54t44.5 -24t53 13q6 0 9 -1q-5 13 -5 74zM865 249q0 63 28.5 103.5t87 40.5t88.5 -53.5t30 -136.5q0 -33 -8.5 -101
t-8.5 -80.5t1 -18.5h-49q-5 14 -15 14q-3 0 -23 -9t-39 -9q-42 0 -67 33t-25 74q0 72 66 100q36 15 84 15q0 130 -57 130q-33 0 -50.5 -28.5t-17.5 -76.5v-4h-25v7zM363 310q22 6 66 6t75 -10q14 15 14 38t-19.5 34.5t-48.5 11.5q-79 0 -87 -80zM73 45.5q-42 46.5 -42 113.5
t47.5 112t128.5 45q34 0 55 -6v3q0 32 -20.5 56t-46.5 24q-43 0 -55 -39q-12 -32 -41 -32q-15 0 -26 9.5t-11 27.5q0 33 31 53t74 20q63 0 94.5 -38.5t31.5 -97.5v-15q-52 9 -95 9t-80 -25t-37 -69t32 -70.5t80 -26.5t78 19.5t30 52.5v24h27v-24q0 -36 31 -54t82.5 -18
t84.5 26t33 69.5t-33.5 69.5t-88.5 26t-104 -9v10q0 63 33.5 102t83.5 39t79.5 -20.5t29.5 -61.5q0 -15 -9 -30.5t-20 -22.5q35 -16 56.5 -52.5t21.5 -78.5q0 -79 -46 -122.5t-122 -43.5q-96 0 -127 82q-34 -83 -130 -83q-68 0 -110 46.5z" />
    <glyph glyph-name="uni0D8F" unicode="&#xd8f;" horiz-adv-x="820" 
d="M456 336v-11q25 3 61.5 3t71.5 -13q17 16 17 37.5t-19.5 36.5t-53.5 15t-55.5 -17.5t-21.5 -50.5zM133 184q0 68 46.5 105.5t128.5 37.5q12 0 36 -2q1 4 1 11q0 28 -15.5 42.5t-38.5 14.5q-39 0 -48 -34q-10 -32 -47 -32q-16 0 -27.5 10t-11.5 31.5t18 37.5q16 20 16 30
q0 15 -21 15q-49 0 -78.5 -62.5t-29.5 -148.5q0 -42 8.5 -89t23.5 -72q14 26 44 26q4 0 14 -2q-19 36 -19 81zM114 53q0 -11 7 -18t18 -7t18 7t7 18t-7 18t-18 7t-18 -7t-7 -18zM582 445q0 36 48 36q64 0 103.5 -68t39.5 -173q0 -77 -25 -154q-12 -37 -33.5 -61t-46 -24
t-39.5 15t-15 37v4q-73 -57 -213.5 -57t-210.5 58v-5q0 -22 -15 -37t-39.5 -15t-46 24t-33.5 61q-25 77 -25 168t39.5 159t103.5 68q48 0 48 -36q0 -11 -4 -16q22 5 42 5q55 0 85.5 -25.5t30.5 -74.5q0 -20 -4 -37q-36 4 -54 4q-60 0 -98.5 -22t-38.5 -64t35 -69
q61 -47 192 -47q123 0 185 51q34 28 34 69.5t-36 62.5t-81 21t-85 -7q-2 11 -2 32q0 51 31 78t86 27q26 0 48 -8q-6 9 -6 20zM742 240q0 86 -29.5 148.5t-78.5 62.5q-21 0 -21 -17q0 -14 12 -35q18 -19 18 -47t-28 -49q61 -37 61 -117q0 -48 -21 -82q4 1 11 1q30 0 44 -26
q15 25 23.5 72t8.5 89zM640 53q0 -11 7 -18t18 -7t18 7t7 18t-7 18t-18 7t-18 -7t-7 -18z" />
    <glyph glyph-name="uni0D90" unicode="&#xd90;" horiz-adv-x="1203" 
d="M456 336v-11q25 3 61.5 3t71.5 -13q17 16 17 37.5t-19.5 36.5t-53.5 15t-55.5 -17.5t-21.5 -50.5zM133 184q0 68 46.5 105.5t128.5 37.5q12 0 36 -2q1 4 1 11q0 28 -15.5 42.5t-38.5 14.5q-39 0 -48 -34q-10 -32 -47 -32q-16 0 -27.5 10t-11.5 31.5t18 37.5q16 20 16 30
q0 15 -21 15q-49 0 -78.5 -62.5t-29.5 -148.5q0 -42 8.5 -89t23.5 -72q14 26 44 26q4 0 14 -2q-19 36 -19 81zM114 53q0 -11 7 -18t18 -7t18 7t7 18t-7 18t-18 7t-18 -7t-7 -18zM582 445q0 36 48 36q64 0 103.5 -68t39.5 -173q0 -77 -25 -154q-12 -37 -33.5 -61t-46 -24
t-39.5 15t-15 37v4q-73 -57 -213.5 -57t-210.5 58v-5q0 -22 -15 -37t-39.5 -15t-46 24t-33.5 61q-25 77 -25 168t39.5 159t103.5 68q48 0 48 -36q0 -11 -4 -16q22 5 42 5q55 0 85.5 -25.5t30.5 -74.5q0 -20 -4 -37q-36 4 -54 4q-60 0 -98.5 -22t-38.5 -64t35 -69
q61 -47 192 -47q123 0 185 51q34 28 34 69.5t-36 62.5t-81 21t-85 -7q-2 11 -2 32q0 51 31 78t86 27q26 0 48 -8q-6 9 -6 20zM742 240q0 86 -29.5 148.5t-78.5 62.5q-21 0 -21 -17q0 -14 12 -35q18 -19 18 -47t-28 -49q61 -37 61 -117q0 -48 -21 -82q4 1 11 1q30 0 44 -26
q15 25 23.5 72t8.5 89zM640 53q0 -11 7 -18t18 -7t18 7t7 18t-7 18t-18 7t-18 -7t-7 -18zM822.5 243.5q-26.5 31.5 -26.5 87t37 97.5h35q-42 -34 -42 -106q0 -35 17.5 -58t43 -23t38 13.5t12.5 37t-20 45.5q-1 5 -1 12q0 38 25 60.5t71 22.5q75 0 109.5 -63.5t34.5 -154.5
t-38 -153.5t-115 -62.5q-55 0 -84 34.5t-29 87.5q0 20 4 37h26q-3 -17 -3 -32q0 -39 18.5 -61.5t52.5 -22.5q69 0 69 197q0 162 -66 162q-47 0 -47 -49v-7q37 -20 37 -56t-24.5 -56t-66 -20t-68 31.5z" />
    <glyph glyph-name="uni0D91" unicode="&#xd91;" horiz-adv-x="595" 
d="M334 559q-19 -34 -19 -72.5t19.5 -62.5t61.5 -24t55 40q-41 63 -117 119zM45 165q0 54 33 83q23 20 51 28q-82 -1 -113 -7v33h246v6q0 35 -21 60t-49 25q-39 0 -50 -37q-9 -34 -41 -34q-14 0 -25.5 9.5t-11.5 28.5q0 32 29.5 52t73.5 20q62 0 95 -41.5t33 -100.5v-14h-63
q-63 0 -105 -25q-34 -22 -34 -60q0 -50 54 -71t132 -21q111 0 169 49t58 129.5t-35 133.5q-24 -52 -88 -52q-46 0 -73 35t-27 95t42 108q45 -24 93 -72q127 -127 127 -280q0 -103 -69.5 -174t-199.5 -71q-100 0 -165.5 40.5t-65.5 124.5z" />
    <glyph glyph-name="uni0D92" unicode="&#xd92;" horiz-adv-x="595" 
d="M334 541q-19 -34 -19 -72.5t19.5 -62.5t61.5 -24t55 40q-41 63 -117 119zM45 165q0 54 33 83q23 20 51 28q-82 -1 -113 -7v33h240v6q0 31 -17.5 55t-44.5 24q-38 0 -52 -38q-11 -33 -41 -33q-14 0 -25.5 9.5t-11.5 27.5q0 34 30 53.5t73 19.5q61 0 91.5 -40t30.5 -96v-14
h-57q-63 0 -105 -25q-34 -22 -34 -60q0 -50 54 -71t132 -21q111 0 169 49.5t58 128.5q0 63 -35 116q-24 -52 -88 -52q-46 0 -73 35t-27 95t42 108q58 -32 115 -97v212q17 -14 61 -32t68.5 -41.5t24.5 -60.5t-22.5 -57t-51 -20t-51.5 9v-45q47 -64 61.5 -109.5t14.5 -96.5
q0 -100 -69.5 -170.5t-199.5 -70.5q-100 0 -165.5 40.5t-65.5 124.5zM469 516q14 -7 36.5 -7t34.5 14t12 34t-11.5 36.5t-25.5 26.5t-46 29v-133z" />
    <glyph glyph-name="uni0D93" unicode="&#xd93;" horiz-adv-x="1178" 
d="M919 559q-19 -34 -19 -72.5t19.5 -62.5t61.5 -24t55 40q-41 63 -117 119zM630 165q0 54 33 83q23 20 51 28q-82 -1 -113 -7v33h246v6q0 35 -21 60t-49 25q-39 0 -50 -37q-9 -34 -41 -34q-14 0 -25.5 9.5t-11.5 28.5q0 32 29.5 52t73.5 20q62 0 95 -41.5t33 -100.5v-14
h-63q-63 0 -105 -25q-34 -22 -34 -60q0 -50 54 -71t132 -21q111 0 169 49t58 129.5t-35 133.5q-24 -52 -88 -52q-46 0 -73 35t-27 95t42 108q45 -24 93 -72q127 -127 127 -280q0 -103 -69.5 -174t-199.5 -71q-100 0 -165.5 40.5t-65.5 124.5zM99.5 58.5
q-66.5 58.5 -66.5 155t79.5 157.5t190 61t191.5 -63.5t90 -162.5h-30q-13 87 -84.5 142t-164 55t-155 -43t-62.5 -109t51 -109.5t126.5 -43.5t124.5 29.5t49 84.5q0 33 -24.5 57.5t-61.5 31.5q20 -18 20 -49t-26.5 -51.5t-61.5 -20.5t-62 22t-27 55.5t29.5 55.5t72.5 22
q83 0 138 -43t55 -119.5t-58.5 -124.5t-162.5 -48t-170.5 58.5zM246 290.5q-16 -13.5 -16 -33t16 -33t38.5 -13.5t38.5 14t16 33t-16.5 32.5t-38.5 13.5t-38 -13.5z" />
    <glyph glyph-name="uni0D94" unicode="&#xd94;" 
d="M62.5 370.5q32.5 61.5 85 61.5t52.5 -61v-34q0 -39 26.5 -61t68 -22t68 19.5t26.5 52.5q0 3 -1 5q-7 -15 -24.5 -29.5t-48.5 -14.5t-51 22t-20 52.5t22 51.5t61 21t65.5 -29.5t26.5 -75.5t-34.5 -75.5t-89 -29.5t-89.5 30.5t-35 84.5v33q0 33 -26 33q-35 0 -57 -44.5
t-22 -106t37.5 -109t92 -47.5t75.5 20t21 49v17h26v-18q0 -30 23.5 -48.5t65.5 -18.5q67 0 102.5 60t35.5 142q0 106 -66 179.5t-181 73.5q-134 0 -204 -88h-32q78 112 239 112q135 0 212 -92.5t77 -231.5q0 -101 -40 -174q-21 -37 -58 -58.5t-86 -21.5q-78 0 -101 55
q-30 -55 -109 -55q-42 0 -75.5 21t-52.5 55q-38 68 -38 150.5t32.5 144zM288 395.5q-14 -13.5 -14 -33t14 -33t33 -13.5t33 13.5t14 33t-14 33t-33 13.5t-33 -13.5z" />
    <glyph glyph-name="uni0D95" unicode="&#xd95;" 
d="M288 395.5q-14 -13.5 -14 -33t14 -33t33 -13.5t33 13.5t14 33t-14 33t-33 13.5t-33 -13.5zM62.5 370.5q32.5 61.5 85 61.5t52.5 -61v-34q0 -39 26.5 -61t68 -22t68 19.5t26.5 52.5q0 3 -1 5q-7 -15 -24.5 -29.5t-48.5 -14.5t-51 22t-20 52.5t22 51.5t61 21t65.5 -29.5
t26.5 -75.5t-34.5 -75.5t-89 -29.5t-89.5 30.5t-35 84.5v33q0 33 -26 33q-35 0 -57 -44.5t-22 -106t37.5 -109t92 -47.5t75.5 20t21 49v17h26v-18q0 -30 23.5 -48.5t65.5 -18.5q66 0 101 55t37 132q-2 95 -73 151t-195 56t-235 -52v32q7 3 33 11.5t38 14t12 9.5t-14 14
t-14 24q0 31 50 57t128 26t134.5 -23t89.5 -64q63 -77 73 -186q17 -44 18 -102v-7q-2 -105 -46.5 -176t-137.5 -71q-78 0 -101 55q-30 -55 -109 -55q-42 0 -75.5 21t-52.5 55q-38 68 -38 150.5t32.5 144zM141 541q0 -6 11 -13.5t11 -12t-3 -7.5q61 11 119 11q168 0 250 -96
q-24 82 -88.5 121t-156.5 39q-54 0 -98.5 -13t-44.5 -29z" />
    <glyph glyph-name="uni0D96" unicode="&#xd96;" horiz-adv-x="1034" 
d="M62.5 370.5q32.5 61.5 85 61.5t52.5 -61v-34q0 -39 26.5 -61t68 -22t68 19.5t26.5 52.5q0 3 -1 5q-7 -15 -24.5 -29.5t-48.5 -14.5t-51 22t-20 52.5t22 51.5t61 21t65.5 -29.5t26.5 -75.5t-34.5 -75.5t-89 -29.5t-89.5 30.5t-35 84.5v33q0 33 -26 33q-35 0 -57 -44.5
t-22 -106t37.5 -109t92 -47.5t75.5 20t21 49v17h26v-18q0 -30 23.5 -48.5t65.5 -18.5q67 0 102.5 60t35.5 142q0 106 -66 179.5t-181 73.5q-134 0 -204 -88h-32q78 112 239 112q135 0 212 -92.5t77 -231.5q0 -101 -40 -174q-21 -37 -58 -58.5t-86 -21.5q-78 0 -101 55
q-30 -55 -109 -55q-42 0 -75.5 21t-52.5 55q-38 68 -38 150.5t32.5 144zM288 395.5q-14 -13.5 -14 -33t14 -33t33 -13.5t33 13.5t14 33t-14 33t-33 13.5t-33 -13.5zM651.5 243.5q-26.5 31.5 -26.5 87t37 97.5h35q-42 -34 -42 -106q0 -35 17.5 -58t43 -23t38 13.5t12.5 37
t-20 45.5q-1 5 -1 12q0 38 25 60.5t71 22.5q75 0 109.5 -63.5t34.5 -154.5t-38 -153.5t-115 -62.5q-55 0 -84 34.5t-29 87.5q0 20 4 37h26q-3 -17 -3 -32q0 -39 18.5 -61.5t52.5 -22.5q69 0 69 197q0 162 -66 162q-47 0 -47 -49v-7q37 -20 37 -56t-24.5 -56t-66 -20
t-68 31.5z" />
    <glyph glyph-name="uni0D9A" unicode="&#xd9a;" horiz-adv-x="746" 
d="M105 125q13 0 42.5 -13t56.5 -13q77 0 77 84v2h26v-1q0 -47 19 -66t58 -19t58 24t19 54q0 51 -43 81.5t-119.5 30.5t-117.5 -18q-26 -23 -56.5 -67.5t-45.5 -88.5q13 10 26 10zM193 352q0 38 -35 38q-12 0 -24 -7t-14.5 -17.5t-4.5 -21.5q-9 -47 -45 -47q-23 0 -32 14.5
t-9 28.5q0 40 31.5 66.5t72.5 26.5t64 -21.5t23 -54.5q0 -10 -1 -16q98 93 234 93q111 0 179.5 -69t68.5 -173q0 -72 -37.5 -132.5t-108.5 -60.5q-31 0 -50 12v28q19 -11 49.5 -11t52 32.5t21.5 80.5q0 103 -72.5 161t-174.5 58t-164 -54q33 9 86 9q94 0 153 -49t59 -140
q0 -50 -29.5 -88.5t-94 -38.5t-95.5 64q-27 -64 -92 -64q-30 0 -50.5 11.5t-28.5 25.5q-21 37 -38 37q-34 0 -39 -62l-27 11q6 49 32.5 109.5t51.5 95t64 75.5q24 26 24 50z" />
    <glyph glyph-name="uni0D9B" unicode="&#xd9b;" horiz-adv-x="630" 
d="M32 183q0 101 58.5 157t149.5 56q72 0 122.5 -38t50.5 -103.5t-53 -120.5q3 1 12.5 1t27 -20t38.5 -20q46 0 74 65t28 148q0 117 -67 192t-179 75q-136 0 -196 -105h-34q71 131 234 131q125 0 205.5 -87.5t80.5 -227.5q0 -111 -46 -198.5t-122 -87.5q-28 0 -45.5 13.5
t-28.5 27t-21 13.5q-23 0 -80 -75l-38 3q6 6 17 20q33 42 67 82q72 86 72 135q0 83 -123 83q-68 0 -119 -40t-51 -113q0 -23 6 -46q7 20 24.5 31.5t45 11.5t48.5 -20t21 -50.5t-20.5 -53.5t-49.5 -23q-57 0 -83 57t-26 127zM93 72q0 -18 12.5 -30.5t30.5 -12.5t31 12.5
t13 30.5t-13 31t-31 13t-30.5 -13t-12.5 -31z" />
    <glyph glyph-name="uni0D9C" unicode="&#xd9c;" 
d="M220 432l13 -1v-24h-11q-63 0 -104 -48.5t-41 -113t36 -105.5t88 -41t79.5 19.5t27.5 48t-11.5 40t-27.5 11.5t-25 -6q-2 -12 -2 -19h-26q8 102 58 170.5t133.5 68.5t131 -62.5t47.5 -154t-60 -154t-157 -62.5q-9 0 -31 2v26q16 -2 24 -2q76 0 119.5 48.5t43.5 118
t-37.5 114t-98.5 44.5t-96 -32t-45 -80q9 5 22 5q37 0 59.5 -29t22.5 -84t-39.5 -93.5t-104.5 -38.5q-80 0 -127 61t-47 151.5t52 156t134 65.5z" />
    <glyph glyph-name="uni0D9D" unicode="&#xd9d;" horiz-adv-x="677" 
d="M383 310q20 6 67 6t73 -10q16 16 16 39t-20.5 35t-48.5 12q-80 0 -87 -82zM51 154q0 96 87 128q-106 -2 -133 -7v33h275v4q0 34 -20 57t-52.5 23t-45.5 -35t-43 -35q-16 0 -26.5 9.5t-10.5 27.5q0 34 30.5 53.5t74.5 19.5q63 0 94.5 -38.5t31.5 -98.5v-13h-94
q-46 0 -83.5 -26.5t-37.5 -67.5t29.5 -65.5t68.5 -24.5t47 8q-2 14 0 27q3 41 29 60.5t60 19.5t60 -19.5t29 -60.5q2 -13 0 -27q8 -8 49.5 -8t77 25.5t35.5 69.5t-34.5 70.5t-94 26.5t-101.5 -9v10q0 63 33.5 102t84 39t79.5 -21t29 -59t-29 -55q35 -17 56.5 -53.5
t21.5 -77.5q0 -79 -46 -123t-117 -44q-33 0 -80 12q-4 8 -4 27t5.5 40t5.5 45.5t-17 42t-43 17.5t-43 -17.5t-17 -42t5.5 -45.5t5.5 -40t-4 -27q-47 -12 -80 -12q-65 0 -106.5 46.5t-41.5 108.5z" />
    <glyph glyph-name="uni0D9E" unicode="&#xd9e;" horiz-adv-x="617" 
d="M280 224l-99 6q-36 0 -58 -17t-22 -46t24.5 -48.5t63.5 -19.5t67 15.5t28 48.5v22h27v-22q0 -32 27 -48t63 -16q57 0 87.5 53.5t30.5 152t-67 175.5t-180 77t-193 -89h-33q88 114 235 114q121 0 205 -92t84 -230q0 -114 -40.5 -187t-113.5 -73q-43 0 -67.5 13.5
t-50.5 45.5q-47 -59 -108.5 -59t-100 40t-38.5 96.5t37 89.5t91 33l101 -7q62 0 62 58q0 49 -41 74.5t-87 25.5q-15 0 -31 -2q39 -21 39 -63q0 -28 -23 -50.5t-56.5 -22.5t-58 21.5t-24.5 57.5t40.5 59.5t111.5 23.5t115.5 -36t44.5 -92q0 -34 -22.5 -58t-69.5 -24zM88 347
q0 -20 16 -34.5t38 -14.5t37.5 14.5t15.5 34.5t-15.5 34.5t-37.5 14.5t-38 -14.5t-16 -34.5z" />
    <glyph glyph-name="uni0D9F" unicode="&#xd9f;" horiz-adv-x="749" 
d="M81.5 377q54.5 56 151.5 56t117 -2v-24h-11q-63 0 -104 -48.5t-41 -113t36 -105.5t88 -41t79.5 19.5t27.5 48t-11.5 40t-27.5 11.5t-25 -6q-2 -12 -2 -19h-26q8 102 58 170.5t133.5 68.5t131 -62.5t47.5 -154t-60 -154t-157 -62.5q-9 0 -31 2v26q16 -2 24 -2
q76 0 119.5 48.5t43.5 118t-37.5 114t-98.5 44.5t-96 -32t-45 -80q9 5 22 5q37 0 59.5 -29t22.5 -84t-39.5 -93.5t-104.5 -38.5q-80 0 -127 61t-47 148q0 65 26.5 119t72.5 82q-193 -3 -193 -190q0 -119 78 -186v-32q-49 25 -78.5 85t-29.5 136q0 100 54.5 156z" />
    <glyph glyph-name="uni0DA0" unicode="&#xda0;" horiz-adv-x="597" 
d="M64 165q0 54 33 83q23 20 51 28q-105 -1 -134 -7v33h272v6q0 38 -20.5 61.5t-47.5 23.5q-42 0 -55 -35.5t-43 -35.5q-15 0 -26 9.5t-11 27.5q0 34 30.5 53.5t74.5 19.5q64 0 97.5 -38t33.5 -104v-14h-60q-67 0 -107 -23.5t-40 -61.5q0 -49 54 -70.5t132 -21.5
q113 0 173 57t60 156t-64.5 169.5t-163.5 70.5q-118 0 -186 -82h-33q75 107 219 107q119 0 195.5 -87.5t76.5 -213.5t-73 -201t-207 -75q-100 0 -165.5 40.5t-65.5 124.5z" />
    <glyph glyph-name="uni0DA1" unicode="&#xda1;" horiz-adv-x="598" 
d="M435 198q36 0 55 44q-30 41 -113 45q2 -89 58 -89zM33 170q0 61 47 101.5t128 40.5q14 0 19 -1q2 14 2 29.5t-12.5 31.5t-39.5 16t-37 -26q-12 -26 -23.5 -33.5t-25.5 -7.5t-26 10.5t-12 28.5q0 35 28 53.5t73 18.5t74.5 -28t29.5 -78q0 -22 -4 -39q-16 2 -25 2
q-80 0 -115 -28t-35 -62q0 -53 62 -77t151 -24q85 0 131 15.5t64 35.5t18 47q0 8 -1 12q-28 -37 -70 -37t-63 32.5t-22 84.5q-32 -1 -65 -4q-5 17 -5 35q0 94 90 113q25 78 63 123q50 62 105 62q15 0 24 -8t9 -20.5t-10.5 -20t-26 -10t-39.5 -16.5q-58 -31 -90 -107h2
q56 0 91 -34.5t35 -98.5q0 -28 -8 -52q25 -34 25 -87t-37 -93q-67 -70 -214 -70q-115 0 -190 41t-75 129zM307 324q0 -10 1 -14q14 2 41 2q3 50 13 91q-55 -20 -55 -79zM377 311q83 -3 123 -37q3 14 3 26q0 109 -101 109h-8q-14 -46 -17 -98z" />
    <glyph glyph-name="uni0DA2" unicode="&#xda2;" horiz-adv-x="598" 
d="M33 170q0 61 47 101.5t128 40.5q18 0 26 -1q2 14 2 29t-12.5 32t-41 17t-42.5 -30q-9 -20 -19 -29t-27 -9t-28 11t-11 29q0 34 30 52.5t75 18.5t75.5 -28t30.5 -78q0 -22 -4 -39q-24 2 -33 2q-80 0 -114.5 -27.5t-34.5 -63.5q0 -52 61.5 -75.5t151 -23.5t149.5 24t60 77
q0 36 -34.5 62.5t-112.5 26.5q-23 0 -37 -2t-18 -2q-7 22 -7 46q0 79 76 98q21 85 85 144q47 44 80.5 44t33.5 -25q0 -13 -16 -23t-46 -26q-81 -43 -104 -110q5 1 17 1q37 0 69 -20.5t32 -65t-47 -58.5q76 -35 76 -122q0 -58 -37 -98q-67 -70 -214 -70q-115 0 -190 41
t-75 129zM326 309q16 2 32 2t25 -1q-20 24 -20 63q0 18 1 26q-41 -16 -41 -65q0 -12 3 -25zM404 328q13 -17 35.5 -17t36 12t13.5 34t-20 36t-44 14t-31 -1q-3 -17 -3 -39t13 -39z" />
    <glyph glyph-name="uni0DA3" unicode="&#xda3;" horiz-adv-x="1087" 
d="M193 352q0 38 -35 38q-12 0 -24 -7t-14.5 -17.5t-4.5 -21.5q-9 -47 -45 -47q-23 0 -32 14.5t-9 28.5q0 40 31.5 66.5t72.5 26.5t64 -21.5t23 -54.5q0 -10 -1 -16q45 42 112 67t139 25q125 0 201 -35v-25h-10q-58 0 -96.5 -44t-38.5 -101t30.5 -93t78.5 -36q104 0 104 85
v34h29v-34q0 -44 27.5 -64.5t69.5 -20.5q66 0 97 57.5t31 135.5q0 110 -70.5 186.5t-182.5 76.5t-192 -87h-33q85 112 234 112q123 0 206.5 -90.5t83.5 -228.5q0 -101 -35 -176q-19 -39 -53 -62t-79 -23q-74 0 -119 59q-47 -59 -113 -59q-87 0 -131 83q-25 -84 -112 -84
q-70 0 -101 64q-27 -64 -92 -64q-30 0 -50.5 11.5t-28.5 25.5q-21 37 -38 37q-34 0 -39 -62l-27 11q6 49 32.5 109.5t51.5 95t64 75.5q24 26 24 50zM303 315q127 0 183 -83q9 56 41 98t75 57q1 1 2.5 1t2.5 1q-62 15 -134 15q-144 0 -255 -98q33 9 85 9zM105 125
q13 0 42.5 -13t56.5 -13q77 0 77 84v2h26v-1q0 -47 19 -66t58 -19t58 24t19 54q0 51 -43 81.5t-119.5 30.5t-117.5 -18q-26 -23 -56.5 -67.5t-45.5 -88.5q13 10 26 10z" />
    <glyph glyph-name="uni0DA4" unicode="&#xda4;" horiz-adv-x="1024" 
d="M428 315q131 0 185 -87q34 88 182 88h119q-9 34 -40 56t-61 22t-45 -30q-13 -29 -44 -29q-18 0 -29 10.5t-11 31t24 36.5q-11 1 -53 1t-102 -12q-114 -23 -209 -95q30 8 84 8zM344 341q130 101 340 101q92 0 144 -15q103 -23 123 -134h-106q-134 0 -134 -121
q0 -61 39 -100t96 -39t109 60l24 -19q-6 -6 -24 -28t-21 -27t-10.5 -16.5t-11 -18.5t-9 -18.5t-7.5 -21.5q-6 -28 -6 -43q0 -84 91 -109v-30q-24 -6 -67 -5.5t-71 29.5t-28 74q0 59 74 149q-43 -11 -83 -11q-123 0 -175 75q-28 -74 -103.5 -74t-106.5 64q-27 -64 -92 -64
q-30 0 -50.5 11.5t-28.5 25.5q-21 37 -38 37q-34 0 -39 -62l-27 11q6 49 32.5 109.5t51.5 95t64 75.5q23 25 23 50q0 38 -34 38q-12 0 -24 -7t-14.5 -17.5t-4.5 -21.5q-9 -47 -45 -47q-23 0 -32 14.5t-9 28.5q0 35 24 59h-1q-56 -13 -88 -60t-32 -121q0 -119 78 -186v-32
q-49 25 -78.5 85t-29.5 136q0 100 54.5 156.5t157.5 56.5q15 0 26 -1q36 -1 58 -22t22 -54q0 -10 -1 -16zM230 125q13 0 42.5 -13t56.5 -13q77 0 77 84v2h26v-1q0 -47 19 -66t58 -19t58 24t19 54q0 51 -43 81.5t-119.5 30.5t-117.5 -18q-26 -23 -56.5 -67.5t-45.5 -88.5
q13 10 26 10z" />
    <glyph glyph-name="uni0DA5" unicode="&#xda5;" horiz-adv-x="842" 
d="M370 243q36 0 57 -26q29 100 186 100h119q-8 35 -29 56t-49.5 21t-43.5 -30q-13 -29 -43 -29q-18 0 -29 10.5t-11 29.5t18 35h-6q-76 0 -125 -46t-66 -126q10 5 22 5zM239 433l94 -2v-24h-11q-63 0 -104 -49t-41 -112t34.5 -105t88 -42t81 19t27.5 46q0 54 -41 54
q-13 0 -22 -7q-2 -12 -2 -18h-28q21 245 245 245q63 0 100 -8q87 -17 109 -137h-106q-134 0 -134 -120q0 -61 39 -100t96.5 -39t108.5 59l24 -18q-56 -65 -72.5 -102t-16.5 -72q0 -84 91 -109v-30q-24 -6 -67 -5.5t-71 29.5t-28 74q0 59 74 149q-39 -10 -83 -10
q-133 0 -181 84q-15 -39 -50.5 -62t-84.5 -23q-80 0 -127 61t-47 148q0 65 25.5 118t70.5 81q-85 -1 -129 -52.5t-44 -135.5q0 -119 78 -186v-32q-49 25 -78.5 85t-29.5 136q0 100 54.5 156t157.5 56z" />
    <glyph glyph-name="uni0DA6" unicode="&#xda6;" horiz-adv-x="699" 
d="M134 170q0 61 47 101.5t128 40.5q18 0 26 -1q2 14 2 29t-12.5 32t-41 17t-42.5 -30q-9 -20 -19 -29t-27 -9t-28 11t-11 30.5t11 33.5q-51 -15 -80.5 -61t-29.5 -117q0 -119 78 -186v-32q-49 25 -78.5 85t-29.5 136q0 100 54.5 156t157.5 56q71 0 99.5 -31t28.5 -76
q0 -22 -4 -39q-24 2 -33 2q-80 0 -114.5 -27.5t-34.5 -63.5q0 -52 61.5 -75.5t151 -23.5t149.5 24t60 77q0 36 -34.5 62.5t-112.5 26.5q-23 0 -37 -2t-18 -2q-7 22 -7 46q0 79 76 98q21 85 85 144q47 44 80.5 44t33.5 -25q0 -13 -16 -23t-46 -26q-81 -43 -104 -110q5 1 17 1
q37 0 69 -20.5t32 -65t-47 -58.5q76 -35 76 -122q0 -58 -38 -98q-66 -70 -213 -70q-115 0 -190 41t-75 129zM427 309q16 2 32 2t25 -1q-20 24 -20 63q0 18 1 26q-41 -16 -41 -65q0 -12 3 -25zM505 328q13 -17 35.5 -17t36 12t13.5 34t-20 36t-44 14t-31 -1q-3 -17 -3 -39
t13 -39z" />
    <glyph glyph-name="uni0DA7" unicode="&#xda7;" horiz-adv-x="603" 
d="M101.5 56q-69.5 57 -69.5 146t58.5 139t141.5 50q47 0 89 -16v-30q-39 19 -96 19t-101.5 -34.5t-44.5 -97.5t59 -98t139 -35q104 0 168 54.5t64 153t-66 172t-168 73.5q-119 0 -184 -82h-34q73 107 216 107q126 0 205 -90t79 -212t-76 -199t-193 -77t-186.5 57z" />
    <glyph glyph-name="uni0DA8" unicode="&#xda8;" horiz-adv-x="614" 
d="M347 492q0 -89 76 -89q48 0 61 45q-39 61 -117 119q-20 -33 -20 -75zM75 58q-42 58 -42 131.5t34 126.5q53 82 154 82v-26h-10q-58 0 -96.5 -43.5t-38.5 -99.5t30 -93t78 -37t77 20.5t29 64.5v33h28v-33q0 -44 28 -64.5t70 -20.5q66 0 98.5 48.5t32.5 113.5q0 92 -43 158
q-24 -52 -88 -52q-46 0 -73 35t-27 95t42 108q45 -24 93 -72t75 -95q63 -108 63 -206q0 -128 -69 -194q-39 -38 -98 -38q-74 0 -119 59q-47 -59 -116.5 -59t-111.5 58z" />
    <glyph glyph-name="uni0DA9" unicode="&#xda9;" horiz-adv-x="647" 
d="M15 287v28h245q-2 30 -20.5 52.5t-44.5 22.5t-43 -28q-13 -25 -34.5 -25t-32 10.5t-10.5 26.5q0 28 27 43t62 15q61 0 95.5 -38.5t35.5 -106.5h-73q-64 0 -96 -30t-32 -68.5t29 -64t74.5 -25.5t73 17.5t27.5 49.5v30h29v-30q0 -31 25.5 -49t67.5 -18q63 0 98 51.5
t35 130.5q0 114 -69.5 194.5t-187 80.5t-189.5 -88h-34q79 114 231 114q130 0 212 -91.5t82 -232.5q0 -112 -42.5 -185t-127.5 -73q-44 0 -69.5 15.5t-45.5 43.5q-48 -59 -117 -59t-109.5 48t-40.5 114q0 40 20 74t59 51h-110z" />
    <glyph glyph-name="uni0DAA" unicode="&#xdaa;" horiz-adv-x="647" 
d="M373 564q-25 -28 -25 -93q0 -33 20 -55t60.5 -22t66.5 55q-28 41 -61.5 71.5t-60.5 43.5zM15 287v28h242q-1 31 -19.5 53t-44.5 22t-43 -28q-13 -25 -34 -25t-32 10.5t-11 26.5q0 28 27 43t62 15q61 0 95.5 -38.5t34.5 -106.5h-70q-64 0 -96 -30t-32 -68.5t29 -64
t74.5 -25.5t73 17.5t27.5 49.5v30h29v-30q0 -31 25.5 -49t67.5 -18q63 0 97 49t34 125t-39 147q-33 -57 -85.5 -57t-80.5 31.5t-28 88.5t41 120q91 -36 165 -138.5t74 -212.5t-42 -181t-129 -71q-71 0 -114 59q-48 -59 -117 -59t-109.5 48t-40.5 114q0 40 20 74t59 51h-110z
" />
    <glyph glyph-name="uni0DAB" unicode="&#xdab;" horiz-adv-x="963" 
d="M735 105q0 -36 16 -50t35 -14q31 0 42 32.5t11 95.5q0 131 -48 131t-53 -103q3 -15 3 -39.5t-6 -46.5v-6zM598 94.5q19 -26.5 48 -26.5t46.5 25.5t17.5 68.5q0 94 -66 94q-20 0 -36 -15.5t-24 -40.5q-2 -20 -6 -39q1 -40 20 -66.5zM296 258q0 -25 17 -42t42 -17t42 17
t17 42t-17 42t-42 17t-42 -17t-17 -42zM267 258q0 20 9 37q-48 -24 -71 -37q19 -56 93 -67q-31 26 -31 67zM345 96q82 0 131.5 43.5t49.5 111.5q0 82 -66 126q-33 -12 -83 -34q29 -8 48 -31.5t19 -52t-14 -49.5q-33 -48 -109 -48q-52 0 -90.5 21.5t-52.5 59.5
q-33 -18 -63 -36q30 0 81 -55q19 -21 58.5 -38.5t90.5 -17.5zM200 292v-5q106 59 219 110q-27 9 -63 9q-66 0 -111 -31.5t-45 -82.5zM170 287q0 69 54 107.5t135 38.5q51 0 99 -19q107 46 198 76q105 37 163 37q44 0 44 -33q0 -28 -39 -35q-105 -13 -175.5 -27t-149.5 -41
q68 -46 82 -136q28 31 70.5 31t67.5 -35q3 40 27.5 68.5t70 28.5t72 -51.5t26.5 -128.5t-28 -123t-87 -46q-37 0 -59.5 20t-26.5 49q-26 -32 -62 -32q-67 0 -94 71q-55 -107 -193 -107q-55 0 -95 18.5t-61.5 45t-37.5 53t-33 45t-40.5 18.5t-64.5 -27l-11 25q68 46 149 93
q-1 5 -1 16z" />
    <glyph glyph-name="uni0DAC" unicode="&#xdac;" horiz-adv-x="731" 
d="M102 287v28h245q-2 30 -20.5 52.5t-44.5 22.5t-43 -28q-13 -25 -34.5 -25t-32 10.5t-10.5 24.5t6 25q-52 -15 -81.5 -61.5t-29.5 -117.5q0 -119 78 -186v-32q-49 25 -78.5 85t-29.5 136q0 100 54.5 156t157.5 56q31 0 53 -6q88 -25 90 -140h-73q-64 0 -96 -30t-32 -68
t30 -64t75 -26t72 17.5t27 49.5v30h29v-30q0 -31 25.5 -49t67.5 -18q63 0 98 51.5t35 130.5q0 114 -69.5 194.5t-187 80.5t-189.5 -88h-34q79 114 231 114q130 0 212 -91.5t82 -232.5q0 -112 -42.5 -185t-127.5 -73q-44 0 -69.5 15.5t-45.5 43.5q-48 -59 -117 -59t-109.5 48
t-40.5 114q0 40 20 74t59 51h-110z" />
    <glyph glyph-name="uni0DAD" unicode="&#xdad;" horiz-adv-x="704" 
d="M81 123q12 9 29 9t61.5 -16t99 -16t95 24t40.5 71.5t-35.5 73.5t-87.5 26q-78 0 -125 -35q-48 -59 -77 -137zM161 309q18 18 18 37t-7.5 30t-20.5 11q-28 0 -30 -32q-2 -61 -44 -61q-19 0 -29.5 14t-10.5 34q0 37 26.5 64t63.5 27t58 -22t21 -56q0 -4 -1 -8q80 88 218 88
q105 0 173 -69.5t68 -180.5q0 -79 -39.5 -132.5t-108.5 -53.5q-38 0 -61 14v30q24 -13 47 -13q41 0 63 35.5t22 83.5q0 97 -65.5 159t-166 62t-154.5 -64q33 14 80 14q79 0 128.5 -40.5t49.5 -114.5t-48 -120.5t-129 -46.5q-50 0 -85 12.5t-49 27.5q-35 41 -59 41
q-30 0 -44 -70l-23 16q9 73 49.5 150.5t89.5 133.5z" />
    <glyph glyph-name="uni0DAE" unicode="&#xdae;" horiz-adv-x="614" 
d="M336 492q0 -88 76 -88q48 0 61 44q-40 61 -117 118q-20 -30 -20 -74zM33 235q0 81 63.5 138t148.5 57v-26q-70 0 -120 -43.5t-50 -115.5t64 -109t162.5 -37t160.5 54.5t62 142.5q0 68 -31 123q-24 -52 -88 -52q-46 0 -73 35t-27 95t42 108q45 -24 93 -72t76 -96t39 -89.5
t11 -95.5q0 -111 -77 -182t-191 -71t-189.5 65.5t-75.5 170.5z" />
    <glyph glyph-name="uni0DAF" unicode="&#xdaf;" horiz-adv-x="456" 
d="M31 169q0 148 192 148h119q-8 35 -29 56t-49.5 21t-43.5 -30q-13 -29 -43 -29q-18 0 -29 10.5t-11 26.5q0 27 27 44t68 17q64 0 98.5 -33.5t48.5 -106.5h-106q-134 0 -134 -120q0 -61 39 -100t96.5 -39t108.5 59l24 -18q-56 -65 -72.5 -102t-16.5 -72q0 -84 91 -109v-30
q-24 -6 -67 -5.5t-71 29.5t-28 74q0 59 74 149q-39 -10 -83 -10q-96 0 -149.5 46.5t-53.5 123.5z" />
    <glyph glyph-name="uni0DB0" unicode="&#xdb0;" horiz-adv-x="638" 
d="M75 58q-42 58 -42 131.5t34 126.5q53 82 154 82v-25h-10q-58 0 -96.5 -44t-38.5 -101t30.5 -93t78.5 -36q104 0 104 85v34h29v-34q0 -44 27.5 -64.5t69.5 -20.5q66 0 97 57.5t31 135.5q0 110 -70.5 186.5t-182.5 76.5t-192 -87h-33q85 112 234 112q123 0 206.5 -90.5
t83.5 -228.5q0 -101 -35 -176q-19 -39 -53 -62t-79 -23q-74 0 -119 59q-47 -59 -116.5 -59t-111.5 58z" />
    <glyph glyph-name="uni0DB1" unicode="&#xdb1;" horiz-adv-x="806" 
d="M114 120q60 -23 143.5 -23t132.5 28.5t49 78.5q0 35 -29 57t-74.5 22t-78 -12.5t-51 -33t-30.5 -41.5q-36 -60 -62 -76zM26 145q19 -12 42.5 -12t41 18.5t43 58t54.5 68.5q18 18 18 46t-12.5 44.5t-34.5 16.5q-37 0 -40 -40q-1 -19 -11 -34t-29.5 -15t-31 11.5
t-11.5 39.5t26.5 56t73.5 28t72.5 -29.5t25.5 -73.5q0 -8 -1 -12q41 48 110.5 82.5t143.5 34.5q108 0 181 -69t73 -181q0 -85 -46 -134.5t-109 -49.5q-41 0 -69 17v30q24 -18 57.5 -18t58 32t24.5 84q0 100 -72 158.5t-173 58.5t-164 -65q35 12 78 12q64 0 108.5 -40
t44.5 -99q0 -83 -62.5 -126.5t-161 -43.5t-165 38t-83.5 108z" />
    <glyph glyph-name="uni0DB3" unicode="&#xdb3;" horiz-adv-x="531" 
d="M115 169q0 148 192 148h119q-7 33 -32.5 54t-54 21t-43.5 -28q-13 -29 -44 -29q-18 0 -29 10.5t-11 27.5t12 31q-74 -7 -120.5 -51.5t-46.5 -134.5q0 -119 78 -186v-32q-49 25 -78.5 85t-29.5 136q0 98 58 156t175 58q49 0 74 -5q106 -16 129 -137h-106q-134 0 -134 -120
q0 -61 39 -100t96.5 -39t108.5 59l24 -18q-56 -65 -72.5 -102t-16.5 -72q0 -84 91 -109v-30q-24 -6 -67 -5.5t-71 29.5t-28 74q0 59 74 149q-39 -10 -83 -10q-96 0 -149.5 46.5t-53.5 123.5z" />
    <glyph glyph-name="uni0DB4" unicode="&#xdb4;" horiz-adv-x="616" 
d="M354 336q0 -7 1 -11q25 3 61 3t72 -13q16 16 16 37.5t-19 36.5t-53 15t-56 -18t-22 -50zM243 325l1 11q0 28 -15.5 42.5t-38.5 14.5q-39 0 -48 -34q-10 -32 -47 -32q-16 0 -28 10t-12 29q0 31 30 49.5t79 18.5t80 -25.5t31 -74.5q0 -20 -4 -37q-36 4 -54 4
q-60 0 -98.5 -22t-38.5 -64t35 -69q61 -47 192 -47q123 0 185 51q34 28 34 69.5t-36 62.5t-81 21t-85 -7q-3 16 -3 32q0 51 31 78t82.5 27t79 -24t27.5 -55t-27 -51q60 -36 60 -123t-76 -133.5t-191 -46.5q-79 0 -138 16.5t-98.5 59t-39.5 109.5t47 104.5t129 37.5
q10 0 36 -2z" />
    <glyph glyph-name="uni0DB5" unicode="&#xdb5;" horiz-adv-x="581" 
d="M322 559q-19 -34 -19 -72.5t19.5 -62.5t61.5 -24t55 40q-41 63 -117 119zM33 165q0 144 199 144h16v6q0 32 -19.5 55t-46.5 23q-38 0 -52 -38q-11 -33 -41 -33q-14 0 -25.5 9.5t-11.5 27.5q0 34 30.5 53.5t74.5 19.5q62 0 93 -39.5t31 -95.5v-14h-60q-63 0 -100.5 -23
t-37.5 -66q0 -73 119 -90q30 -5 65 -5q111 0 169 49t58 129t-35 134q-24 -52 -88 -52q-46 0 -73 35t-27 95t42 108q45 -24 93 -72q127 -127 127 -280q0 -103 -69.5 -174t-199.5 -71q-100 0 -165.5 40.5t-65.5 124.5z" />
    <glyph glyph-name="uni0DB6" unicode="&#xdb6;" horiz-adv-x="619" 
d="M62.5 53.5q-29.5 54.5 -29.5 141t59 144t151 57.5q73 0 122.5 -36t49.5 -99q0 -64 -41 -88q-17 -10 -34 -17q-41 -19 -41 -44q0 -32 45 -32q75 0 125 78t50 176t-61 162t-166 64q-138 0 -197 -90h-31q27 55 85.5 85t142.5 30q132 0 207.5 -82t75.5 -219q0 -166 -83 -244
q-46 -42 -104 -42t-89.5 28.5t-31.5 66t15.5 56t33.5 25t33.5 22t15.5 43t-36 45.5t-100 18t-113.5 -40t-49.5 -110q0 -39 11 -61q3 27 23 44.5t51 17.5t54.5 -22.5t23.5 -55.5t-23.5 -54.5t-55.5 -21.5q-58 0 -87.5 54.5zM101 76q0 -20 14.5 -34.5t34.5 -14.5t34.5 14.5
t14.5 34.5t-14.5 34.5t-34.5 14.5t-34.5 -14.5t-14.5 -34.5z" />
    <glyph glyph-name="uni0DB7" unicode="&#xdb7;" horiz-adv-x="670" 
d="M6 303h215q0 32 -16.5 55t-42 23t-37.5 -27q-12 -29 -40 -29q-16 0 -26 10.5t-10 32t22.5 43t62.5 21.5q57 0 88.5 -44.5t32.5 -110.5q-12 2 -29 2q-54 0 -92 -24.5t-38 -67t38 -65.5t88 -23t84.5 19t34.5 57t-30 38q-23 0 -33 -29l-23 9q7 96 62 167.5t132.5 71.5
t124.5 -64t47 -155.5t-60 -152.5t-152 -61q-20 0 -41 3v28q18 -3 36 -3q68 0 106 45t38 110.5t-35 112.5t-99 47q-99 0 -126 -111q13 8 28 8q30 0 48 -26.5t18 -67.5q0 -67 -46.5 -106.5t-119.5 -39.5t-120 43t-47 116.5t74 118.5q-89 -1 -117 -7v33z" />
    <glyph glyph-name="uni0DB8" unicode="&#xdb8;" horiz-adv-x="633" 
d="M172 299l7 79q0 26 -25 26q-34 0 -55 -35t-21 -84q0 -89 63.5 -138.5t164.5 -49.5t165.5 60t64.5 159t-65.5 171t-167.5 72q-121 0 -192 -90h-33q37 56 95.5 86.5t128.5 30.5q119 0 201 -86t82 -214.5t-75 -207t-200.5 -78.5t-201 67t-75.5 183q0 71 34 126.5t89 55.5
q53 0 53 -57l-5 -70q0 -38 27 -60t71 -22t71.5 24.5t27.5 61.5t-14 57q2 -10 2 -23q0 -29 -21 -50.5t-56 -21.5t-57 25t-22 57t24.5 55.5t68.5 23.5t75 -33.5t31 -87.5t-37 -87t-90.5 -33t-93 27.5t-39.5 80.5zM264 352q0 -20 14.5 -34.5t34.5 -14.5t34.5 14.5t14.5 34.5
t-14.5 34.5t-34.5 14.5t-34.5 -14.5t-14.5 -34.5z" />
    <glyph glyph-name="uni0DB9" unicode="&#xdb9;" 
d="M274 363q0 -19 14 -33t33 -14t33 14t14 33t-14 33t-33 14t-33 -14t-14 -33zM171 346l1 26q0 33 -27 33q-35 0 -57 -44.5t-22 -106t32 -111t88 -49.5q25 0 37 8q-1 4 -1 27q3 41 29.5 60t58.5 19t58.5 -19t29.5 -60q2 -15 -1 -27q14 -8 37 -8q46 0 78 61t32 138
q0 107 -66 184.5t-180 77.5q-72 0 -119.5 -22t-84.5 -67h-32q78 113 238 113q136 0 213 -93t77 -232q0 -101 -47 -177.5t-125 -76.5q-30 0 -64 15q-5 17 5 50.5t10 54.5t-15.5 39.5t-43.5 18.5t-43.5 -18.5t-15.5 -39.5t6 -41q13 -45 9 -64q-34 -15 -64 -15q-81 0 -126.5 69
t-45.5 155.5t32.5 147t85 60.5t52.5 -61v-27q0 -40 26 -62.5t67.5 -22.5t65.5 18t24 44v4q-24 -36 -61.5 -36t-57 21t-19.5 51.5t21.5 51.5t60 21t63 -29.5t24.5 -73t-33.5 -72.5t-87.5 -29t-88 31t-34 85z" />
    <glyph glyph-name="uni0DBA" unicode="&#xdba;" 
d="M351 319q24 6 67 6t78 -11q22 10 22 33t-20 35.5t-56 12.5t-63 -19.5t-28 -56.5zM71.5 52q-41.5 53 -41.5 138.5t53 142t140 56.5q10 0 28 -2v-29q-17 3 -32 3q-65 0 -106.5 -40t-41.5 -97t33 -91t81 -34t79 19.5t31 53.5v27h27v-26q0 -35 33.5 -54.5t85.5 -19.5t79.5 28
t27.5 70q0 102 -140 102q-44 0 -86 -11q-1 7 -1 22q0 59 33.5 91t89 32t85 -19.5t29.5 -56.5q0 -16 -9 -32t-28 -22q71 -43 71 -136q0 -73 -43.5 -120.5t-112.5 -47.5q-98 0 -129 72q-35 -72 -121 -72q-73 0 -114.5 53z" />
    <glyph glyph-name="uni0DBB" unicode="&#xdbb;" horiz-adv-x="528" 
d="M131 363.5q-60 -47.5 -60 -114t43 -108t122 -41.5t131.5 46.5t52.5 117.5t-44 109t-114.5 38t-130.5 -47.5zM31 213q0 145 143 205q10 4 62 23q100 36 157 79q21 16 40.5 40t33 37t27.5 13q32 0 32 -25q0 -42 -81 -86.5t-154 -64.5q80 -2 135.5 -64t55.5 -150.5
t-66.5 -154t-163.5 -65.5t-159 60t-62 153z" />
    <glyph glyph-name="uni0DBD" unicode="&#xdbd;" horiz-adv-x="670" 
d="M31 135q0 139 92 218t241 79q67 0 120 -13.5t90 -49t37 -88t-36.5 -83t-89 -30.5t-85.5 30.5t-33 82.5h-102v27h253v-27h-122v-4q0 -26 26.5 -43.5t65.5 -17.5t62.5 20.5t23.5 57.5q0 56 -54 82t-140 26q-106 0 -175 -66t-69 -171q0 -124 72.5 -196.5t188.5 -72.5
q76 0 136 44.5t60 125.5q0 10 -4 18h35v-14q0 -102 -77 -163t-186 -61q-143 0 -236.5 75t-93.5 214z" />
    <glyph glyph-name="uni0DC0" unicode="&#xdc0;" horiz-adv-x="597" 
d="M33 165q0 64 45 101.5t121 37.5h59v4q0 38 -20 61t-43.5 23t-36 -6.5t-16.5 -13t-8 -17.5q-11 -34 -40 -34q-16 0 -27 10t-11 28q0 34 30.5 53.5t74.5 19.5q64 0 97.5 -38t33.5 -104v-11h-86q-56 0 -90 -23t-34 -56t17 -53t47 -29q57 -19 124 -19q113 0 174 55.5t61 155
t-65 171t-164 71.5q-118 0 -186 -82h-33q75 107 219 107q119 0 195.5 -87.5t76.5 -213t-73.5 -201t-207.5 -75.5q-100 0 -167 40.5t-67 124.5z" />
    <glyph glyph-name="uni0DC1" unicode="&#xdc1;" horiz-adv-x="631" 
d="M515 44q12 40 12 105q-19 9 -50 9t-54.5 -22.5t-23.5 -56.5q0 -51 34 -51q13 0 33 13t32 13t17 -10zM234 432l17 -1v-24q-4 1 -13 1q-73 0 -117.5 -45.5t-44.5 -111t32.5 -109t95.5 -43.5q40 0 69.5 18.5t29.5 53.5q0 47 -43 47q-13 0 -22 -7q0 -1 -4 -19h-26
q25 240 191 240q87 0 135 -70.5t48 -165.5q0 -51 -15.5 -109.5t-37.5 -85.5h-28q5 6 5 13q0 12 -11 12q-8 0 -27.5 -14.5t-43.5 -14.5t-40.5 23.5t-16.5 54.5q0 48 32 78.5t83 30.5q26 0 43 -6q-4 71 -44 121.5t-98 50.5t-96 -30.5t-46 -80.5q9 4 21 4q37 0 59 -27t22 -82
t-39.5 -95t-111 -40t-115 59t-43.5 153t53.5 157.5t146.5 63.5z" />
    <glyph glyph-name="uni0DC2" unicode="&#xdc2;" horiz-adv-x="608" 
d="M203 208q0 -36 99.5 -36t99.5 34t-99.5 34t-99.5 -32zM354 337q0 -7 1 -11q24 3 59.5 3t72.5 -14q16 16 16 37.5t-19 36.5t-52 15t-55.5 -17.5t-22.5 -49.5zM244 325l1 11q0 27 -16 42.5t-40 15.5q-38 0 -46 -34q-9 -33 -47 -33q-16 0 -28.5 10t-12.5 28q0 32 30 50.5
t79 18.5t80 -25.5t31 -74.5q0 -19 -4 -36q-36 4 -54 4q-60 0 -99 -21.5t-39 -64.5t35 -70.5t84 -38.5t107 -11t107 11.5t83 39t34 70.5t-39 66q-40 -26 -91 -35q33 -16 33 -43q0 -59 -136 -59q-50 0 -87 14t-37 46q0 56 116 56q123 0 175 33q-31 9 -65 9t-74 -7q-3 17 -3 31
q0 51 31 78t82.5 27t79 -24t27.5 -55t-27 -51q60 -36 60 -123t-76 -133.5t-191 -46.5q-79 0 -138 16.5t-98.5 59t-39.5 109.5t47 104.5t129 37.5q11 0 37 -2z" />
    <glyph glyph-name="uni0DC3" unicode="&#xdc3;" horiz-adv-x="677" 
d="M383 310q22 6 66 6t75 -10q14 15 14 38t-19.5 34.5t-48.5 11.5q-79 0 -87 -80zM51 154q0 96 84 128q-103 -2 -130 -7v33h277v3q0 34 -20.5 58t-46.5 24q-43 0 -55 -39q-12 -32 -41 -32q-15 0 -26 9.5t-11 27.5q0 33 31 53t74 20q63 0 94.5 -38.5t31.5 -97.5v-14h-90
q-46 0 -83.5 -23.5t-37.5 -65t31.5 -68t79.5 -26.5t78 19.5t30 52.5v24h27v-24q0 -36 31 -54t82.5 -18t84.5 26.5t33 71.5q0 93 -129 93q-48 0 -97 -9v10q0 63 33.5 102t83.5 39t79.5 -20.5t29.5 -61.5q0 -15 -8.5 -30.5t-20.5 -22.5q35 -17 56.5 -53.5t21.5 -77.5
q0 -79 -46 -122.5t-122 -43.5q-96 0 -127 82q-34 -83 -130 -83q-68 0 -110 46.5t-42 108.5z" />
    <glyph glyph-name="uni0DC4" unicode="&#xdc4;" horiz-adv-x="653" 
d="M80 42q-47 43 -47 111.5t45 109t116 40.5h11q0 32 -16.5 55t-42 23t-37.5 -27q-12 -29 -40 -29q-16 0 -26 10.5t-10 32t22.5 43t62.5 21.5q57 0 88.5 -44.5t32.5 -110.5q-24 2 -34 2q-59 0 -92 -24t-33 -66.5t38 -66t88 -23.5t84.5 19t34.5 57t-30 38q-23 0 -33 -29
l-23 9q7 96 62 167.5t132.5 71.5t124.5 -64t47 -155.5t-60 -152.5t-152 -61q-20 0 -41 3v28q18 -3 36 -3q68 0 106 45t38 110.5t-35 112.5t-99 47q-99 0 -126 -111q13 8 28 8q30 0 48 -26.5t18 -67.5q0 -67 -46.5 -106.5t-119.5 -39.5t-120 43z" />
    <glyph glyph-name="uni0DC5" unicode="&#xdc5;" 
d="M31 114q0 51 25 101t70 71q4 67 42 106.5t92 39.5q66 0 89 -55q13 27 40 41t56 14q63 0 97 -45t34 -117h-349q-33 0 -58 -16q9 -65 57 -100.5t115 -35.5q116 0 158 60h29q-17 -66 -67 -100.5t-125.5 -34.5t-131 47t-72.5 124q-12 -27 -12 -60q0 -106 75 -176t190 -70
q81 0 142 45.5t63 120.5h28q0 -68 -42.5 -121t-104.5 -79.5t-128 -26.5q-136 0 -224 71t-88 196zM311.5 380q-21.5 23 -57 23t-60 -28t-27.5 -79q4 1 12 1h362q0 44 -25 75t-65 31t-63.5 -23t-23.5 -50h-31q0 27 -21.5 50z" />
    <glyph glyph-name="uni0DC6" unicode="&#xdc6;" horiz-adv-x="607" 
d="M72 63q-39 64 -39 150.5t39 152t116.5 65.5t107.5 -72q30 72 107.5 72t116.5 -65.5t39 -152t-39 -150.5t-110 -64q-20 0 -38 7v27q16 -6 33 -6q51 0 80.5 45.5t29.5 110t-25 108t-84 43.5q-42 0 -68 -23.5t-26 -73.5v-32h-32v32q0 50 -26 73.5t-68 23.5q-59 0 -84.5 -44
t-25.5 -108.5t30 -109.5t81 -45q17 0 33 6v-27q-18 -7 -38 -7q-71 0 -110 64z" />
    <glyph glyph-name="uni0DCA" unicode="&#xdca;" horiz-adv-x="2" 
d="M-113 503q16 -7 37 -7t33.5 14.5t12.5 33.5t-10.5 35t-23.5 26q-32 24 -49 33v-135zM-13.5 606.5q23.5 -23.5 23.5 -60t-22.5 -57.5t-51 -21t-49.5 10v-147l-28 17v333q16 -12 60 -31.5t67.5 -43z" />
    <glyph glyph-name="uni0DCF" unicode="&#xdcf;" horiz-adv-x="305" 
d="M15 110q0 15 1 22h27q-1 -5 -1 -15q0 -34 15 -51.5t40 -17.5q70 2 70 154.5t-70 152.5q-22 0 -38.5 -18.5t-16.5 -51.5q0 -10 1 -15h-27q-1 7 -1 22q0 50 32.5 80.5t78.5 30.5q67 0 102 -52.5t35 -149.5t-35 -149.5t-102 -52.5q-51 0 -81 30t-30 81z" />
    <glyph glyph-name="uni0DD0" unicode="&#xdd0;" horiz-adv-x="334" 
d="M3 312v27h246q-1 -3 -3 -17q-83 -124 -83 -256q0 -64 27 -104q39 -58 112 -49l4 -19q-36 -41 -100.5 -41t-100 45.5t-35.5 117.5q0 144 140 296h-207z" />
    <glyph glyph-name="uni0DD1" unicode="&#xdd1;" horiz-adv-x="336" 
d="M4 314v25h245v-22l-127 -94h150v-22q-101 -75 -101 -179q0 -59 36 -92.5t99 -33.5v-25q-41 -19 -86 -19q-68 0 -106 36.5t-38 97.5q0 112 156 212h-160v21l130 95h-198z" />
    <glyph glyph-name="uni0DD2" unicode="&#xdd2;" horiz-adv-x="2" 
d="M-545 518q0 76 67 114.5t165 38.5t165 -38.5t67 -114.5q0 -53 -40.5 -82t-102.5 -31v22q95 5 95 70q0 28 -29 45.5t-67.5 24t-87.5 6.5t-88.5 -6.5t-68.5 -24t-29 -47.5t27 -48t70 -20v-22q-62 2 -102.5 31t-40.5 82z" />
    <glyph glyph-name="uni0DD3" unicode="&#xdd3;" horiz-adv-x="2" 
d="M-587 517q0 75 73.5 114.5t177.5 39.5q139 0 213 -63q40 -35 40 -80t-29.5 -72t-71.5 -27t-70 25.5t-28 63t37 61.5q-38 7 -108 7t-131 -22.5t-61 -73t55 -63.5l-7 -21q-40 4 -65 34.5t-25 76.5zM-250 514q0 -23 19.5 -39.5t46.5 -16.5t46.5 16.5t19.5 39.5t-19.5 39.5
t-46.5 16.5t-46.5 -16.5t-19.5 -39.5z" />
    <glyph glyph-name="uni0DD4" unicode="&#xdd4;" horiz-adv-x="2" 
d="M-565.5 -210q-28.5 25 -28.5 65t29 67t71 27q70 0 95 -59l-31 -12q-16 41 -62 41q-28 0 -47.5 -17.5t-19.5 -44.5q0 -53 85 -53h384v324l34 91v-454h-429q-52 0 -80.5 25z" />
    <glyph glyph-name="uni0DD6" unicode="&#xdd6;" horiz-adv-x="2" 
d="M-549 -217.5q-33 25.5 -33 70.5t30.5 73t71.5 28q64 0 97 -51l-31 -11q-22 33 -56 33t-53.5 -16t-19.5 -41t19.5 -40t53.5 -15t119.5 32.5t137.5 32.5q78 0 121 -51v319l34 60v-443h-24q-14 32 -47 59t-78 27t-129.5 -46t-132 -46t-80.5 25.5z" />
    <glyph glyph-name="uni0DD8" unicode="&#xdd8;" horiz-adv-x="313" 
d="M182 115l1 70v9q-34 0 -60 -9q-60 -18 -60 -78q0 -30 17.5 -54t44.5 -24t53 13q6 0 9 -1q-5 13 -5 74zM33 249q0 63 28.5 103.5t87 40.5t88.5 -53.5t30 -136.5q0 -33 -8.5 -101t-8.5 -80.5t1 -18.5h-49q-5 14 -15 14q-3 0 -23 -9t-39 -9q-42 0 -67 33t-25 74q0 72 66 100
q36 15 84 15q0 130 -57 130q-33 0 -50.5 -28.5t-17.5 -76.5v-4h-25v7z" />
    <glyph glyph-name="uni0DD9" unicode="&#xdd9;" horiz-adv-x="621" 
d="M99.5 58.5q-66.5 58.5 -66.5 155t79.5 157.5t190 61t191.5 -63.5t90 -162.5h-30q-13 87 -84.5 142t-164 55t-155 -43t-62.5 -109t51 -109.5t126.5 -43.5t124.5 29.5t49 84.5q0 33 -24.5 57.5t-61.5 31.5q20 -18 20 -49t-26.5 -51.5t-61.5 -20.5t-62 22t-27 55.5
t29.5 55.5t72.5 22q83 0 138 -43t55 -119.5t-58.5 -124.5t-162.5 -48t-170.5 58.5zM246 290.5q-16 -13.5 -16 -33t16 -33t38.5 -13.5t38.5 14t16 33t-16.5 32.5t-38.5 13.5t-38 -13.5z" />
    <glyph glyph-name="uni0DDA" unicode="&#xdda;" horiz-adv-x="1017" 
d="M99.5 58.5q-66.5 58.5 -66.5 155t79.5 157.5t190 61t191.5 -63.5t90 -162.5h-30q-13 87 -84.5 142t-164 55t-155 -43t-62.5 -109t51 -109.5t126.5 -43.5t124.5 29.5t49 84.5q0 33 -24.5 57.5t-61.5 31.5q20 -18 20 -49t-26.5 -51.5t-61.5 -20.5t-62 22t-27 55.5
t29.5 55.5t72.5 22q83 0 138 -43t55 -119.5t-58.5 -124.5t-162.5 -48t-170.5 58.5zM246 290.5q-16 -13.5 -16 -33t16 -33t38.5 -13.5t38.5 14t16 33t-16.5 32.5t-38.5 13.5t-38 -13.5zM860 503q16 -7 37 -7t33.5 14.5t12.5 33.5t-10.5 35t-23.5 26q-32 24 -49 33v-135z
M959.5 606.5q23.5 -23.5 23.5 -60t-22.5 -57.5t-51 -21t-49.5 10v-147l-28 17v333q16 -12 60 -31.5t67.5 -43z" />
    <glyph glyph-name="uni0DDB" unicode="&#xddb;" horiz-adv-x="1209" 
d="M99.5 58.5q-66.5 58.5 -66.5 155t79.5 157.5t190 61t191.5 -63.5t90 -162.5h-30q-13 87 -84.5 142t-164 55t-155 -43t-62.5 -109t51 -109.5t126.5 -43.5t124.5 29.5t49 84.5q0 33 -24.5 57.5t-61.5 31.5q20 -18 20 -49t-26.5 -51.5t-61.5 -20.5t-62 22t-27 55.5
t29.5 55.5t72.5 22q83 0 138 -43t55 -119.5t-58.5 -124.5t-162.5 -48t-170.5 58.5zM246 290.5q-16 -13.5 -16 -33t16 -33t38.5 -13.5t38.5 14t16 33t-16.5 32.5t-38.5 13.5t-38 -13.5zM685.5 58.5q-66.5 58.5 -66.5 155t79.5 157.5t190 61t191.5 -63.5t90 -162.5h-30
q-13 87 -84.5 142t-164 55t-155 -43t-62.5 -109t51 -109.5t126.5 -43.5t124.5 29.5t49 84.5q0 33 -24.5 57.5t-61.5 31.5q20 -18 20 -49t-26.5 -51.5t-61.5 -20.5t-62 22t-27 55.5t29.5 55.5t72.5 22q83 0 138 -43t55 -119.5t-58.5 -124.5t-162.5 -48t-170.5 58.5z
M832 290.5q-16 -13.5 -16 -33t16 -33t38.5 -13.5t38.5 14t16 33t-16.5 32.5t-38.5 13.5t-38 -13.5z" />
    <glyph glyph-name="uni0DDC" unicode="&#xddc;" horiz-adv-x="1042" 
d="M99.5 58.5q-66.5 58.5 -66.5 155t79.5 157.5t190 61t191.5 -63.5t90 -162.5h-30q-13 87 -84.5 142t-164 55t-155 -43t-62.5 -109t51 -109.5t126.5 -43.5t124.5 29.5t49 84.5q0 33 -24.5 57.5t-61.5 31.5q20 -18 20 -49t-26.5 -51.5t-61.5 -20.5t-62 22t-27 55.5
t29.5 55.5t72.5 22q83 0 138 -43t55 -119.5t-58.5 -124.5t-162.5 -48t-170.5 58.5zM246 290.5q-16 -13.5 -16 -33t16 -33t38.5 -13.5t38.5 14t16 33t-16.5 32.5t-38.5 13.5t-38 -13.5zM754 110q0 15 1 22h27q-1 -5 -1 -15q0 -34 15 -51.5t40 -17.5q70 2 70 154.5t-70 152.5
q-22 0 -38.5 -18.5t-16.5 -51.5q0 -10 1 -15h-27q-1 7 -1 22q0 50 32.5 80.5t78.5 30.5q67 0 102 -52.5t35 -149.5t-35 -149.5t-102 -52.5q-51 0 -81 30t-30 81z" />
    <glyph glyph-name="uni0DDD" unicode="&#xddd;" horiz-adv-x="1051" 
d="M99.5 58.5q-66.5 58.5 -66.5 155t79.5 157.5t190 61t191.5 -63.5t90 -162.5h-30q-13 87 -84.5 142t-164 55t-155 -43t-62.5 -109t51 -109.5t126.5 -43.5t124.5 29.5t49 84.5q0 33 -24.5 57.5t-61.5 31.5q20 -18 20 -49t-26.5 -51.5t-61.5 -20.5t-62 22t-27 55.5
t29.5 55.5t72.5 22q83 0 138 -43t55 -119.5t-58.5 -124.5t-162.5 -48t-170.5 58.5zM246 290.5q-16 -13.5 -16 -33t16 -33t38.5 -13.5t38.5 14t16 33t-16.5 32.5t-38.5 13.5t-38 -13.5zM914 515q16 -7 37 -7t33.5 14.5t12.5 33.5t-10.5 35t-23.5 26q-32 24 -49 33v-135z
M748 110q0 15 1 22h27q-1 -5 -1 -15q0 -34 15 -51.5t40 -17.5q70 2 70 154.5t-70 152.5q-22 0 -38.5 -18.5t-16.5 -51.5q0 -10 1 -15h-27q-1 7 -1 22q0 50 32.5 80.5t78.5 30.5q9 0 27 -2v292q16 -12 60 -31.5t67.5 -43t23.5 -60t-22.5 -57.5t-51 -21t-49.5 10v-98
q82 -37 82 -191q0 -97 -35 -149.5t-102 -52.5q-51 0 -81 30t-30 81z" />
    <glyph glyph-name="uni0DDE" unicode="&#xdde;" horiz-adv-x="1326" 
d="M99.5 58.5q-66.5 58.5 -66.5 155t79.5 157.5t190 61t191.5 -63.5t90 -162.5h-30q-13 87 -84.5 142t-164 55t-155 -43t-62.5 -109t51 -109.5t126.5 -43.5t124.5 29.5t49 84.5q0 33 -24.5 57.5t-61.5 31.5q20 -18 20 -49t-26.5 -51.5t-61.5 -20.5t-62 22t-27 55.5
t29.5 55.5t72.5 22q83 0 138 -43t55 -119.5t-58.5 -124.5t-162.5 -48t-170.5 58.5zM246 290.5q-16 -13.5 -16 -33t16 -33t38.5 -13.5t38.5 14t16 33t-16.5 32.5t-38.5 13.5t-38 -13.5zM959.5 243.5q-26.5 31.5 -26.5 87t37 97.5h35q-42 -34 -42 -106q0 -35 17.5 -58t43 -23
t38 13.5t12.5 37t-20 45.5q-1 5 -1 12q0 38 25 60.5t71 22.5q75 0 109.5 -63.5t34.5 -154.5t-38 -153.5t-115 -62.5q-55 0 -84 34.5t-29 87.5q0 20 4 37h26q-3 -17 -3 -32q0 -39 18.5 -61.5t52.5 -22.5q69 0 69 197q0 162 -66 162q-47 0 -47 -49v-7q37 -20 37 -56t-24.5 -56
t-66 -20t-68 31.5z" />
    <glyph glyph-name="uni0DDF" unicode="&#xddf;" horiz-adv-x="441" 
d="M59.5 243.5q-26.5 31.5 -26.5 87t37 97.5h35q-42 -34 -42 -106q0 -35 17.5 -58t43 -23t38 13.5t12.5 37t-20 45.5q-1 5 -1 12q0 38 25 60.5t71 22.5q75 0 109.5 -63.5t34.5 -154.5t-38 -153.5t-115 -62.5q-55 0 -84 34.5t-29 87.5q0 20 4 37h26q-3 -16 -3 -32
q0 -39 18.5 -61.5t52.5 -22.5q69 0 69 197q0 162 -66 162q-47 0 -47 -49v-7q37 -20 37 -56t-24.5 -56t-66 -20t-68 31.5z" />
    <glyph glyph-name="uni0DF2" unicode="&#xdf2;" horiz-adv-x="571" 
d="M182 115l1 70v9q-34 0 -60 -9q-60 -18 -60 -78q0 -30 17.5 -54t44.5 -24t53 13q6 0 9 -1q-5 13 -5 74zM33 249q0 63 28.5 103.5t87 40.5t88.5 -53.5t30 -136.5q0 -33 -8.5 -101t-8.5 -80.5t1 -18.5h-49q-5 14 -15 14q-3 0 -23 -9t-39 -9q-42 0 -67 33t-25 74q0 72 66 100
q36 15 84 15q0 130 -57 130q-33 0 -50.5 -28.5t-17.5 -76.5v-4h-25v7zM439 115l1 70v9q-34 0 -60 -9q-60 -18 -60 -78q0 -30 17.5 -54t44.5 -24t53 13q6 0 9 -1q-5 12 -5 74zM290 249q0 63 28.5 103.5t87 40.5t88.5 -53.5t30 -136.5q0 -33 -8.5 -101t-8.5 -80.5t1 -18.5h-49
q-5 14 -15 14q-4 0 -24 -9t-38 -9q-42 0 -67 33t-25 74q0 72 66 100q36 15 84 15q0 130 -57 130q-33 0 -50.5 -28.5t-17.5 -76.5v-4h-25v7z" />
    <glyph glyph-name="uni0DF3" unicode="&#xdf3;" horiz-adv-x="441" 
d="M59.5 243.5q-26.5 31.5 -26.5 87t37 97.5h35q-42 -34 -42 -106q0 -35 17.5 -58t43 -23t38 13.5t12.5 37t-20 45.5q-1 5 -1 12q0 38 25 60.5t71 22.5q75 0 109.5 -63.5t34.5 -154.5t-38 -153.5t-115 -62.5q-55 0 -84 34.5t-29 87.5q0 20 4 37h26q-3 -16 -3 -32
q0 -39 18.5 -61.5t52.5 -22.5q69 0 69 197q0 162 -66 162q-47 0 -47 -49v-7q37 -20 37 -56t-24.5 -56t-66 -20t-68 31.5z" />
    <glyph glyph-name="uni0DF4" unicode="&#xdf4;" horiz-adv-x="1742" 
d="M361 56q-18 33 -39.5 33t-46 -14t-43.5 -31.5t-48 -31.5t-59.5 -14t-52 19t-21.5 48.5t16 47t40.5 17.5t39 -16.5t14.5 -40.5t-16 -38q4 -4 13 -4q28 0 90 52t87 52t36 -18l81 141l36 -99l126 169l30 -122l137 158l31 -149l148 169l14 -193l175 162l-24 -194l165 106
l-33 -141l144 91l-31 -88q14 8 31 8q27 0 87.5 -52t89.5 -52q11 0 15 4q-17 14 -17 38t15 40.5t39.5 16.5t40.5 -17.5t16 -47t-22 -48.5t-56.5 -19t-71 23.5t-70 47t-62.5 23.5q-51 0 -116 -49l26 91l-149 -92l29 134l-154 -101l17 164l-158 -149l-13 175l-134 -147l-31 144
l-130 -147l-28 112l-112 -150l-30 86z" />
    <glyph glyph-name="uni200C" unicode="&#x200c;" horiz-adv-x="0" 
d="M-28 1v768h56v-768h-56z" />
    <glyph glyph-name="uni200D" unicode="&#x200d;" horiz-adv-x="0" 
d="M28 2h-56v588l-96 -96l-39 38l125 123l-125 122l39 38l124 -124l124 124l39 -38l-125 -122l125 -123l-39 -38l-96 96v-588z" />
    <glyph glyph-name="endash" unicode="&#x2013;" horiz-adv-x="651" 
d="M80 198v42h492v-42h-492z" />
    <glyph glyph-name="emdash" unicode="&#x2014;" horiz-adv-x="851" 
d="M80 198v42h692v-42h-692z" />
    <glyph glyph-name="quoteleft" unicode="&#x2018;" horiz-adv-x="191" 
d="M137.5 533.5q13.5 -14.5 13.5 -38t-16.5 -40.5t-43 -17t-43 20t-16.5 53q0 78 69 149l21 -15q-42 -44 -42 -72q0 -15 22 -20t35.5 -19.5z" />
    <glyph glyph-name="quoteright" unicode="&#x2019;" horiz-adv-x="211" 
d="M159 581q0 -78 -69 -149l-21 16q42 44 42 72q0 16 -21.5 20t-35.5 19t-14 38t16.5 40t43 17t43 -20t16.5 -53z" />
    <glyph glyph-name="quotesinglbase" unicode="&#x201a;" horiz-adv-x="169" 
d="M143 46q0 -68 -56 -132l-21 14q31 36 31 59q0 13 -21.5 18.5t-34.5 19.5t-13 37t16 38.5t40.5 15.5t41.5 -19t17 -51z" />
    <glyph glyph-name="quotedblleft" unicode="&#x201c;" horiz-adv-x="313" 
d="M171 511q0 75 67 145l21 -15q-41 -41 -41 -70q0 -15 21 -19.5t34.5 -19t13.5 -37t-16 -39.5t-42 -17t-42 20t-16 52zM29 511q0 75 67 145l21 -15q-42 -42 -42 -70q0 -15 21.5 -19.5t35 -19t13.5 -37t-16 -39.5t-42 -17t-42 20t-16 52z" />
    <glyph glyph-name="quotedblright" unicode="&#x201d;" horiz-adv-x="318" 
d="M145 560q0 -75 -67 -145l-21 15q41 41 41 70q0 15 -21 19.5t-34.5 19t-13.5 37t16 39.5t42 17t42 -20t16 -52zM287 560q0 -75 -67 -145l-21 15q42 42 42 70q0 15 -21.5 19.5t-35 19t-13.5 37t16 39.5t42 17t42 -20t16 -52z" />
    <glyph glyph-name="quotedblbase" unicode="&#x201e;" horiz-adv-x="316" 
d="M145 45q0 -75 -67 -145l-21 15q41 41 41 70q0 15 -21 19.5t-34.5 19t-13.5 37t16 39.5t42 17t42 -20t16 -52zM287 45q0 -75 -67 -145l-21 15q42 42 42 70q0 15 -21.5 19.5t-35 19t-13.5 37t16 39.5t42 17t42 -20t16 -52z" />
    <glyph glyph-name="dagger" unicode="&#x2020;" horiz-adv-x="464" 
d="M232 329q47 0 47 -45q0 -12 -14 -109t-20 -254h-26q-5 158 -20 255t-15 112.5t13 28t35 12.5zM189 511q0 38 42.5 38t42.5 -37q0 -14 -13 -59.5t-17 -73.5q28 4 74 17t61.5 13t25.5 -11.5t10 -30.5q0 -40 -37 -40q-14 0 -65.5 14t-81.5 17q-32 -4 -81.5 -17.5
t-62.5 -13.5q-38 0 -38 41t37 41q13 0 59 -13t75 -17q-4 29 -17.5 73.5t-13.5 58.5z" />
    <glyph glyph-name="daggerdbl" unicode="&#x2021;" horiz-adv-x="460" 
d="M287 240q0 -24 -17 -40.5t-40 -16.5t-39.5 16.5t-16.5 40.5t16.5 41t39.5 17t40 -17t17 -41zM272 -30q0 -38 -42 -38t-42 37q0 14 13 60t17 73q-29 -4 -74.5 -17t-58.5 -13q-38 0 -38 41t37 41q14 0 65.5 -14t81.5 -17q32 4 81 17.5t63 13.5q38 0 38 -41t-37 -41
q-13 0 -59.5 13t-74.5 17q4 -29 17 -73.5t13 -58.5zM187 511q0 38 42.5 38t42.5 -37q0 -14 -13 -59.5t-17 -73.5q28 4 74 17t61.5 13t25.5 -11.5t10 -30.5q0 -40 -37 -40q-14 0 -65.5 14t-81.5 17q-32 -4 -81.5 -17.5t-62.5 -13.5q-38 0 -38 41t37 41q14 0 59.5 -13
t74.5 -17q-4 29 -17.5 73.5t-13.5 58.5z" />
    <glyph glyph-name="bullet" unicode="&#x2022;" horiz-adv-x="359" 
d="M248 297.5q29 -28.5 29 -69t-29 -69t-69.5 -28.5t-68.5 28.5t-28 69t28 69t68.5 28.5t69.5 -28.5z" />
    <glyph glyph-name="ellipsis" unicode="&#x2026;" horiz-adv-x="598" 
d="M166 54q0 -25 -17.5 -42t-42 -17t-41.5 17t-17 42t17 42.5t41.5 17.5t42 -17.5t17.5 -42.5zM557 54q0 -25 -17.5 -42t-42 -17t-41.5 17t-17 42t17 42.5t41.5 17.5t42 -17.5t17.5 -42.5zM362 54q0 -25 -17.5 -42t-42 -17t-41.5 17t-17 42t17 42.5t41.5 17.5t42 -17.5
t17.5 -42.5z" />
    <glyph glyph-name="perthousand" unicode="&#x2030;" horiz-adv-x="393" 
d="M684 44.5q16 -34.5 52 -34.5t52 36.5t16 117t-16 114t-52.5 33.5t-52 -34.5t-15.5 -116t16 -116zM738 332q71 0 115 -45.5t44 -124.5t-45.5 -125.5t-116 -46.5t-115 46.5t-44.5 125t45.5 124.5t116.5 46zM302 27q14 -17 46 -17q63 0 63 153q0 81 -16 114.5t-52 33.5
q-25 0 -40 -15q54 -46 54 -133t-55 -136zM197 10q23 0 40 18q-54 46 -54 132.5t54 133.5q-14 17 -46 17t-47.5 -34.5t-15.5 -116t16 -116t53 -34.5zM115 311q36 21 80.5 21t76.5 -16q31 16 73 16q71 0 115 -45.5t44 -124.5t-45.5 -125.5t-116.5 -46.5q-41 0 -73 16
q-35 -16 -74 -16q-70 0 -114.5 46.5t-44.5 126.5q0 19 3 36l-156 -230l-33 21l435 641l32 -21z" />
    <glyph glyph-name="guilsinglleft" unicode="&#x2039;" horiz-adv-x="253" 
d="M119 205q91 -140 113 -173l-19 -17q-31 33 -100 89.5t-80.5 69t-11.5 30t12 31t80 70.5t97 90l21 -17z" />
    <glyph glyph-name="guilsinglright" unicode="&#x203a;" horiz-adv-x="253" 
d="M134 205l-112 173l21 17q29 -33 97 -90t80 -70.5t12 -31t-11.5 -30t-80.5 -69t-100 -89.5l-19 17q22 33 113 173z" />
    <glyph glyph-name="fraction" unicode="&#x2044;" horiz-adv-x="147" 
d="M-117 -31l-33 21l435 641l32 -21z" />
    <glyph glyph-name="Euro" unicode="&#x20ac;" horiz-adv-x="609" 
d="M564 106q0 -44 -53.5 -80t-164 -36t-180 74t-81.5 186h-77l9 29h66v15q0 23 1 35h-76l9 29h71q17 111 89.5 181.5t197.5 70.5q83 0 136 -33.5t53 -78.5q0 -25 -13.5 -40t-40 -15t-40.5 14t-18 34.5t-10 41t-26.5 34.5t-58.5 14q-70 0 -106 -52.5t-43 -170.5h239l-9 -29
h-232v-50h221l-9 -29h-211q11 -231 140 -231q39 0 60.5 14t28.5 34.5t12 40.5q14 49 63 49q24 0 38.5 -14.5t14.5 -36.5z" />
    <glyph glyph-name="uni20BA" unicode="&#x20ba;" horiz-adv-x="576" 
d="M245 0h-192v26h77v248l-101 -37v30l101 37v51l-101 -37v30l101 38v188h-77v26h262v-26h-78v-149l203 76v-31l-203 -75v-51l203 75v-31l-203 -75v-287h14q55 0 90.5 15t50 39t20.5 53t6.5 58.5t3.5 53.5q5 54 53 54q53 0 53 -77q0 -74 -64 -144q-32 -34 -89 -56t-130 -22z
" />
    <glyph glyph-name="uni20BD" unicode="&#x20bd;" horiz-adv-x="582" 
d="M306 574h-89v-280h77q127 0 127 142q0 61 -28 99.5t-87 38.5zM337 0h-308v26h81v160h-81v29h81v50h-81v29h81v280h-81v26h312q96 0 146.5 -44.5t50.5 -120t-59.5 -123t-175.5 -47.5h-86v-50h147v-29h-147v-160h96q15 0 19.5 -5t4.5 -21z" />
    <glyph glyph-name="uni2113" unicode="&#x2113;" horiz-adv-x="380" 
d="M166 392v-141q61 31 75 65t14 98.5t-9 88.5t-33.5 24t-35.5 -29.5t-11 -105.5zM20 192q24 9 51 18v183q0 77 39.5 118.5t101 41.5t100 -34.5t38.5 -96.5t-44.5 -110.5t-139.5 -92.5v-57q0 -77 16 -111t52 -34q56 0 88 86l23 -9q-32 -107 -134 -107q-140 0 -140 194
q-14 -6 -44 -16z" />
    <glyph glyph-name="trademark" unicode="&#x2122;" horiz-adv-x="575" 
d="M296 377h17q14 0 14 -15h-76v15h26v209h-26v14h72l82 -164l64 164h87v-14h-25v-209h11q14 0 14 -15h-114v15h28v179l-76 -198h-13l-85 160v-141zM194 362h-137v15h35v209h-3q-18 0 -23 -5t-7 -6t-4 -5.5t-3 -5.5q-5 -11 -5 -13l-14 -36h-14l2 85h209l2 -85h-15
q-17 47 -20 52.5t-12 12t-23 6.5h-4v-209h22q14 0 14 -15z" />
    <glyph glyph-name="Omega" unicode="&#x2126;" horiz-adv-x="695" 
d="M621 329q0 -82 -43.5 -151.5t-121.5 -104.5h88q32 0 48 9t25 38l15 52h21l-1 -172h-253v66q52 28 76.5 102.5t24.5 168.5q0 252 -151 252q-55 0 -91.5 -35t-50.5 -88t-14 -135t25.5 -159t77.5 -106v-66h-253l-2 172h21l16 -52q9 -29 24.5 -38t47.5 -9h95q-82 37 -127 107
t-45 152q0 119 74 200.5t204 81.5t200 -82t70 -203z" />
    <glyph glyph-name="estimated" unicode="&#x212e;" horiz-adv-x="747" 
d="M570 561q-74 59 -189 59t-195 -72v-180h384v193zM382 20q72 0 141.5 28t116.5 76l24 -22q-55 -54 -130.5 -83t-154.5 -29q-145 0 -239 91.5t-94 231t90.5 238.5t251.5 99q128 0 222 -78q46 -38 73.5 -99t27.5 -137h-525v-245q80 -71 196 -71z" />
    <glyph glyph-name="partialdiff" unicode="&#x2202;" horiz-adv-x="523" 
d="M141 141q0 -63 21 -94.5t58 -31.5q53 0 91 60t38 150q0 61 -23 96t-63 35q-51 0 -86.5 -56.5t-35.5 -158.5zM477 355q0 -150 -71.5 -257.5t-194.5 -107.5q-79 0 -127 47.5t-48 121.5q0 98 62 161t155 63q74 0 121 -57q8 43 8 77q0 84 -33.5 131t-88.5 47t-117 -39l-16 26
q71 42 140 42q96 0 153 -69t57 -186z" />
    <glyph glyph-name="Delta" unicode="&#x2206;" horiz-adv-x="541" 
d="M400 62l-167 417l-161 -417h328zM539 0h-536l235 600h52z" />
    <glyph glyph-name="product" unicode="&#x220f;" horiz-adv-x="594" 
d="M264 -130h-251v26h77v678h-77v26h569v-26h-81v-678h56q15 0 20 -5t5 -21h-251v26h63v678h-196v-678h42q15 0 19.5 -5t4.5 -21z" />
    <glyph glyph-name="summation" unicode="&#x2211;" horiz-adv-x="472" 
d="M465 -130h-460v50l251 302l-251 356v22h462l-12 -169h-21l-15 50q-16 55 -40 73.5t-76 18.5h-172l211 -301h1l-266 -319h245q47 0 69.5 11t31.5 41l19 62h23v-197z" />
    <glyph glyph-name="minus" unicode="&#x2212;" horiz-adv-x="460" 
d="M422 215h-383v38h383v-38z" />
    <glyph glyph-name="uni2215" unicode="&#x2215;" horiz-adv-x="147" 
d="M-117 -31l-33 21l435 641l32 -21z" />
    <glyph glyph-name="uni2219" unicode="&#x2219;" horiz-adv-x="359" 
d="M248 297.5q29 -28.5 29 -69t-29 -69t-69.5 -28.5t-68.5 28.5t-28 69t28 69t68.5 28.5t69.5 -28.5z" />
    <glyph glyph-name="radical" unicode="&#x221a;" horiz-adv-x="449" 
d="M254 -5q-30 0 -45.5 13.5t-28.5 56.5l-96 307l-86 -37l-10 27l174 75l108 -356l167 649l37 -8l-187 -727h-33z" />
    <glyph glyph-name="infinity" unicode="&#x221e;" horiz-adv-x="682" 
d="M514 206q46 0 71.5 29.5t25.5 71t-25 70.5t-72 29q-27 0 -55 -16.5t-46.5 -35t-47.5 -52.5q73 -96 149 -96zM168 210q27 0 55 16t46 34.5t47 52.5q-74 97 -148 97q-46 0 -72 -29.5t-26 -71t25.5 -70.5t72.5 -29zM514 171q-86 0 -169 108q-44 -51 -84 -79.5t-97.5 -28.5
t-93.5 40.5t-36 96t36 96.5t98 41q84 0 168 -109q46 53 85.5 81t97 28t93.5 -40.5t36 -96t-36 -96.5t-98 -41z" />
    <glyph glyph-name="integral" unicode="&#x222b;" horiz-adv-x="372" 
d="M237.5 342.5q12.5 -154.5 12.5 -269.5t-23 -205t-59 -122.5t-87.5 -32.5t-80 25t-28.5 54.5t13.5 44t39.5 14.5t38 -18t11 -39q-3 -57 29 -57q49 0 49 150q0 68 -11 228.5t-11 251.5t12 161t35 107t50.5 52t72 15t72.5 -25t28 -61q0 -21 -13.5 -35.5t-39 -14.5t-38 17
t-13.5 38q-3 55 -30 55q-41 0 -41 -103q0 -76 12.5 -230.5z" />
    <glyph glyph-name="approxequal" unicode="&#x2248;" horiz-adv-x="490" 
d="M81.5 190q33.5 34 76 34t105 -34.5t88.5 -34.5q53 0 78 70l25 -7q-10 -59 -42.5 -92.5t-74 -33.5t-106.5 34t-93 34q-53 0 -77 -71l-25 7q12 60 45.5 94zM81.5 352.5q33.5 33.5 76 33.5t105 -34.5t88.5 -34.5q53 0 78 71l25 -7q-10 -60 -42.5 -93.5t-74 -33.5t-106.5 34
t-93 34q-53 0 -77 -70l-25 7q12 60 45.5 93.5z" />
    <glyph glyph-name="notequal" unicode="&#x2260;" horiz-adv-x="460" 
d="M422 160h-204l-45 -115h-36l45 115h-143v38h158l29 72h-187v38h202l48 122h36l-48 -122h145v-38h-160l-29 -72h189v-38z" />
    <glyph glyph-name="lessequal" unicode="&#x2264;" horiz-adv-x="457" 
d="M412 45h-373v36h373v-36zM415 157l-13 -35l-363 125v30l364 127l13 -33l-311 -107z" />
    <glyph glyph-name="greaterequal" unicode="&#x2265;" horiz-adv-x="459" 
d="M417 45h-372v36h372v-36zM416 249l-364 -127l-13 33l311 107l-310 107l13 35l363 -125v-30z" />
    <glyph glyph-name="lozenge" unicode="&#x25ca;" horiz-adv-x="560" 
d="M479 252l-198 300l-201 -300l200 -300zM264 599h34l230 -347l-231 -347h-34l-231 347z" />
    <glyph glyph-name="uni25CC" unicode="&#x25cc;" horiz-adv-x="558" 
d="M421 409q28 0 26 -25.5t-27 -25.5q-28 0 -26 25.5t27 25.5zM464 343q28 0 26 -26.5t-27 -26.5q-28 0 -26 26.5t27 26.5zM355 401q-28 0 -26 26.5t28 26.5t24 -26q0 -27 -26 -27zM450 240q0 26 27.5 26t25.5 -26t-26 -26q-27 0 -27 26zM278 469q27 0 25 -26.5t-26 -26.5
q-27 0 -25 26.5t26 26.5zM461 190q28 0 26 -26.5t-29 -26.5t-24 27q2 26 27 26zM200 401q-28 0 -26 26.5t28 26.5t24 -26q0 -27 -26 -27zM416 122q27 0 25 -26t-26 -26q-28 0 -25 26q2 26 26 26zM135 409q28 0 25 -25q-2 -26 -28 -26t-24 25.5t27 25.5zM323 53q0 26 27 26
t25 -26t-27 -26q-28 0 -25 26zM90 290q-29 0 -27 26.5t28 26.5t23.5 -26.5t-24.5 -26.5zM46 240q0 26 27 26t25 -26t-26 -26q-28 0 -26 26zM270 63q27 0 25 -26t-26 -26q-27 0 -25 26t26 26zM168 53q0 26 27 26t25 -26t-27 -26q-28 0 -25 26zM86 190q27 0 25 -26.5
t-26 -26.5q-27 0 -25 26.5t26 26.5zM129 70q-29 0 -27 26t27 26q28 0 26 -26t-26 -26z" />
    <glyph glyph-name="uniF6C3" unicode="&#xf6c3;" horiz-adv-x="500" 
d="M313 -113q0 -81 -73 -157l-22 16q45 49 45 77q0 16 -23 20.5t-38 20t-15 40t17.5 42.5t45.5 18t45.5 -21.5t17.5 -55.5z" />
    <glyph glyph-name="uF0001" unicode="&#xf0001;" horiz-adv-x="0" 
 />
    <glyph glyph-name="uF0002" unicode="&#xf0002;" horiz-adv-x="333" 
 />
    <glyph glyph-name="uF01A2" unicode="&#xf01a2;" horiz-adv-x="544" 
d="M186 268q0 55 -28 96t-74 41q-25 0 -49 -11v28q19 10 51 10q56 0 93 -46.5t37 -121t-40 -140.5q48 -29 115 -29t108 29.5t41 77.5q0 34 -25.5 55.5t-70.5 21.5q-95 0 -95 73q0 37 30 58.5t76.5 21.5t76 -24t29.5 -67q0 -6 -2 -20h-32q2 6 2 18q0 31 -20.5 48.5t-52 17.5
t-54 -13.5t-22.5 -38.5q0 -47 65.5 -47t108.5 -35t43 -106.5t-53.5 -118t-117 -46.5t-104 18.5t-75.5 64.5q-54 -61 -118 -82l-17 21q76 32 125 94.5t49 151.5z" />
    <glyph glyph-name="uF01A3" unicode="&#xf01a3;" horiz-adv-x="544" 
d="M186 268q0 55 -28 96t-74 41q-25 0 -49 -11v28q19 10 51 10q56 0 93 -46.5t37 -121t-40 -140.5q48 -29 115 -29t108 29.5t41 77.5q0 34 -25.5 55.5t-70.5 21.5q-95 0 -95 73q0 35 27 56.5t70 23.5v248q16 -12 59.5 -31.5t67 -43t23.5 -60.5t-22.5 -57.5t-50.5 -20.5
t-49 10v-46q39 -5 63 -28.5t24 -61.5q0 -6 -2 -20h-32q2 6 2 18q0 31 -20.5 48.5t-52 17.5t-54 -13.5t-22.5 -38.5q0 -47 65.5 -47t108.5 -35t43 -106.5t-53.5 -118t-117 -46.5t-104 18.5t-75.5 64.5q-54 -61 -118 -82l-17 21q76 32 125 94.5t49 151.5zM374 503q11 -7 34 -7
t35.5 14t12.5 27.5t-1 19.5t-4.5 12t-5.5 10.5t-8.5 10.5t-9 9t-12 9.5t-12.5 8.5t-14.5 10t-14.5 10v-134z" />
    <glyph glyph-name="uF01A4" unicode="&#xf01a4;" horiz-adv-x="544" 
d="M186 268q0 55 -28 96t-74 41q-25 0 -49 -11v28q19 10 51 10q56 0 93 -46.5t37 -121t-40 -140.5q48 -29 115 -29t108 29.5t41 77.5q0 34 -25.5 55.5t-70.5 21.5q-95 0 -95 73q0 37 30 58.5t76.5 21.5t76 -24t29.5 -67q0 -6 -2 -20h-32q2 6 2 18q0 31 -20.5 48.5t-52 17.5
t-54 -13.5t-22.5 -38.5q0 -47 65.5 -47t108.5 -35t43 -106.5t-53.5 -118t-117 -46.5t-104 18.5t-75.5 64.5q-54 -61 -118 -82l-17 21q76 32 125 94.5t49 151.5zM151 464.5q-35 22.5 -35 66t38.5 70.5t100 27t102 -31t40.5 -83q0 -37 -25 -65h-35q29 27 29 66t-31.5 62.5
t-77.5 23.5t-77.5 -19t-31.5 -50t21 -46.5t41 -17.5q-19 14 -19 40.5t19.5 43.5t48.5 17t48.5 -17.5t19.5 -46t-25 -46t-70.5 -17.5t-80.5 22.5zM230 534.5q-12 -10.5 -12 -26t12 -26t29 -10.5t29 10.5t12 26t-12 26t-29 10.5t-29 -10.5z" />
    <glyph glyph-name="uF01A5" unicode="&#xf01a5;" horiz-adv-x="544" 
d="M48 -207q-27 28 -27 66t30 64.5t66.5 26.5t62.5 -16.5t37 -43.5l-31 -12q-6 16 -23 28.5t-42.5 12.5t-45 -18t-19.5 -43q0 -54 90 -54h301v246q-52 -50 -118 -50t-106.5 18.5t-75.5 64.5q-54 -61 -118 -82l-17 21q76 32 125 94.5t49 151.5q0 55 -28 96t-74 41
q-25 0 -49 -11v28q19 10 51 10q56 0 93 -46.5t37 -121t-40 -140.5q48 -29 115 -29t108 29.5t41 77.5q0 34 -25.5 55.5t-70.5 21.5q-95 0 -95 73q0 37 30 58.5t76.5 21.5t76 -24t29.5 -67q0 -6 -2 -20h-32q2 6 2 18q0 31 -20.5 48.5t-52 17.5t-54 -13.5t-22.5 -38.5
q0 -47 65.5 -47t108.5 -35t43 -107q0 -35 -16 -69v-330h-354q-52 0 -79 28zM151 464.5q-35 22.5 -35 66t38.5 70.5t100 27t102 -31t40.5 -83q0 -37 -25 -65h-35q29 27 29 66t-31.5 62.5t-77.5 23.5t-77.5 -19t-31.5 -50t21 -46.5t41 -17.5q-19 14 -19 40.5t19.5 43.5
t48.5 17t48.5 -17.5t19.5 -46t-25 -46t-70.5 -17.5t-80.5 22.5zM230 534.5q-12 -10.5 -12 -26t12 -26t29 -10.5t29 10.5t12 26t-12 26t-29 10.5t-29 -10.5z" />
    <glyph glyph-name="uF01A6" unicode="&#xf01a6;" horiz-adv-x="544" 
d="M51 -211.5q-33 25.5 -33 70.5t30.5 73t71.5 28q64 0 97 -51l-31 -11q-22 33 -56 33t-54 -16t-20 -41t20 -40t54 -15t98 32.5t112 32.5q71 0 111 -48v218q-54 -54 -121 -54t-107.5 18.5t-75.5 64.5q-54 -61 -118 -82l-17 21q76 32 125 94.5t49 151.5q0 55 -28 96t-74 41
q-25 0 -49 -11v28q19 10 51 10q56 0 93 -46.5t37 -121t-40 -140.5q48 -29 115 -29t108 29.5t41 77.5q0 34 -25.5 55.5t-70.5 21.5q-95 0 -95 73q0 37 30 58.5t76.5 21.5t76 -24t29.5 -67q0 -6 -2 -20h-32q2 6 2 18q0 31 -20.5 48.5t-52 17.5t-54 -13.5t-22.5 -38.5
q0 -47 65.5 -47t108.5 -35t43 -107q0 -33 -12 -60v-335h-25q-13 34 -42 60t-65 26t-64 -14.5t-48 -31.5q-54 -46 -105.5 -46t-84.5 25.5zM151 464.5q-35 22.5 -35 66t38.5 70.5t100 27t102 -31t40.5 -83q0 -37 -25 -65h-35q29 27 29 66t-31.5 62.5t-77.5 23.5t-77.5 -19
t-31.5 -50t21 -46.5t41 -17.5q-19 14 -19 40.5t19.5 43.5t48.5 17t48.5 -17.5t19.5 -46t-25 -46t-70.5 -17.5t-80.5 22.5zM230 534.5q-12 -10.5 -12 -26t12 -26t29 -10.5t29 10.5t12 26t-12 26t-29 10.5t-29 -10.5z" />
    <glyph glyph-name="uF01A7" unicode="&#xf01a7;" horiz-adv-x="2" 
d="M-364 -139q112 0 192 53t80 141q0 32 -10 47l12 31q27 -41 27 -95q0 -116 -84 -186.5t-190 -70.5q-204 0 -262 175h28q52 -95 207 -95z" />
    <glyph glyph-name="uF01A8" unicode="&#xf01a8;" horiz-adv-x="1" 
d="M-237 472.5q-35 22.5 -35 66t38.5 70.5t100 27t102 -31t40.5 -83q0 -37 -25 -65h-35q29 27 29 66t-31.5 62.5t-77.5 23.5t-77.5 -19t-31.5 -50t21 -46.5t42 -18.5q-20 15 -20 41.5t19.5 43.5t48.5 17t48.5 -17.5t19.5 -46t-25 -46t-70.5 -17.5t-80.5 22.5zM-169 516
q0 -16 11.5 -26.5t28.5 -10.5t29 10.5t12 26.5t-12 26.5t-29 10.5t-28.5 -10.5t-11.5 -26.5z" />
    <glyph glyph-name="uF01A9" unicode="&#xf01a9;" horiz-adv-x="1069" 
d="M650 207q0 -35 99 -35t99 34t-99 34t-99 -33zM303 315q129 0 183 -83q15 46 59 70.5t109 24.5q24 0 37 -2v11q0 28 -16 43t-39 15q-38 0 -47 -36q-9 -31 -46 -31q-17 0 -28.5 10t-11.5 30.5t17 37.5q-102 -1 -179 -31.5t-123 -67.5q33 9 85 9zM802 325q23 4 60.5 4
t73.5 -14q15 18 15 38.5t-19.5 35.5t-52.5 15t-55.5 -18.5t-22.5 -49.5q0 -7 1 -11zM193 352q0 38 -35 38q-12 0 -24 -7t-14.5 -17.5t-4.5 -21.5q-9 -47 -45 -47q-23 0 -32 14.5t-9 28.5q0 40 31.5 66.5t72.5 26.5t64 -21.5t23 -54.5q0 -10 -1 -16q132 95 331 95q39 0 65 -2
q51 -2 79 -27.5t28 -72.5q0 -19 -4 -36q-36 4 -54 4q-62 0 -100 -22t-38 -64.5t34 -69.5q63 -50 194 -50q90 0 156 30t66 88q0 45 -38 69q-42 -25 -92 -35q33 -16 33 -42q0 -60 -130 -60t-130 62q0 54 116 54q65 0 104 7t71 26q-30 9 -64.5 9t-74.5 -7q-3 17 -3 31
q0 51 31 78t82.5 27t79 -24t27.5 -54t-25 -53q58 -36 58 -122.5t-76 -133t-191 -46.5q-181 0 -245 85q-10 -37 -38 -61.5t-74 -24.5q-70 0 -101 64q-27 -64 -92 -64q-30 0 -50.5 11.5t-28.5 25.5q-21 37 -38 37q-34 0 -39 -62l-27 11q6 49 32.5 109.5t51.5 95t64 75.5
q24 26 24 50zM105 125q13 0 42.5 -13t56.5 -13q77 0 77 84v2h26v-1q0 -47 19 -66t58 -19t58 24t19 54q0 51 -43 81.5t-119.5 30.5t-117.5 -18q-26 -23 -56.5 -67.5t-45.5 -88.5q13 10 26 10z" />
    <glyph glyph-name="uF01AA" unicode="&#xf01aa;" horiz-adv-x="1061" 
d="M105 125q13 0 42.5 -13t56.5 -13q77 0 77 84v2h26v-1q0 -47 19 -66t58 -19t58 24t19 54q0 51 -43 81.5t-119.5 30.5t-117.5 -18q-26 -23 -56.5 -67.5t-45.5 -88.5q13 10 26 10zM219 307q30 8 93 8t116 -29.5t74 -85.5q12 49 55 76.5t107 27.5h59v4q0 38 -20 61t-43.5 23
t-36 -6.5t-16.5 -13t-8 -17.5q-11 -34 -40 -34q-16 0 -27.5 10t-11.5 33.5t26 43.5q-185 -3 -327 -101zM192 352q0 38 -34 38q-12 0 -24 -7t-14.5 -17.5t-4.5 -21.5q-9 -47 -45 -47q-23 0 -32 14.5t-9 28.5q0 40 31.5 66.5t72.5 26.5t64 -21.5t23 -54.5q0 -10 -1 -16
q59 42 141 67q84 28 199 28q40 0 69 -4q64 -1 96.5 -38.5t32.5 -103.5v-11h-86q-56 0 -90 -23t-34 -56t17 -53t46 -29q58 -19 125 -19q113 0 174 55.5t61 155t-65 171t-164 71.5q-118 0 -186 -82h-33q75 107 219 107q119 0 195.5 -87.5t76.5 -213t-73.5 -201t-207.5 -75.5
q-77 0 -136 24t-83 74q-8 -42 -37 -70.5t-79 -28.5q-70 0 -101 64q-27 -64 -92 -64q-30 0 -50.5 11.5t-28.5 25.5q-21 37 -38 37q-34 0 -39 -62l-27 11q6 49 32.5 109.5t51.5 95t64 75.5q23 25 23 50z" />
    <glyph glyph-name="uF01AB" unicode="&#xf01ab;" horiz-adv-x="1001" 
d="M204 308q34 12 86.5 12t97 -25t61.5 -73q17 39 57.5 60.5t97.5 21.5h59v4q0 38 -20 61t-43.5 23t-36 -6.5t-16.5 -13t-8 -17.5q-11 -34 -40 -34q-16 0 -27 10t-11 33t23 43q-68 -2 -145 -23t-135 -76zM81 123q12 9 29 9t61.5 -16t99 -16t95 24t40.5 71.5t-35.5 73.5
t-87.5 26q-78 0 -125 -35q-48 -59 -77 -137zM161 309q18 18 18 37t-7.5 30t-20.5 11q-28 0 -30 -32q-2 -61 -44 -61q-19 0 -29.5 14t-10.5 34q0 37 26.5 64t63 27t58 -21.5t21.5 -54.5q0 -5 -1 -10q71 50 138 69.5t141 19.5t112 -6q101 -18 101 -140v-11h-86q-56 0 -90 -23
t-34 -56t17 -53t46 -29q58 -19 125 -19q113 0 174 55.5t61 155t-65 171t-164 71.5q-118 0 -186 -82h-33q75 107 219 107q119 0 195.5 -87.5t76.5 -213t-73.5 -201t-207.5 -75.5q-79 0 -139.5 26t-82.5 79q-18 -49 -61.5 -78t-100 -29t-91.5 12.5t-49 27.5q-35 41 -59 41
q-30 0 -44 -70l-23 16q9 73 49.5 150.5t89.5 133.5z" />
    <glyph glyph-name="uF01AC" unicode="&#xf01ac;" horiz-adv-x="1016" 
d="M737 492q0 -88 76 -88q48 0 61 44q-40 61 -117 118q-20 -30 -20 -74zM81 123q12 9 29 9t61.5 -16t99 -16t95 24t40.5 71.5t-35.5 73.5t-87.5 26q-78 0 -125 -35q-48 -59 -77 -137zM161 309q18 18 18 37t-7.5 30t-20.5 11q-28 0 -30 -32q-2 -61 -44 -61q-19 0 -29.5 14
t-10.5 34q0 37 26.5 64t63 27t58 -22t21.5 -55q0 -5 -1 -9q67 48 143 67.5t169 19.5t126 -4h3v-26q-70 0 -120 -43.5t-50 -115.5t64 -109t162.5 -37t160.5 54.5t62 142.5q0 68 -31 123q-24 -52 -88 -52q-46 0 -73 35t-27 95t42 108q45 -24 93 -72t76 -96t39 -89.5t11 -95.5
q0 -111 -77 -182t-194 -71q-80 0 -144 36t-95 98q-10 -60 -56.5 -97.5t-118.5 -37.5q-50 0 -85 12.5t-49 27.5q-35 41 -59 41q-30 0 -44 -70l-23 16q9 73 49.5 150.5t89.5 133.5zM281 320q107 0 154 -69q4 51 34.5 92t78.5 64q-121 -2 -203.5 -24t-141.5 -76q34 13 78 13z
" />
    <glyph glyph-name="uF01AD" unicode="&#xf01ad;" horiz-adv-x="894" 
d="M114 120q60 -23 143.5 -23t132.5 28.5t49 78.5q0 35 -29 57t-74.5 22t-78 -12.5t-51 -33t-30.5 -41.5q-36 -60 -62 -76zM26 145q19 -12 42.5 -12t41 18.5t43 58t54.5 68.5q18 18 18 46t-12.5 44.5t-34.5 16.5q-37 0 -40 -40q-1 -19 -11 -34t-29.5 -15t-31 11.5
t-11.5 39.5t26.5 56t73.5 28t72.5 -29t25.5 -69q0 -12 -2 -18q128 121 340 121q61 0 94 -3q57 -4 88.5 -37.5t44.5 -102.5h-106q-134 0 -134 -120q0 -61 39 -100t96.5 -39t108.5 59l24 -18q-56 -65 -72.5 -102t-16.5 -72q0 -84 91 -109v-30q-24 -6 -67 -5.5t-71 29.5t-28 74
q0 59 74 149q-39 -10 -97 -10t-106.5 26.5t-68.5 74.5q-23 -50 -78.5 -75.5t-142.5 -25.5t-153.5 38t-83.5 108zM268 296q35 12 78 12t79.5 -20.5t56.5 -54.5q36 84 180 84h119q-8 35 -28.5 56t-49.5 21t-44 -30q-13 -29 -43 -29q-18 0 -29 10.5t-11 28.5t16 34h-7
q-110 0 -183 -29t-134 -83z" />
    <glyph glyph-name="uF01AE" unicode="&#xf01ae;" horiz-adv-x="1032" 
d="M270 297q33 11 77 11t81.5 -22t55.5 -58q40 76 152 76h60v4q0 38 -20.5 61t-44 23t-35.5 -6.5t-16 -13t-8 -17.5q-13 -34 -40 -34q-16 0 -27.5 10t-11.5 32.5t22 41.5q-73 -3 -139 -34.5t-106 -73.5zM114 120q60 -23 143.5 -23t132.5 28.5t49 78.5q0 35 -29 57t-74.5 22
t-78 -12.5t-51 -33t-30.5 -41.5q-36 -60 -62 -76zM26 145q19 -12 42.5 -12t41 18.5t43 58t54.5 68.5q18 18 18 46t-12.5 44.5t-34.5 16.5q-37 0 -40 -40q-1 -19 -11 -34t-29.5 -15t-31 11.5t-11.5 39.5t26.5 56t73.5 28t72.5 -29t25.5 -69q0 -13 -2 -18q110 119 307 119
q9 0 43 -2q63 -1 96 -39t33 -103v-11h-87q-56 0 -90 -23t-34 -60.5t31.5 -60t70.5 -29.5t87 -7q113 0 173.5 55.5t60.5 155t-64.5 171t-163.5 71.5q-119 0 -186 -82h-34q75 107 220 107q119 0 195.5 -87.5t76.5 -213t-74 -201t-208 -75.5q-77 0 -137 24.5t-83 75.5
q-23 -50 -78.5 -75.5t-142.5 -25.5t-153.5 38t-83.5 108z" />
    <glyph glyph-name="uF01AF" unicode="&#xf01af;" horiz-adv-x="1078" 
d="M114 120q60 -23 143.5 -23t132.5 28.5t49 78.5q0 35 -29 57t-74.5 22t-78 -12.5t-51 -33t-30.5 -41.5q-36 -60 -62 -76zM26 145q19 -12 42.5 -12t41 18.5t43 58t54.5 68.5q18 18 18 46t-12.5 44.5t-34.5 16.5q-37 0 -40 -40q-1 -19 -11 -34t-29.5 -15t-31 11.5
t-11.5 39.5t26.5 56t73.5 28t72.5 -29t25.5 -70q0 -12 -2 -17q41 49 111 83.5t144 34.5q80 0 156 -35v-25h-10q-58 0 -96.5 -44t-38.5 -101t30.5 -93t78.5 -36q104 0 104 85v34h29v-34q0 -44 27.5 -64.5t69.5 -20.5q66 0 97 57.5t31 135.5q0 110 -70.5 186.5t-183 76.5
t-191.5 -87h-33q85 112 234 112q123 0 206.5 -90.5t83.5 -228.5q0 -101 -36 -176q-18 -39 -52 -62t-79 -23q-74 0 -119 59q-47 -59 -113 -59q-52 0 -89 30.5t-54 80.5q-20 -55 -77.5 -83.5t-146 -28.5t-155 38t-83.5 108zM345 308q42 0 77.5 -18.5t55.5 -50.5q10 53 42 93
q35 46 87 59q-45 16 -109.5 16t-127 -34t-102.5 -77q35 12 77 12z" />
    <glyph glyph-name="uF01B0" unicode="&#xf01b0;" horiz-adv-x="1046" 
d="M770 492q0 -88 76 -88q48 0 61 44q-40 61 -117 118q-20 -30 -20 -74zM114 120q60 -23 143.5 -23t132.5 28.5t49 78.5q0 35 -29 57t-74.5 22t-78 -12.5t-51 -33t-30.5 -41.5q-36 -60 -62 -76zM26 145q19 -12 42.5 -12t41 18.5t43 58t54.5 68.5q18 18 18 46t-12.5 44.5
t-34.5 16.5q-37 0 -40 -40q-1 -19 -11 -34t-29.5 -15t-31 11.5t-11.5 39.5t26.5 56t73.5 28t72.5 -29t25.5 -69q0 -13 -2 -18q128 121 340 121q42 0 88 -6v-26q-70 0 -120 -43.5t-50 -115.5t64 -109t162.5 -37t160.5 54.5t62 142.5q0 68 -31 123q-24 -52 -88 -52
q-46 0 -73 35t-27 95t42 108q45 -24 93 -72t76 -96t39 -89.5t11 -95.5q0 -111 -77 -182t-194 -71q-78 0 -141 34t-95 94q-15 -63 -74.5 -95.5t-151 -32.5t-158 38t-83.5 108zM345 308q78 0 123 -55q5 51 36 91.5t79 63.5q-108 0 -180.5 -28.5t-133.5 -82.5q39 11 76 11z" />
    <glyph glyph-name="uF01B1" unicode="&#xf01b1;" horiz-adv-x="688" 
d="M125 165q0 64 45 101.5t121 37.5h59v4q0 38 -20 61t-43.5 23t-36 -6.5t-16.5 -13t-8 -17.5q-11 -34 -40 -34q-16 0 -27 10t-11 28.5t11 34.5q-48 -18 -75 -63t-27 -113q0 -119 78 -186v-32q-49 25 -78.5 85t-29.5 136q0 100 54.5 156t157.5 56q145 0 145 -143v-11h-86
q-56 0 -90 -23t-34 -56t17 -53t47 -29q57 -19 124 -19q113 0 174 55.5t61 155t-65 171t-164 71.5q-118 0 -186 -82h-33q75 107 219 107q119 0 195.5 -87.5t76.5 -213t-73.5 -201t-207.5 -75.5q-100 0 -167 40.5t-67 124.5z" />
    <glyph glyph-name="uF01B2" unicode="&#xf01b2;" horiz-adv-x="729" 
d="M27 212q0 100 52 160.5t141 60.5q64 0 93 -35v-25h-10q-58 0 -96.5 -44t-38.5 -101t30.5 -93t78.5 -36q104 0 104 85v34h29v-34q0 -44 27.5 -64.5t69.5 -20.5q66 0 97 57.5t31 135.5q0 110 -70.5 186.5t-182.5 76.5t-192 -87h-33q85 112 234 112q123 0 206.5 -90.5
t83.5 -228.5q0 -101 -35 -176q-19 -39 -53 -62t-79 -23q-74 0 -119 59q-47 -59 -116.5 -59t-111.5 58t-42 131.5t34 126.5t85 71q18 6 29 7q-12 12 -53.5 12t-75.5 -18t-52 -48q-35 -57 -35 -132q0 -110 78 -176v-32q-50 25 -79 81t-29 131z" />
    <glyph glyph-name="uF01B3" unicode="&#xf01b3;" horiz-adv-x="729" 
d="M439 492q0 -89 76 -89q48 0 61 45q-39 61 -117 119q-20 -33 -20 -75zM167 58q-42 58 -42 131.5t34 126.5t85 71q18 6 29 7q-12 12 -53.5 12t-75.5 -18t-52 -48q-35 -57 -35 -132q0 -110 78 -176v-32q-50 25 -79 81t-29 131q0 100 52 160.5t141 60.5q64 0 93 -35v-26h-10
q-58 0 -96.5 -43.5t-38.5 -99.5t30 -93t78 -37t77 20.5t29 64.5v33h28v-33q0 -44 28 -64.5t70 -20.5q66 0 98.5 48.5t32.5 113.5q0 92 -43 158q-24 -52 -88 -52q-46 0 -73 35t-27 95t42 108q45 -24 93 -72t75 -95q63 -108 63 -206q0 -128 -69 -194q-39 -38 -98 -38
q-74 0 -119 59q-47 -59 -116.5 -59t-111.5 58z" />
    <glyph glyph-name="uF01B4" unicode="&#xf01b4;" horiz-adv-x="746" 
d="M105 125q13 0 42.5 -13t56.5 -13q77 0 77 84v2h26v-1q0 -47 19 -66t58 -19t58 24t19 54q0 51 -43 81.5t-119.5 30.5t-117.5 -18q-26 -23 -56.5 -67.5t-45.5 -88.5q13 10 26 10zM193 352q0 38 -35 38q-12 0 -24 -7t-14.5 -17.5t-4.5 -21.5q-9 -47 -45 -47q-23 0 -32 14.5
t-9 28.5q0 40 31.5 66.5t72.5 26.5t64 -21.5t23 -54.5q0 -10 -1 -16q98 93 234 93q53 0 98 -17v263q16 -12 59.5 -31.5t67 -43t23.5 -60t-22.5 -57.5t-51 -21t-49.5 10v-72q58 -31 90.5 -87t32.5 -127t-37.5 -131.5t-108.5 -60.5q-31 0 -50 12v28q19 -11 49.5 -11t52 32.5
t21.5 80.5q0 103 -72.5 161t-174.5 58t-164 -54q33 9 86 9q94 0 153 -49t59 -140q0 -50 -29.5 -88.5t-94 -38.5t-95.5 64q-27 -64 -92 -64q-30 0 -50.5 11.5t-28.5 25.5q-21 37 -38 37q-34 0 -39 -62l-27 11q6 49 32.5 109.5t51.5 95t64 75.5q24 26 24 50zM578 503
q13 -7 35 -7t35 14.5t13 33t-10.5 34.5t-23.5 26q-32 24 -49 33v-134z" />
    <glyph glyph-name="uF01B5" unicode="&#xf01b5;" horiz-adv-x="630" 
d="M93 72q0 -18 12.5 -30.5t30.5 -12.5t31 12.5t13 30.5t-13 31t-31 13t-30.5 -13t-12.5 -31zM582 270v-3q-1 -101 -47.5 -184t-118.5 -83q-28 0 -45.5 13.5t-28.5 27t-21 13.5q-23 0 -80 -75l-38 3q6 6 17 20q33 42 67 82q72 86 72 135q0 83 -123 83q-68 0 -119 -40
t-51 -113q0 -23 6 -46q7 20 24.5 31.5t45 11.5t48.5 -20t21 -50.5t-20.5 -53.5t-49.5 -23q-57 0 -83 57t-26 127q0 101 58.5 157t149.5 56q72 0 122.5 -38t50.5 -103.5t-53 -120.5q3 1 12.5 1t26 -18.5t37.5 -18.5q39 0 70 61t32 125q-1 94 -68 151.5t-192 57.5t-236 -52v32
q7 3 33 11.5t38 14t12 9.5t-14 14t-14 24q0 31 50 57t128 26t134 -23t89 -64q61 -76 71 -186q11 -30 13 -86zM141 541q0 -6 11 -13.5t11 -12t-3 -7.5q61 11 119 11q165 0 247 -96q-46 160 -242 160q-54 0 -98.5 -13t-44.5 -29z" />
    <glyph glyph-name="uF01B6" unicode="&#xf01b6;" 
d="M220 432l13 -1v-24h-11q-63 0 -104 -48.5t-41 -113t36 -105.5t88 -41t79.5 19.5t27.5 48t-11.5 40t-27.5 11.5t-25 -6q-2 -12 -2 -19h-26q8 102 58 170.5t136 68.5q9 0 25 -2v251q16 -12 60 -31.5t67.5 -43t23.5 -60t-22.5 -57.5t-51 -21t-49.5 10v-54q58 -20 90.5 -77
t32.5 -130q0 -93 -60 -155.5t-157 -62.5q-9 0 -31 2v26q16 -2 24 -2q76 0 119.5 48.5t43.5 118t-37.5 114t-98.5 44.5t-96 -32t-45 -80q9 5 22 5q37 0 59.5 -29t22.5 -84t-39.5 -93.5t-104.5 -38.5q-80 0 -127 61t-47 151.5t52 156t134 65.5zM463 503q16 -7 37 -7t33.5 14.5
t12.5 33.5t-10.5 35t-23.5 26t-27 19t-15 9.5t-3 2t-4 2.5v-135z" />
    <glyph glyph-name="uF01B7" unicode="&#xf01b7;" horiz-adv-x="677" 
d="M383 310q20 6 67 6t73 -10q16 16 16 39t-20.5 35t-48.5 12q-80 0 -87 -82zM51 154q0 96 87 128q-106 -2 -133 -7v33h275v4q0 34 -20 57t-52.5 23t-45.5 -35t-43 -35q-16 0 -26.5 9.5t-10.5 27.5q0 34 30.5 53.5t74.5 19.5q63 0 94.5 -38.5t31.5 -98.5v-13h-94
q-46 0 -83.5 -26.5t-37.5 -67.5t29.5 -65.5t68.5 -24.5t47 8q-2 14 0 27q3 41 29 60.5t60 19.5t60 -19.5t29 -60.5q2 -13 0 -27q8 -8 49.5 -8t77 25.5t35.5 69.5t-34.5 70.5t-94 26.5t-101.5 -9v10q0 63 33.5 102t90.5 39v248q16 -12 60 -31.5t67.5 -43t23.5 -60
t-22.5 -57.5t-51 -21t-49.5 10v-47q74 -14 74 -80q0 -36 -29 -53q35 -17 56.5 -53.5t21.5 -77.5q0 -79 -46 -123t-117 -44q-33 0 -80 12q-4 8 -4 27t5.5 40t5.5 45.5t-17 42t-43 17.5t-43 -17.5t-17 -42t5.5 -45.5t5.5 -40t-4 -27q-47 -12 -80 -12q-65 0 -106.5 46.5
t-41.5 108.5zM505 503q13 -7 35 -7t35 14.5t13 33t-10.5 34.5t-23.5 26q-32 24 -49 33v-134z" />
    <glyph glyph-name="uF01B8" unicode="&#xf01b8;" horiz-adv-x="617" 
d="M88 347q0 -20 16 -34.5t38 -14.5t37.5 14.5t15.5 34.5t-15.5 34.5t-37.5 14.5t-38 -14.5t-16 -34.5zM280 224l-99 6q-36 0 -58 -17t-22 -46t24.5 -48.5t63.5 -19.5t67 15.5t28 48.5v22h27v-22q0 -32 27 -48t63 -16q56 0 87 54.5t31 139.5v5q0 80 -63 137.5t-179.5 57.5
t-223.5 -52v32q17 7 34 12.5t26 9.5q19 8 19 12.5t-14 14.5t-14 24q0 31 48 57t123.5 26t130 -23t85.5 -64q58 -77 68 -186q9 -39 11 -96v-5q-1 -112 -41.5 -183.5t-112.5 -71.5q-43 0 -67.5 13.5t-50.5 45.5q-47 -59 -108.5 -59t-100 40t-38.5 96.5t37 89.5t91 33l101 -7
q62 0 62 58q0 49 -41 74.5t-87 25.5q-15 0 -31 -2q39 -21 39 -63q0 -28 -23 -50.5t-56.5 -22.5t-58 21.5t-24.5 57.5t40.5 59.5t111.5 23.5t115.5 -36t44.5 -92q0 -34 -22.5 -58t-69.5 -24zM149 541q0 -6 10.5 -13.5t10.5 -12.5t-2 -7q57 11 111 11q158 0 237 -96
q-45 160 -232 160q-53 0 -94 -13t-41 -29z" />
    <glyph glyph-name="uF01B9" unicode="&#xf01b9;" horiz-adv-x="749" 
d="M81.5 377q54.5 56 151.5 56t117 -2v-24h-11q-63 0 -104 -48.5t-41 -113t36 -105.5t88 -41t79.5 19.5t27.5 48t-11.5 40t-27.5 11.5t-25 -6q-2 -12 -2 -19h-26q8 102 58 170.5t136 68.5q10 0 26 -2v251q16 -12 59.5 -31.5t67 -43t23.5 -60t-22.5 -57.5t-51 -21t-49.5 10
v-54q58 -20 90.5 -77t32.5 -130q0 -93 -60 -155.5t-157 -62.5q-9 0 -31 2v26q16 -2 24 -2q76 0 119.5 48.5t43.5 118t-37.5 114t-98.5 44.5t-96 -32t-45 -80q9 5 22 5q37 0 59.5 -29t22.5 -84t-39.5 -93.5t-104.5 -38.5q-80 0 -127 61t-47 148q0 65 26.5 119t72.5 82
q-193 -3 -193 -190q0 -119 78 -186v-32q-49 25 -78.5 85t-29.5 136q0 100 54.5 156zM580 503q16 -7 37 -7t33.5 14.5t12.5 33.5t-10.5 35t-23.5 26q-32 24 -49 33v-135z" />
    <glyph glyph-name="uF01BA" unicode="&#xf01ba;" horiz-adv-x="621" 
d="M577 275v-5q-2 -122 -75.5 -196t-206.5 -74q-100 0 -165.5 40.5t-65.5 124.5q0 54 33 83q23 20 51 28q-105 -1 -134 -7v33h272v6q0 38 -20.5 61.5t-48.5 23.5q-43 0 -54 -35.5t-43 -35.5q-14 0 -25.5 10t-11.5 28q0 33 31 52.5t74 19.5q64 0 97.5 -38t33.5 -104v-14h-60
q-67 0 -107 -23.5t-40 -61.5q0 -49 54 -70.5t132 -21.5q113 0 172.5 56t59.5 154q-1 81 -67 132.5t-188 51.5t-233 -52v32q7 3 33 11.5t38 14t12 9.5t-14 14t-14 24q0 31 50 57t128 26t134 -23t89 -64q61 -76 71 -186q8 -30 8 -81zM141 541q0 -6 11 -13.5t11 -12t-3 -7.5
q61 11 119 11q171 0 247 -96q-46 160 -242 160q-54 0 -98.5 -13t-44.5 -29z" />
    <glyph glyph-name="uF01BB" unicode="&#xf01bb;" horiz-adv-x="598" 
d="M435 198q36 0 55 44q-30 41 -113 45q2 -89 58 -89zM33 170q0 61 47 101.5t128 40.5q14 0 19 -1q2 14 2 29.5t-12.5 31.5t-39.5 16t-37 -26q-12 -26 -23.5 -33.5t-25.5 -7.5t-26 10.5t-12 28.5q0 35 28 53.5t73 18.5t74.5 -28t29.5 -78q0 -22 -4 -39q-16 2 -25 2
q-80 0 -115 -28t-35 -62q0 -53 62 -77t151 -24q85 0 131 15.5t64 35.5t18 47q0 8 -1 12q-28 -37 -70 -37t-63 32.5t-22 84.5q-32 -1 -65 -4q-5 17 -5 40.5t9 44.5v387q18 -14 60.5 -33.5t65.5 -41t23 -56.5t-22.5 -56t-52.5 -21t-47 7v-148q22 17 54 25q25 78 63 123
q50 62 105 62q15 0 24 -8t9 -20.5t-10.5 -20t-26 -10t-39.5 -16.5q-58 -31 -90 -107h2q56 0 91 -34.5t35 -98.5q0 -28 -8 -52q25 -34 25 -87t-37 -93q-67 -70 -214 -70q-115 0 -190 41t-75 129zM307 324q0 -10 1 -14q14 2 41 2q3 50 13 91q-55 -20 -55 -79zM377 311
q83 -3 123 -37q3 14 3 26q0 109 -101 109h-8q-14 -46 -17 -98zM315 581q13 -7 35.5 -7t34 14t11.5 30.5t-3.5 27t-14.5 21t-16 14.5t-24 16.5t-23 14.5v-131z" />
    <glyph glyph-name="uF01BC" unicode="&#xf01bc;" horiz-adv-x="598" 
d="M33 170q0 61 47 101.5t128 40.5q18 0 26 -1q2 14 2 29t-12.5 32t-41 17t-42.5 -30q-9 -20 -19 -29t-27 -9t-28 11t-11 29q0 34 30 52.5t75 18.5t75.5 -28t30.5 -78q0 -22 -4 -39q-24 2 -33 2q-80 0 -114.5 -27.5t-34.5 -63.5q0 -52 61.5 -75.5t151 -23.5t149.5 24t60 77
q0 36 -34.5 62.5t-112.5 26.5q-23 0 -37 -2t-18 -2q-7 22 -7 43.5t5 38.5v389q18 -15 60 -33.5t65.5 -40.5t23.5 -57t-22.5 -56t-52 -21t-48.5 7v-148q16 14 45 22q21 85 85 144q47 44 80.5 44t33.5 -25q0 -13 -16 -23t-46 -26q-81 -43 -104 -110q5 1 17 1q37 0 69 -20.5
t32 -65t-47 -58.5q76 -35 76 -122q0 -58 -37 -98q-67 -70 -214 -70q-115 0 -190 41t-75 129zM326 309q16 2 32 2t25 -1q-20 24 -20 63q0 18 1 26q-41 -16 -41 -65q0 -12 3 -25zM404 328q13 -17 35.5 -17t36 12t13.5 34t-20 36t-44 14t-31 -1q-3 -17 -3 -39t13 -39zM360 574
q22 0 34 14t12 30.5t-4 27t-14 20.5t-16.5 15t-23.5 16t-23 15v-131q13 -7 35 -7z" />
    <glyph glyph-name="uF01BD" unicode="&#xf01bd;" horiz-adv-x="1087" 
d="M591 540q0 -6 11 -13t11 -11.5t-3 -7.5q60 11 119 11q168 0 250 -96q-48 160 -245 160q-54 0 -98.5 -12.5t-44.5 -30.5zM193 352q0 38 -35 38q-12 0 -24 -7t-14.5 -17.5t-4.5 -21.5q-9 -47 -45 -47q-23 0 -32 14.5t-9 28.5q0 40 31.5 66.5t72.5 26.5t64 -21.5t23 -54.5
q0 -10 -1 -16q45 42 112 67t139 25q125 0 201 -35v-26h-10q-59 0 -97 -43.5t-38 -100t30 -93t78 -36.5q105 0 105 84v35h29v-35q0 -44 28 -63.5t70.5 -19.5t72.5 29q54 52 54 151t-70 156t-180.5 57t-240.5 -40v31q73 12 73 24q0 5 -14 15t-14 23q0 31 50 57t128 26
t134.5 -23t89.5 -64q63 -77 73 -186q17 -47 17 -108.5t-14.5 -114.5t-54 -93t-98.5 -40q-74 0 -119 59q-47 -59 -113 -59q-87 0 -131 83q-25 -84 -112 -84q-70 0 -101 64q-27 -64 -92 -64q-30 0 -50.5 11.5t-28.5 25.5q-21 37 -38 37q-34 0 -39 -62l-27 11q6 49 32.5 109.5
t51.5 95t64 75.5q24 26 24 50zM303 315q127 0 183 -83q9 56 41 98t75 57q1 1 2.5 1t2.5 1q-62 15 -134 15q-144 0 -255 -98q33 9 85 9zM105 125q13 0 42.5 -13t56.5 -13q77 0 77 84v2h26v-1q0 -47 19 -66t58 -19t58 24t19 54q0 51 -43 81.5t-119.5 30.5t-117.5 -18
q-26 -23 -56.5 -67.5t-45.5 -88.5q13 10 26 10z" />
    <glyph glyph-name="uF01BE" unicode="&#xf01be;" horiz-adv-x="1036" 
d="M428 315q131 0 185 -87q34 88 182 88h119q-9 34 -40 56t-61 22t-45 -30q-13 -29 -44 -29q-18 0 -29 10.5t-11 31t24 36.5q-11 1 -53 1t-102 -12q-114 -23 -209 -95q30 8 84 8zM344 341q130 101 340 101q92 0 144 -15q6 -3 13 -3v256q16 -12 60 -31.5t67.5 -43t23.5 -60
t-22.5 -57.5t-50 -21t-50.5 10v-65q66 -34 82 -119h-106q-134 0 -134 -121q0 -61 39 -100t96 -39t109 60l24 -19q-6 -6 -24 -28t-21 -27t-10.5 -16.5t-11 -18.5t-9 -18.5t-7.5 -21.5q-6 -28 -6 -43q0 -84 91 -109v-30q-24 -6 -67 -5.5t-71 29.5t-28 74q0 59 74 149
q-43 -11 -83 -11q-123 0 -175 75q-28 -74 -103.5 -74t-106.5 64q-27 -64 -92 -64q-30 0 -50.5 11.5t-28.5 25.5q-21 37 -38 37q-34 0 -39 -62l-27 11q6 49 32.5 109.5t51.5 95t64 75.5q23 25 23 50q0 38 -34 38q-12 0 -24 -7t-14.5 -17.5t-4.5 -21.5q-9 -47 -45 -47
q-23 0 -32 14.5t-9 28.5q0 35 24 59h-1q-56 -13 -88 -60t-32 -121q0 -119 78 -186v-32q-49 25 -78.5 85t-29.5 136q0 100 54.5 156.5t157.5 56.5q15 0 26 -1q36 -1 58 -22t22 -54q0 -10 -1 -16zM230 125q13 0 42.5 -13t56.5 -13q77 0 77 84v2h26v-1q0 -47 19 -66t58 -19
t58 24t19 54q0 51 -43 81.5t-119.5 30.5t-117.5 -18q-26 -23 -56.5 -67.5t-45.5 -88.5q13 10 26 10zM869 503q13 -7 35 -7t35 14.5t13 33t-10.5 34.5t-23.5 26q-32 24 -49 33v-134z" />
    <glyph glyph-name="uF01BF" unicode="&#xf01bf;" horiz-adv-x="842" 
d="M370 243q36 0 57 -26q29 100 186 100h119q-8 35 -29 56t-49.5 21t-43.5 -30q-13 -29 -43 -29q-18 0 -29 10.5t-11 29.5t18 35h-6q-76 0 -125 -46t-66 -126q10 5 22 5zM239 433l94 -2v-24h-11q-63 0 -104 -49t-41 -112t34.5 -105t88 -42t81 19t27.5 46q0 54 -41 54
q-13 0 -22 -7q-2 -12 -2 -18h-28q21 245 245 245q58 0 94 -7v249q16 -12 60 -31.5t67.5 -43t23.5 -60t-22.5 -57.5t-51 -21t-49.5 10v-54q67 -24 87 -130h-106q-134 0 -134 -120q0 -61 39 -100t96.5 -39t108.5 59l24 -18q-56 -65 -72.5 -102t-16.5 -72q0 -84 91 -109v-30
q-24 -6 -67 -5.5t-71 29.5t-28 74q0 59 74 149q-39 -10 -83 -10q-133 0 -181 84q-15 -39 -50.5 -62t-84.5 -23q-80 0 -127 61t-47 148q0 65 25.5 118t70.5 81q-85 -1 -129 -52.5t-44 -135.5q0 -119 78 -186v-32q-49 25 -78.5 85t-29.5 136q0 100 54.5 156t157.5 56zM682 503
q13 -7 35 -7t35 14.5t13 33t-10.5 34.5t-23.5 26q-32 24 -49 33v-134z" />
    <glyph glyph-name="uF01C0" unicode="&#xf01c0;" horiz-adv-x="699" 
d="M134 170q0 61 47 101.5t128 40.5q18 0 26 -1q2 14 2 29t-12.5 32t-41 17t-42.5 -30q-9 -20 -19 -29t-27 -9t-28 11t-11 30.5t11 33.5q-51 -15 -80.5 -61t-29.5 -117q0 -119 78 -186v-32q-49 25 -78.5 85t-29.5 136q0 100 54.5 156t157.5 56q71 0 99.5 -31t28.5 -76
q0 -22 -4 -39q-24 2 -33 2q-80 0 -114.5 -27.5t-34.5 -63.5q0 -52 61.5 -75.5t151 -23.5t149.5 24t60 77q0 36 -34.5 62.5t-112.5 26.5q-23 0 -37 -2t-18 -2q-7 22 -7 45.5t6 39.5v386q18 -14 60.5 -33.5t65.5 -41t23 -56.5t-22 -56t-51.5 -21t-47.5 7v-146q16 14 42 20
q21 85 85 144q47 44 80.5 44t33.5 -25q0 -13 -16 -23t-46 -26q-81 -43 -104 -110q5 1 17 1q37 0 69 -20.5t32 -65t-47 -58.5q76 -35 76 -122q0 -58 -38 -98q-66 -70 -213 -70q-115 0 -190 41t-75 129zM427 309q16 2 32 2t25 -1q-20 24 -20 63q0 18 1 26q-41 -16 -41 -65
q0 -12 3 -25zM505 328q13 -17 35.5 -17t36 12t13.5 34t-20 36t-44 14t-31 -1q-3 -17 -3 -39t13 -39zM428 581q13 -7 35.5 -7t34 14t11.5 30.5t-4 27t-14 20.5t-16.5 15t-23.5 16t-23 15v-131z" />
    <glyph glyph-name="uF01C1" unicode="&#xf01c1;" horiz-adv-x="603" 
d="M557 271v-3q-2 -117 -77 -193t-192 -76t-186.5 57t-69.5 146t58.5 139t141.5 50q47 0 89 -16v-30q-39 19 -96 19t-101.5 -34.5t-44.5 -97.5t59 -98t139 -35q103 0 168 54.5t66 150.5q-1 81 -64.5 135t-178.5 54t-226 -52v32q7 3 33 11.5t38 14t12 9.5t-14 14t-14 24
q0 31 48 57t124 26t129.5 -23t83.5 -64q57 -76 67 -186q8 -37 8 -85zM141 541q0 -6 11 -13.5t11 -12t-3 -7.5q49 11 114 11q157 0 232 -96q-46 160 -227 160q-54 0 -96 -13t-42 -29z" />
    <glyph glyph-name="uF01C2" unicode="&#xf01c2;" horiz-adv-x="635" 
d="M471 538q14 -7 35 -7t34.5 13t13.5 33.5t-9.5 35.5t-18.5 22t-29.5 19t-25.5 16v-132zM346 561q-21 -30 -21 -71.5t19 -65.5t57 -24q49 0 63 43q-20 30 -54 63t-64 55zM471 485q118 -136 118 -260q0 -121 -69 -187q-39 -38 -98 -38q-74 0 -119 59q-47 -59 -116.5 -59
t-111.5 58t-42 131.5t34 126.5q53 82 154 82v-26h-10q-58 0 -96.5 -43.5t-38.5 -99.5t30 -93t78 -37t77 20.5t29 64.5v33h28v-33q0 -44 28 -64.5t70 -20.5q66 0 97 47.5t31 112.5q0 84 -60 158q-24 -55 -90 -55q-46 0 -73 35t-27 93t42 110q50 -26 107 -85v200
q19 -15 99 -51q21 -9 38 -31.5t17 -54.5t-22 -52.5t-51 -20.5t-53 8v-28z" />
    <glyph glyph-name="uF01C3" unicode="&#xf01c3;" horiz-adv-x="647" 
d="M552 266l1 17q0 95 -71.5 152.5t-196 57.5t-235.5 -52v32q7 3 33 11.5t38 14t12 9.5t-14 14t-14 24q0 31 50 57t128 26t134.5 -23t89.5 -64q63 -77 73 -186q18 -41 18 -98v-3q-1 -111 -43.5 -183t-126.5 -72q-44 0 -69.5 15.5t-45.5 43.5q-48 -59 -117 -59t-109.5 48
t-40.5 114q0 40 20 74t59 51h-110v28h245q-2 30 -20.5 52.5t-44.5 22.5t-43 -28q-13 -25 -34.5 -25t-32 10.5t-10.5 26.5q0 28 27 43t62 15q61 0 95.5 -38.5t35.5 -106.5h-73q-64 0 -96 -30t-32 -68.5t29 -64t74.5 -25.5t73 17.5t27.5 49.5v30h29v-30q0 -31 25.5 -49
t67.5 -18q60 0 94.5 47t38.5 120h-1zM149 541q0 -6 11 -13.5t11 -12t-3 -7.5q61 11 119 11q168 0 250 -96q-24 82 -88.5 121t-156.5 39q-54 0 -98.5 -13t-44.5 -29z" />
    <glyph glyph-name="uF01C4" unicode="&#xf01c4;" horiz-adv-x="647" 
d="M15 287v28h243q-2 31 -20.5 52.5t-45 21.5t-41.5 -26t-35 -26t-31.5 10.5t-11.5 26.5q0 28 27 43t62 15q62 0 95.5 -38t34.5 -107h-72q-61 0 -94 -30t-33 -68t29.5 -64t74 -26t73 17.5t28.5 48.5v31h29v-31q0 -30 27.5 -48t65.5 -18q62 0 95 48.5t33 105.5q0 27 -4 42.5
t-6 24t-7 19.5t-7 17t-8 16t-7.5 13t-14.5 23q-30 -54 -94 -54q-46 0 -73 34.5t-27 92t42 112.5q53 -30 107 -85v189q18 -14 61.5 -32t67.5 -41t24 -59.5t-21.5 -57.5t-49 -21t-54.5 9v-16q27 -33 41 -51q79 -110 79 -211q0 -74 -37 -141q-19 -34 -54 -55t-80 -21
q-70 0 -113 59q-48 -59 -117 -59t-109.5 48t-40.5 114q0 40 20 74t59 51h-110zM330 480q0 -91 75 -91q51 0 70 47q-20 28 -56 62.5t-67 57.5q-22 -33 -22 -76zM477 519q12 -6 33.5 -6t35.5 12.5t14 37t-15 41.5t-40 31t-28 17v-133z" />
    <glyph glyph-name="uF01C5" unicode="&#xf01c5;" horiz-adv-x="963" 
d="M825 503q13 -7 35 -7t35 14.5t13 33t-10.5 34.5t-23.5 26q-32 24 -49 33v-134zM735 105q0 -36 16 -50t35 -14q31 0 42 32.5t11 95.5q0 131 -48 131q-26 0 -40 -28t-13 -75q3 -15 3 -35.5t-6 -50.5v-6zM598 94.5q19 -26.5 48 -26.5t46.5 25.5t17.5 68.5q0 94 -66 94
q-20 0 -36 -15.5t-24 -40.5q-2 -20 -6 -39q1 -40 20 -66.5zM296 258q0 -25 17 -42t42 -17t42 17t17 42t-17 42t-42 17t-42 -17t-17 -42zM267 258q0 24 12 44q-43 -23 -75 -41q18 -59 94 -70q-31 26 -31 67zM345 96q82 0 131.5 43.5t49.5 111.5q0 38 -18.5 73t-53.5 57
q-46 -18 -86 -36q32 -5 54 -29.5t22 -54.5q0 -60 -53 -84q-28 -15 -75.5 -15t-86 22.5t-52.5 60.5q-29 -17 -62 -38q30 0 81 -55q19 -21 58.5 -38.5t90.5 -17.5zM200 292v-2q104 59 211 109q-22 7 -55 7q-66 0 -111 -31.5t-45 -82.5zM450 417q210 92 269 92q40 0 40 -31
q0 -28 -39 -35q-113 -14 -178 -33l-48 -15q74 -47 87 -140q28 31 70.5 31t67.5 -35q3 36 23 63t55 33v333q16 -12 60 -31.5t67.5 -43t23.5 -60t-22.5 -57.5t-51 -21t-49.5 10v-130q43 -6 66.5 -56t23.5 -125t-28 -121t-87 -46q-37 0 -59.5 20t-26.5 49q-26 -32 -62 -32
q-67 0 -94 71q-55 -107 -193 -107q-55 0 -95 18.5t-61.5 45t-37.5 53t-33 45t-40.5 18.5t-64.5 -27l-11 25q74 51 149 95q-1 5 -1 14q0 69 54 107.5t135 38.5q48 0 91 -16z" />
    <glyph glyph-name="uF01C6" unicode="&#xf01c6;" horiz-adv-x="731" 
d="M639 266l1 17q0 95 -71.5 152.5t-196 57.5t-235.5 -52v32q7 3 33 11.5t38 14t12 9.5t-14 14t-14 24q0 31 50 57t128 26t134.5 -23t89.5 -64q63 -77 73 -186q18 -41 18 -98v-3q-1 -111 -43.5 -183t-126.5 -72q-44 0 -69.5 15.5t-45.5 43.5q-48 -59 -117 -59t-109.5 48
t-40.5 114q0 40 20 74t59 51h-110v28h245q-2 30 -20.5 52.5t-44.5 22.5t-43 -28q-13 -25 -34.5 -25t-32 10.5t-10.5 24.5t6 25q-52 -15 -81.5 -61.5t-29.5 -117.5q0 -119 78 -186v-32q-49 25 -78.5 85t-29.5 136q0 100 54.5 156t157.5 56q31 0 53 -6q88 -25 90 -140h-73
q-64 0 -96 -30t-32 -68.5t29 -64t74.5 -25.5t73 17.5t27.5 49.5v30h29v-30q0 -31 25.5 -49t67.5 -18q60 0 94.5 47t38.5 120h-1zM236 541q0 -6 11 -13.5t11 -12t-3 -7.5q61 11 119 11q168 0 250 -96q-24 82 -88.5 121t-156.5 39q-54 0 -98.5 -13t-44.5 -29z" />
    <glyph glyph-name="uF01C7" unicode="&#xf01c7;" horiz-adv-x="704" 
d="M81 123q12 9 29 9t61.5 -16t99 -16t95 24t40.5 71.5t-35.5 73.5t-87.5 26q-78 0 -125 -35q-48 -59 -77 -137zM161 309q18 18 18 37t-7.5 30t-20.5 11q-28 0 -30 -32q-2 -61 -44 -61q-19 0 -29.5 14t-10.5 34q0 37 26.5 64t63.5 27t58 -22t21 -56q0 -4 -1 -8q80 88 218 88
q47 0 88 -15v260q16 -12 60 -31.5t67.5 -43t23.5 -60t-22.5 -57.5t-51 -21t-49.5 10v-69q58 -31 91.5 -89t33.5 -135.5t-39.5 -131t-108.5 -53.5q-38 0 -61 14v30q24 -13 47 -13q41 0 63 35.5t22 83.5q0 97 -65.5 159t-166 62t-154.5 -64q33 14 80 14q79 0 128.5 -40.5
t49.5 -114.5t-48 -120.5t-129 -46.5q-50 0 -85 12.5t-49 27.5q-35 41 -59 41q-30 0 -44 -70l-23 16q9 73 49.5 150.5t89.5 133.5zM539 503q13 -7 35 -7t35 14.5t13 33t-10.5 34.5t-23.5 26q-32 24 -49 33v-134z" />
    <glyph glyph-name="uF01C8" unicode="&#xf01c8;" horiz-adv-x="614" 
d="M304 485q0 -89 77 -89q20 0 38 13t25 37q-46 61 -119 115q-21 -34 -21 -76zM33 235q0 81 59 138t138 57v-25q-59 0 -107 -45t-48 -115t64 -107.5t161 -37.5t157 50.5t60 127.5t-53 142q-12 -26 -35.5 -43t-54.5 -17q-46 0 -73 35t-27 93t42 110q58 -32 125 -106v201
q23 -19 99 -51q22 -9 39 -31t17 -53.5t-21.5 -52.5t-51.5 -21t-54 8v-33q7 -8 19 -24q78 -104 78 -201t-78 -166t-191 -69t-188.5 65.5t-75.5 170.5zM502 509q53 0 53 49q0 44 -57 74q-26 13 -29 16v-133q12 -6 33 -6z" />
    <glyph glyph-name="uF01C9" unicode="&#xf01c9;" horiz-adv-x="456" 
d="M31 169q0 148 192 148h119q-8 35 -29 56t-49.5 21t-43.5 -30q-13 -29 -43 -29q-18 0 -29 10.5t-11 26.5q0 27 27 44t68 17q12 0 32 -2v249q16 -12 59.5 -31.5t67 -43t23.5 -60t-22.5 -57.5t-50.5 -21t-49 10v-54q67 -24 87 -130h-106q-134 0 -134 -120q0 -61 39 -100
t96.5 -39t108.5 59l24 -18q-56 -65 -72.5 -102t-16.5 -72q0 -84 91 -109v-30q-24 -6 -67 -5.5t-71 29.5t-28 74q0 59 74 149q-39 -10 -83 -10q-96 0 -149.5 46.5t-53.5 123.5zM292 503q13 -7 35 -7t34.5 14t12.5 27.5t-1 19.5t-4.5 12t-5.5 10.5t-8.5 10.5t-9 9t-12 9.5
t-12.5 8.5t-14.5 10t-14.5 10v-134z" />
    <glyph glyph-name="uF01CA" unicode="&#xf01ca;" horiz-adv-x="638" 
d="M75 58q-42 58 -42 131.5t34 126.5q53 82 154 82v-26h-10q-59 0 -97 -43.5t-38 -100t30 -93t78 -36.5q105 0 105 84v35h29v-35q0 -44 28 -63.5t70.5 -19.5t72.5 29q54 52 54 151t-70 156t-195 57t-236 -52v32q7 3 33 11q50 17 50 23t-14 16t-14 23q0 31 50 57t128 26
t134.5 -23t89.5 -64q63 -77 73 -186q17 -47 17 -108.5t-14.5 -114.5t-54 -93t-98.5 -40q-74 0 -119 59q-47 -59 -116.5 -59t-111.5 58zM141 540q0 -6 11 -13t11 -11.5t-3 -7.5q61 11 119 11q168 0 250 -96q-48 160 -245 160q-54 0 -98.5 -12.5t-44.5 -30.5z" />
    <glyph glyph-name="uF01CB" unicode="&#xf01cb;" horiz-adv-x="806" 
d="M114 120q60 -23 143.5 -23t132.5 28.5t49 78.5q0 35 -29 57t-74.5 22t-78 -12.5t-51 -33t-30.5 -41.5q-36 -60 -62 -76zM26 145q19 -12 42.5 -12t41 18.5t43 58t54.5 68.5q18 18 18 46t-12.5 44.5t-34.5 16.5q-37 0 -40 -40q-1 -19 -11 -34t-29.5 -15t-31 11.5
t-11.5 39.5t26.5 56t73.5 28t72.5 -29.5t25.5 -73.5q0 -8 -1 -12q41 48 110.5 82.5t134.5 34.5t110 -19v266q16 -12 59.5 -31.5t67 -43t23.5 -60t-22.5 -57.5t-51 -21t-49.5 10v-75q58 -31 92 -88t34 -136.5t-46 -129t-109 -49.5q-41 0 -69 17v30q24 -18 57.5 -18t58 32
t24.5 84q0 100 -72 158.5t-173 58.5t-164 -65q35 12 78 12q64 0 108.5 -40t44.5 -99q0 -83 -62.5 -126.5t-161 -43.5t-165 38t-83.5 108zM634 503q13 -7 35 -7t35 14.5t13 33t-10.5 34.5t-23.5 26q-32 24 -49 33v-134z" />
    <glyph glyph-name="uF01CC" unicode="&#xf01cc;" horiz-adv-x="538" 
d="M260 435q64 0 88 -8v253q16 -12 59.5 -31.5t67 -43t23.5 -60t-22.5 -57.5t-50.5 -21t-49 10v-59q69 -29 87 -125h-106q-134 0 -134 -120q0 -61 39 -100t96.5 -39t108.5 59l24 -18q-56 -65 -72.5 -102t-16.5 -72q0 -84 91 -109v-30q-24 -6 -67 -5.5t-71 29.5t-28 74
q0 59 74 149q-39 -10 -83 -10q-96 0 -149.5 46.5t-53.5 123.5q0 148 192 148h119q-7 33 -32.5 54t-54 21t-43.5 -28q-13 -29 -44 -29q-18 0 -29 10.5t-11 27.5t12 31q-74 -7 -120.5 -51.5t-46.5 -134.5q0 -119 78 -186v-32q-49 25 -78.5 85t-29.5 136q0 98 58 156t175 58z
M376 503q13 -7 35 -7t35 14.5t13 33t-10.5 34.5t-23.5 26t-27 19t-15 9.5t-3 2t-4 2.5v-134z" />
    <glyph glyph-name="uF01CD" unicode="&#xf01cd;" horiz-adv-x="616" 
d="M354 336q0 -7 1 -11q25 3 61 3t72 -13q16 16 16 37.5t-19 36.5t-53 15t-56 -18t-22 -50zM243 325l1 11q0 28 -15.5 42.5t-38.5 14.5q-39 0 -48 -34q-10 -32 -47 -32q-16 0 -28 10t-12 29q0 31 30 49.5t79 18.5t80 -25.5t31 -74.5q0 -20 -4 -37q-36 4 -54 4
q-60 0 -98.5 -22t-38.5 -64t35 -69q61 -47 192 -47q123 0 185 51q34 28 34 69.5t-36 62.5t-81 21t-85 -7q-3 16 -3 32q0 47 26.5 73.5t74.5 30.5v249q16 -12 59.5 -31.5t67 -43t23.5 -60t-22.5 -57.5t-51 -21t-49.5 10v-45q43 -3 67.5 -26t24.5 -53.5t-27 -50.5
q60 -36 60 -123t-76 -133.5t-191 -46.5q-79 0 -138 16.5t-98.5 59t-39.5 109.5t47 104.5t129 37.5q10 0 36 -2zM449 503q16 -7 37 -7t33.5 14.5t12.5 33.5t-10.5 35t-23.5 26t-27 19t-15 9.5t-3 2t-4 2.5v-135z" />
    <glyph glyph-name="uF01CE" unicode="&#xf01ce;" horiz-adv-x="583" 
d="M314 558q-19 -28 -19 -69t19.5 -65t61.5 -24t55 40q-40 61 -117 118zM556.5 619.5q23.5 -22.5 23.5 -58t-20.5 -57t-51 -21.5t-50.5 9v-39q12 -16 15 -22q60 -98 60 -193.5t-69.5 -166.5t-199.5 -71q-100 0 -165.5 40.5t-65.5 124.5q0 144 199 144h16v6q0 32 -19.5 55
t-46.5 23q-38 0 -52 -38q-11 -33 -41 -33q-14 0 -25.5 9.5t-11.5 27.5q0 34 30.5 53.5t74.5 19.5q62 0 93 -39.5t31 -95.5v-14h-60q-63 0 -100.5 -23t-37.5 -66q0 -73 119 -90q30 -5 65 -5q111 0 169 49t58 133q0 61 -43 129q-26 -51 -88 -51q-46 0 -73 35t-27 95t42 108
q63 -35 125 -108v204q17 -14 60 -32.5t66.5 -41zM458 516q12 -7 33.5 -7t33.5 13.5t12 33t-9.5 34.5t-16.5 21.5t-29 21t-24 15.5v-132z" />
    <glyph glyph-name="uF01CF" unicode="&#xf01cf;" horiz-adv-x="619" 
d="M452 445.5q-67 47.5 -185 47.5t-227 -52v32q7 3 33 11q50 17 50 23t-14 16.5t-14 22.5q0 31 50 57t128 26t134 -23t89 -64q61 -76 71 -186q8 -35 8 -87t-12 -98.5t-34.5 -86t-60.5 -63t-87 -23.5t-81.5 28t-32.5 76q0 28 15 46t33.5 25t33.5 22.5t15 44t-38 45.5t-89 17
q-72 0 -121.5 -40t-49.5 -113q0 -36 11 -58q3 27 23 44.5t51 17.5t54.5 -22.5t23.5 -55.5t-23.5 -54.5t-55.5 -21.5q-58 0 -87.5 54.5t-29.5 141.5t59 144t155 57q69 0 118.5 -36t49.5 -97q0 -43 -18 -68.5t-40 -32.5q-58 -18 -58 -50t45 -32q77 0 126 71t49 159t-67 135.5z
M139 541q0 -6 11 -13.5t11 -12t-3 -7.5q61 11 131 11t135 -25t101 -72q-23 80 -86.5 120.5t-151.5 40.5q-56 0 -102 -12.5t-46 -29.5zM101 76q0 -20 14.5 -34.5t34.5 -14.5t34.5 14.5t14.5 34.5t-14.5 34.5t-34.5 14.5t-34.5 -14.5t-14.5 -34.5z" />
    <glyph glyph-name="uF01D0" unicode="&#xf01d0;" horiz-adv-x="670" 
d="M6 303h215q0 32 -16.5 55t-42 23t-37.5 -27q-12 -29 -40 -29q-16 0 -26 10.5t-10 32t22.5 43t62.5 21.5q57 0 88.5 -44.5t32.5 -110.5q-12 2 -29 2q-54 0 -92 -24.5t-38 -67t38 -65.5t88 -23t84.5 19t34.5 57t-30 38q-23 0 -33 -29l-23 9q7 96 62 167.5t129 71.5
q14 0 21 -1v250q16 -12 60 -31.5t67.5 -43t23.5 -60t-22.5 -57.5t-51 -21t-49.5 10v-53q59 -19 92.5 -78t33.5 -142.5t-60 -144.5t-152 -61q-20 0 -41 3v28q18 -3 36 -3q68 0 106 45t38 110.5t-35 112.5t-99 47q-99 0 -126 -111q13 8 28 8q30 0 48 -26.5t18 -67.5
q0 -67 -46.5 -106.5t-119.5 -39.5t-120 43t-47 116.5t74 118.5q-89 -1 -117 -7v33zM495 503q16 -7 37 -7t33.5 14.5t12.5 33.5t-10.5 35t-23.5 26t-27 19t-15 9.5t-3 2t-4 2.5v-135z" />
    <glyph glyph-name="uF01D1" unicode="&#xf01d1;" horiz-adv-x="635" 
d="M264 352q0 -20 14.5 -34.5t34.5 -14.5t34.5 14.5t14.5 34.5t-14.5 34.5t-34.5 14.5t-34.5 -14.5t-14.5 -34.5zM172 299l7 79q0 26 -25 26q-34 0 -55 -35t-21 -84q0 -89 63.5 -138.5t163 -49.5t164.5 57.5t65 139.5v5q0 86 -66.5 140t-189 54t-233.5 -52v32q7 3 33 11.5
t38 14t12 9.5t-14 14t-14 24q0 31 50 57t128 26t134 -23t88 -64q62 -76 72 -186q11 -33 13 -81v-4q-2 -122 -77.5 -196.5t-199.5 -74.5t-199.5 67t-75.5 183q0 71 34 126.5t89 55.5q53 0 53 -57l-5 -70q0 -38 27 -60t71 -22t71.5 24.5t27.5 61.5t-14 57q2 -10 2 -23
q0 -29 -21 -50.5t-56 -21.5t-57 25t-22 57t24.5 55.5t68.5 23.5t75 -33.5t31 -87.5t-37 -87t-90.5 -33t-93 27.5t-39.5 80.5zM144 541q0 -6 11 -13.5t11 -12t-3 -7.5q60 11 119 11q165 0 247 -96q-46 160 -242 160q-54 0 -98.5 -13t-44.5 -29z" />
    <glyph glyph-name="uF01D2" unicode="&#xf01d2;" 
d="M274 363q0 -19 14 -33t33 -14t33 14t14 33t-14 33t-33 14t-33 -14t-14 -33zM141 541q0 -6 11 -13.5t11 -12t-3 -7.5q61 11 119 11q168 0 250 -96q-24 82 -88.5 121t-156.5 39q-54 0 -98.5 -13t-44.5 -29zM171 346l1 26q0 33 -27 33q-35 0 -57 -44.5t-22 -106t32 -111
t88 -49.5q25 0 37 8q-1 4 -1 27q3 41 29.5 60t58.5 19t58.5 -19t29.5 -60q2 -15 -1 -27q14 -8 37 -8q44 0 76.5 59t32.5 130q0 117 -99 173q-66 37 -178.5 37t-223.5 -52v32q7 3 33 11.5t38 14t12 9.5t-14 14t-14 24q0 31 50 57t122 26t123 -20t82.5 -49.5t53.5 -67.5
q37 -66 44 -136q18 -43 18 -107q0 -99 -47 -174t-125 -75q-30 0 -64 15q-3 16 0.5 30.5t9 34t5.5 40.5t-15.5 39.5t-43.5 18.5t-43.5 -18.5t-15.5 -39.5t5.5 -40.5t9 -34t0.5 -30.5q-34 -15 -64 -15q-81 0 -126.5 69t-45.5 155.5t32.5 147t85 60.5t52.5 -61v-27
q0 -40 26 -62.5t67.5 -22.5t65 17.5t24.5 43.5v5q-24 -36 -61.5 -36t-57 21t-19.5 51.5t21.5 51.5t60 21t63 -29.5t24.5 -73t-33.5 -72.5t-87.5 -29t-88 31t-34 85z" />
    <glyph glyph-name="uF01D3" unicode="&#xf01d3;" 
d="M351 319q24 6 67 6t78 -11q22 10 22 33t-20 35.5t-56 12.5t-63 -19.5t-28 -56.5zM71.5 52q-41.5 53 -41.5 138.5t53 142t140 56.5q10 0 28 -2v-29q-17 3 -32 3q-65 0 -106.5 -40t-41.5 -97t33 -91t81 -34t79 19.5t31 53.5v27h27v-26q0 -35 33.5 -54.5t85.5 -19.5t79.5 28
t27.5 70q0 102 -140 102q-44 0 -86 -11q-1 7 -1 22q0 107 102 121v249q16 -12 59.5 -31.5t67 -43t23.5 -60t-22.5 -57.5t-51 -21t-49.5 10v-44h1q48 0 77.5 -19.5t29.5 -56.5q0 -16 -9 -32t-28 -22q71 -43 71 -136q0 -73 -43.5 -120.5t-112.5 -47.5q-98 0 -129 72
q-35 -72 -121 -72q-73 0 -114.5 53zM450 503q13 -7 35 -7t35 14.5t13 33t-10.5 34.5t-23.5 26t-27 19t-15 9.5t-3 2t-4 2.5v-134z" />
    <glyph glyph-name="uF01D4" unicode="&#xf01d4;" horiz-adv-x="528" 
d="M131 363.5q-60 -47.5 -60 -114t43 -108t122 -41.5t131.5 46.5t52.5 117.5t-44 109t-114.5 38t-130.5 -47.5zM31 213q0 56 22 100v368q16 -12 60 -31.5t67.5 -43t23.5 -60t-22.5 -57.5t-51 -21t-49.5 10v-124q36 40 93 64q10 4 62 23q100 36 157 79q21 16 40.5 40t33 37
t27.5 13q32 0 32 -25q0 -42 -81 -86.5t-154 -64.5q80 -2 135.5 -64t55.5 -150.5t-66.5 -154t-163.5 -65.5t-159 60t-62 153zM81 503q16 -7 37 -7t33.5 14.5t12.5 33.5t-10.5 35t-23.5 26q-32 24 -49 33v-135z" />
    <glyph glyph-name="uF01D5" unicode="&#xf01d5;" horiz-adv-x="670" 
d="M31 135q0 139 92 218t241 79q62 0 107 -11v259q16 -12 60 -31.5t67.5 -43t23.5 -60t-22.5 -57.5t-51 -21t-49.5 10v-64q112 -38 112 -133q0 -51 -36.5 -81.5t-89 -30.5t-85.5 30.5t-33 82.5h-102v27h253v-27h-122v-4q0 -26 26.5 -43.5t65.5 -17.5t62.5 20.5t23.5 57.5
q0 56 -54 82t-140 26q-106 0 -175 -66t-69 -171q0 -124 72.5 -196.5t188.5 -72.5q76 0 136 44.5t60 125.5q0 10 -4 18h35v-14q0 -102 -77 -163t-186 -61q-143 0 -236.5 75t-93.5 214zM499 503q13 -7 35 -7t35 14.5t13 33t-10.5 34.5t-23.5 26t-27 19t-15 9.5t-3 2t-4 2.5
v-134z" />
    </font>
</defs>
</svg>
